<?xml version="1.0" encoding="UTF-8" standalone="no"?><svg xmlns="http://www.w3.org/2000/svg" xmlns:xlink="http://www.w3.org/1999/xlink" fill="#396416" height="116.5" preserveAspectRatio="xMidYMid meet" version="1" viewBox="0.0 0.0 16.0 116.5" width="16" zoomAndPan="magnify"><g id="change1_1"><path d="M9,48.1H7V18.2h2V48.1z M9,98.3H7V68.4h2V98.3z" fill="inherit"/></g><g id="change1_2"><path d="M8,16c-4.4,0-8-3.6-8-8s3.6-8,8-8s8,3.6,8,8S12.4,16,8,16z M16,58.2c0-4.4-3.6-8-8-8s-8,3.6-8,8s3.6,8,8,8S16,62.7,16,58.2z M16,108.5c0-4.4-3.6-8-8-8s-8,3.6-8,8s3.6,8,8,8S16,112.9,16,108.5z" fill="inherit"/></g></svg>