<?xml version="1.0" encoding="UTF-8" standalone="no"?><svg xmlns="http://www.w3.org/2000/svg" xmlns:xlink="http://www.w3.org/1999/xlink" fill="#396416" height="38.1" preserveAspectRatio="xMidYMid meet" version="1" viewBox="-0.2 -0.0 134.8 38.1" width="134.8" zoomAndPan="magnify"><g id="change1_1"><path d="m8.7978 5.4357e-6c-0.69492 5.9513e-4 -1.3497 0.050412-1.958 0.15732-2.7878 0.48991-4.898 2.2872-6.1015 4.7217-0.82022 1.6892-0.92102 3.6092-0.48007 5.3919 0.32207 1.3021 1.1954 2.4131 2.0996 3.2073 0.1988 0.13374 0.52533 0.00903 0.29139-0.30912-1.6333-1.5572-2.5023-4.3548-0.77788-7.8292 2.4919-5.0208 9.6781-3.7013 17.849-0.80495-1.6713 1.9166-2.7778 4.5602-3.238 5.4344-1.1887 2.2582-4.3111 11.349-5.6339 14.366-2.2479 5.1274-6.2121 7.472-7.9808 6.1742-0.80998-0.81999 0.11011-3.4633-0.11878-4.2036-0.069199-0.2352-0.24363-0.4558-0.47004-0.12208-1.0607 2.3579-1.2523 4.2049-0.15291 5.5251 0.73257 0.87969 2.3613 1.2406 4.534 1.5213 5.9199 0.76469 9.6635-13.941 11.137-18.534 1.0742-3.3482 2.0993-6.865 3.1814-9.706 0.36948 0.13617 0.74036 0.27472 1.1127 0.4158 1.6549 0.62707 3.2746 1.1752 4.8563 1.6529-1.0725 1.578-2.1185 3.4568-3.0768 5.5355-2.2086 4.7909-4.4035 11.626-4.2226 14.393 0.51451 1.8008 1.2512 1.3541 1.5436 0.84364l0.68357-2.1985c1.6916-2.545 6.2956-8.3197 7.771-7.4752 0.7459 0.42696-2.9928 4.5211-4.4829 7.1079-1.4901 2.5868-0.70647 4.2128 1.6302 5.0937 1.8964 0.71484 6.6061-5.8921 8.3139-8.4077-0.2991 1.1183-0.36277 2.3168-9e-3 3.3419 0.79711 2.3098 2.6376 0.37802 4.4753-1.6781-0.22791 1.781-0.06639 3.3631 1.1154 3.6578 0.4082 0.1018 0.72574 0.38023 1.1583 0.09654 1.2186-0.79917 2.5086-2.976 3.3519-4.6041-0.19091 1.7931-0.21717 3.5177 0.12828 3.6366 0.03839 0.02536 0.18073 0.06311 0.86153-0.39228 0.23982-0.16041 0.57626-0.98064 0.92177-2.027 1.4488-2.3188 5.0044-5.1483 5.2388-5.0267 0.27767 0.14405-2.1887 5.3835-2.5657 6.4087-0.37695 1.0252-0.44514 2.6653 1.1639 3.336 0.26678 0.11121 0.71699 0.32753 1.195-0.02951 1.5949-1.1914 4.0142-4.3282 5.4636-6.3069-0.52865 1.8723-0.83635 3.4959-0.76775 4.5454 0.51452 1.8008 1.1959 1.2725 1.5436 0.84364l1.5576-4.2836c1.1392 2.9892 3.5967 6.932 5.4719 7.658 6.3682 2.4654 11.339-2.3031 11.339-2.3031 0.312-0.28002 0.11312-0.58998-0.19612-0.28995-2.3634 1.9619-6.9372 3.8673-10.28 1.559-1.8263-1.261-3.8178-4.1782-4.9659-7.3518 4.7772-1.2022 8.333-4.2485 5.6677-6.4605-1.3297-1.1036-3.9238 1.4701-6.1556 4.3242 0.45851-1.5304 0.94879-3.0125 1.5418-4.4626 2.1349-1.0982 4.2526-2.4494 6.3425-4.4109 4.3017-4.4483 4.9747-9.2387 2.2107-9.6977-2.8315-0.40719-6.6451 4.1168-9.6152 10.56-1.1262 2.4431-2.3104 5.3968-3.1772 8.0728-1.6732 3.2664-5.8342 7.1887-6.5435 6.9246-0.73716-0.27454 1.5541-5.478 2.0673-6.8939 0.51323-1.4159-0.04237-2.7035-1.0757-2.9338-0.88098-0.19634-2.8463 1.9867-5.0274 4.8151 0.53462-1.8384 1.0003-3.7939 1.0501-4.1587 0.09438-0.69194 0.44234-1.4207-0.73595-1.6594-1.1783-0.23874-1.9526 1.8062-2.3083 3.6232-0.05659 0.28901-0.11062 0.60129-0.16087 0.92591-0.94204 1.6721-3.3408 5.7225-4.3004 5.3888-0.64506-0.22433 0.52204-3.6912 1.3516-6.192 0.41352-0.91848 0.64633-2.0891 0.07574-2.7646-0.63511-0.7297-1.0764-0.4226-1.5397 0.51643-0.06539 0.17777-0.15285 0.42352-0.25169 0.71578-1.0397-1.3611-2.4177-1.3175-3.5607-0.49101-0.62858 0.45453-1.2678 1.3678-1.7134 2.4535l-0.01295-3e-3c0.0052 0.0033 0.0066 0.01134 0.0046 0.02351-0.01177 0.0289-0.02348 0.05786-0.03498 0.08699-0.52838 1.0441-6.9141 9.0785-8.7526 8.1588-1.0393-0.51991 0.12852-2.9907 1.0057-3.9764 0.74806-0.84057 4.7053-5.5219 2.8115-7.6964-1.1932-1.3701-5.0564 2.1771-7.7725 5.4522l0.06953-0.22366c0.84734-3.0096 1.69-5.8148 3.0215-8.5315 0.9886-2.017 2.0402-4.4359 3.2297-6.5767 12.286 3.3088 22.093 2.3823 27.953 1.2073 0.83497-0.17362 0.85092-1.0467-0.3684-0.87756-6.046 1.2356-18.37-0.11845-26.218-2.4584-0.01524-0.00454-0.03061-0.0093-0.04586-0.013853 0.63278-0.90606 1.3048-1.6883 2.0248-2.2676 0.96761-0.81523 1.6997-0.82065 1.1205-1.2061-1.4884-0.19615-2.8788 0.91843-4.0045 1.924-0.31123 0.3024-0.62426 0.63707-0.93759 1.0005-7.0841-2.2075-14.542-4.9635-19.747-4.9591zm76.483 0.73542c-2.1034-0.01558-4.8429 2.6003-5.8721 4.152-0.13705 0.25376-0.18599 0.52558 0.14017 0.36299 0 0 4.5179-3.9912 5.8422-2.9908 1.3244 1.0004-6.7505 12.22-8.1091 15.236-0.82628 1.8347 0.04155 5.3653 1.1839 6.7548 1.0899 1.3258 2.5174 2.6196 4.5854 1.5911 4.8471-2.177 11.439-12.218 14.713-15.536-0.52254 1.2831-2.8759 7.1185-5.0554 13.457-3.9683 1.2956-7.5951 3.3097-10.18 6.7672-2.6454 3.5386-1.5564 7.523 4.3811 7.0464 3.9534-0.31732 7.3013-7.5243 9.5662-13.791 2.8145-0.8189 5.155-1.184 6.8594-1.5256-0.23774 0.90094-0.39171 2.0782 0.0537 2.9602 0.22721 0.4499 0.62128 0.82701 1.2566 1.0576 0.31814 0.11546 0.67439 0.11428 1.0488 0.01815 1.4676-0.37673 3.3346-2.2491 4.1984-4.2491 1.1533-0.32459 2.2067-0.97398 2.9261-1.4974-0.53713 1.5601-0.84349 3.3725-0.74381 4.4286 0 0 0.75304 1.8821 2.5257 1.9739 0.84884 0.04397 2.2724-1.69 3.5231-3.5236-0.30075 0.98876-0.531 1.9362-0.62428 2.7036-0.22711 1.8684 0.8628 3.1988 1.9994 3.4413 5.2909 1.184 15.139-10.418 12.283-17.136-3.8271-9.0015-15.944-9.5952-23.882-7.2907-0.92898 0.32883-0.61406 0.90092 0.29887 0.72868 6.2194-2.0136 19.658 0.036603 21.45 7.9005 1.3827 6.067-5.4858 15.72-9.6129 14.805-0.40104-0.15039-0.86052-1.2578-0.52699-2.597 0.68792-2.7622 2.4378-6.1675 2.6408-6.942 0.30146-1.15-0.45825-2.307-1.225-1.8899-0.27225 0.14808-0.83276 1.1771-1.4254 2.5446-2.6764 3.839-4.4367 6.398-5.4925 6.0398-0.83925-0.28468 0.56155-4.4988 1.1168-5.5493 0.55522-1.0504 1.332-2.824-0.27404-2.5401-0.71164 0.1258-1.3757 1.1734-1.8778 2.481-0.9125 0.64217-2.0342 1.1207-2.8701 1.3724 0.0834-0.25046 0.14963-0.50097 0.19527-0.7489 0.53914-2.9286-2.3516-4.5925-3.6394-4.7667-1.0291-0.13918-3.0022 1.0195-3.3155 2.5991-0.18544 0.9348-0.0909 1.5162 0.61993 2.077-0.057 0.07989-0.10952 0.16414-0.15584 0.25296 0 0-0.10745 0.23048-0.23815 0.5961-2.1868 0.32039-4.4528 0.66338-6.6917 1.1459 1.0174-2.9228 1.7816-5.5231 2.2399-6.9484 3.2048-9.9671 6.4868-13.472 5.6653-14-0.82145-0.52801-1.5411 0.74439-1.5411 0.74439l-0.52168 0.73441c-1.9542 2.2758-9.3461 10.884-11.025 12.823-1.907 2.2028-7.6348 9.3467-10.586 7.5933-2.9759-1.7684 1.4173-8.5009 4.1328-13.275 1.2369-2.1804 3.2119-5.4444 2.1317-8.0199-0.48716-1.1248-1.2372-1.5661-2.0924-1.5725zm-14.51 2.9871c2.6726 0.00313-0.88774 5.69-2.8189 7.7545-1.3334 1.3661-3.2128 2.6543-5.1551 3.6552 0.13596-0.30275 0.27693-0.60431 0.42418-0.90473 1.8215-3.7163 3.6739-8.0871 6.3932-10.275 0.47278-0.15835 0.85456-0.23065 1.1567-0.2303zm-4.7208 12.773c0.52252 0.01641 0.29865 1.0186-1.1116 2.4234-1.0955 1.0913-2.4871 1.8818-3.6297 2.4072 0.98001-1.2223 2.148-2.6407 3.0897-3.6696 0.75591-0.82582 1.3381-1.1708 1.6516-1.161zm40.485 0.25806c0.15615 0.0019 0.30429 0.02653 0.43984 0.07749 1.2038 0.45263 2.6168 2.0934 1.8335 4.881-0.98853 0.0064-1.9449-0.23413-2.7596-0.57964 0.2566-0.70234 0.0836-1.1962-0.27191-1.3558-0.30069-0.13499-0.86821 0.02072-1.3507 0.40104-0.42911-0.34975-0.70165-0.69406-0.75506-0.95277-0.20632-0.99945 1.5925-2.4871 2.8639-2.4713zm-67.036 2.519c0.38952-0.01095 0.69059 0.36628 0.89343 0.74253-0.1602 0.52961-0.32528 1.1228-0.47015 1.738-0.74003 1.213-1.9736 2.9606-2.6803 2.4596-1.0566-0.749 1.2262-4.6605 2.0981-4.9146 0.05449-0.01588 0.10748-0.02414 0.15891-0.02558zm66.304 2.3718c0.1941 0.08267 0.39988 0.16775 0.62136 0.25662 0.7777 0.31209 1.5189 0.39014 2.1904 0.3555-0.67229 1.4143-2.9578 3.3654-3.6704 3.4527-0.76364 0.0936 0.14962-2.9364 0.79576-3.9615 0.0219-0.03478 0.0428-0.06917 0.0628-0.10329zm-13.592 3.5878c-0.38662 1.1549-0.76157 2.313-1.1119 3.4495-1.3123 4.2568-3.1377 6.0885-4.794 6.639-2.5868 0.8055-4.4302-1.4807-2.1234-4.3435 2.6999-3.3507 5.3502-4.7266 8.0293-5.745z"/></g></svg>