<?xml version="1.0" encoding="UTF-8" standalone="no"?><svg xmlns="http://www.w3.org/2000/svg" xmlns:xlink="http://www.w3.org/1999/xlink" clip-rule="evenodd" fill="#396416" fill-rule="evenodd" height="192" image-rendering="optimizeQuality" preserveAspectRatio="xMidYMid meet" shape-rendering="geometricPrecision" text-rendering="geometricPrecision" version="1" viewBox="0.0 0.0 2954.0 192.0" width="2954" zoomAndPan="magnify"><g><g id="change1_1"><path d="M583 191L1 191 1 1 430 1z"/><path d="M583 192l-582 0 -1 0 0 -1 0 -190 0 -1 1 0 429 0 1 0 0 0 153 191 1 1 -2 0zm-581 -2l579 0 -151 -188 -428 0 0 188z" fill-rule="nonzero"/><path d="M815 191L724 191 572 1 663 1z"/><path d="M815 192l-91 0 0 0 -1 0 -152 -190 -1 -2 2 0 91 0 0 0 1 0 152 191 2 1 -3 0zm-90 -2l88 0 -151 -188 -88 0 151 188z" fill-rule="nonzero"/><path d="M1053 191c-31,0 -61,0 -92,0 -50,-63 -101,-127 -152,-190 30,0 61,0 91,0 51,63 102,127 153,190z"/><path d="M1053 192l-92 0 0 0 0 0 -153 -190 -1 -2 2 0 91 0 1 0 0 0 153 191 1 1 -2 0zm-91 -2l89 0 -151 -188 -89 0 151 188z" fill-rule="nonzero"/><path d="M1290 191c-30,0 -61,0 -91,0 -51,-63 -102,-127 -153,-190 31,0 61,0 92,0 51,63 101,127 152,190z"/><path d="M1290 192l-91 0 -1 0 0 0 -152 -190 -2 -2 2 0 92 0 0 0 0 0 153 191 1 1 -2 0zm-91 -2l89 0 -151 -188 -89 0 151 188z" fill-rule="nonzero"/><path d="M1528 191c-31,0 -61,0 -92,0 -51,-63 -101,-127 -152,-190 30,0 61,0 91,0 51,63 102,127 153,190z"/><path d="M1528 192l-92 0 0 0 -1 0 -152 -190 -1 -2 2 0 91 0 1 0 0 0 152 191 2 1 -2 0zm-91 -2l89 0 -151 -188 -89 0 151 188z" fill-rule="nonzero"/><path d="M1765 191c-30,0 -61,0 -91,0 -51,-63 -102,-127 -153,-190 31,0 61,0 91,0 51,63 102,127 153,190z"/><path d="M1765 192l-91 0 -1 0 0 0 -153 -190 -1 -2 2 0 91 0 1 0 0 0 153 191 1 1 -2 0zm-91 -2l89 0 -151 -188 -89 0 151 188z" fill-rule="nonzero"/><path d="M2002 191c-30,0 -61,0 -91,0 -51,-63 -102,-127 -153,-190 31,0 61,0 92,0 51,63 102,127 152,190z"/><path d="M2002 192l-91 0 0 0 -1 0 -152 -190 -2 -2 2 0 92 0 0 0 1 0 152 191 1 1 -2 0zm-91 -2l89 0 -151 -188 -89 0 151 188z" fill-rule="nonzero"/><path d="M2240 191c-31,0 -61,0 -92,0 -50,-63 -101,-127 -152,-190 30,0 61,0 91,0 51,63 102,127 153,190z"/><path d="M2240 192l-92 0 0 0 0 0 -153 -190 -1 -2 2 0 91 0 1 0 0 0 153 191 1 1 -2 0zm-91 -2l89 0 -151 -188 -89 0 151 188z" fill-rule="nonzero"/><path d="M2477 191c-30,0 -61,0 -91,0 -51,-63 -102,-127 -153,-190 31,0 61,0 92,0 51,63 101,127 152,190z"/><path d="M2477 192l-91 0 -1 0 0 0 -153 -190 -1 -2 2 0 92 0 0 0 0 0 153 191 1 1 -2 0zm-91 -2l89 0 -151 -188 -89 0 151 188z" fill-rule="nonzero"/><path d="M2715 191c-31,0 -61,0 -92,0 -51,-63 -102,-127 -152,-190 30,0 61,0 91,0 51,63 102,127 153,190z"/><path d="M2715 192l-92 0 0 0 -1 0 -152 -190 -1 -2 2 0 91 0 1 0 0 0 152 191 2 1 -2 0zm-91 -2l89 0 -151 -188 -89 0 151 188z" fill-rule="nonzero"/><path d="M2952 191L2861 191 2708 1 2799 1z"/><path d="M2952 192l-91 0 -1 0 0 0 -153 -190 -1 -2 2 0 91 0 1 0 0 0 153 191 1 1 -2 0zm-91 -2l89 0 -151 -188 -89 0 151 188z" fill-rule="nonzero"/></g></g></svg>