<?xml version="1.0" encoding="UTF-8" standalone="no"?><svg xmlns="http://www.w3.org/2000/svg" xmlns:xlink="http://www.w3.org/1999/xlink" fill="#396416" height="102.7" preserveAspectRatio="xMidYMid meet" version="1" viewBox="0.0 -0.1 126.0 102.7" width="126" zoomAndPan="magnify"><g id="change1_1"><path d="M64.622,39.879c-7.97,0-14.454,6.484-14.454,14.454s6.484,14.453,14.454,14.453s14.453-6.483,14.453-14.453 S72.592,39.879,64.622,39.879z M64.622,66.786c-6.867,0-12.454-5.587-12.454-12.453c0-6.867,5.587-12.454,12.454-12.454 c6.866,0,12.453,5.586,12.453,12.454C77.075,61.199,71.488,66.786,64.622,66.786z" fill="inherit"/><path d="M64.622,15.796c-21.249,0-38.537,17.288-38.537,38.537s17.288,38.536,38.537,38.536s38.536-17.287,38.536-38.536 S85.871,15.796,64.622,15.796z M64.622,90.869c-20.146,0-36.537-16.39-36.537-36.536s16.391-36.537,36.537-36.537 s36.536,16.39,36.536,36.537S84.769,90.869,64.622,90.869z" fill="inherit"/><path d="M64.622,7.685c-25.722,0-46.647,20.926-46.647,46.647S38.9,100.98,64.622,100.98c25.721,0,46.646-20.926,46.646-46.647 S90.343,7.685,64.622,7.685z M64.622,98.98c-24.619,0-44.647-20.028-44.647-44.647c0-24.619,20.028-44.647,44.647-44.647 c24.618,0,44.646,20.029,44.646,44.647C109.269,78.952,89.24,98.98,64.622,98.98z" fill="inherit"/><path d="M125.182,0.017c-0.475-0.088-0.943,0.175-1.116,0.627c-7.911,20.737-11.434,39.591-10.769,57.64 c0.056,1.525,1.302,2.72,2.837,2.72h1.367l-1.959,35.965c-0.08,1.449,0.426,2.828,1.424,3.882c0.998,1.055,2.349,1.636,3.801,1.636 c2.886,0,5.233-2.348,5.233-5.232V1C126,0.518,125.655,0.104,125.182,0.017z M124,97.254c0,1.782-1.45,3.232-3.233,3.232 c-0.897,0-1.731-0.358-2.349-1.011c-0.616-0.65-0.929-1.502-0.88-2.397l2.017-37.02c0.016-0.274-0.083-0.543-0.271-0.742 c-0.189-0.199-0.452-0.313-0.727-0.313h-2.423c-0.446,0-0.822-0.356-0.839-0.794C114.697,41.975,117.548,25.055,124,6.64V97.254z" fill="inherit"/><path d="M14.188,38.2c0.185-0.135,0.371-0.271,0.56-0.408c2.802-2.04,5.978-4.351,5.978-7.542l-0.7-23.275 c-0.044-1.48-1.238-2.64-2.72-2.64c-1.5,0-2.721,1.221-2.721,2.721v16.486c0,0.304-0.247,0.552-0.552,0.552 c-0.304,0-0.552-0.247-0.553-0.549L13.4,3.985c-0.007-1.668-1.37-3.026-3.038-3.026c-1.669,0-3.032,1.358-3.038,3.026l-0.08,19.56 c-0.001,0.303-0.249,0.549-0.552,0.549c-0.305,0-0.552-0.248-0.552-0.552V7.056c0-1.5-1.221-2.721-2.721-2.721 c-1.481,0-2.676,1.159-2.72,2.639L0,30.281c0,3.163,3.177,5.475,5.98,7.514c0.188,0.137,0.373,0.272,0.557,0.406L3.635,95.522 c-0.094,1.861,0.562,3.631,1.846,4.981s3.018,2.095,4.882,2.095s3.598-0.744,4.882-2.095c1.284-1.352,1.939-3.12,1.846-4.981 L14.188,38.2z M13.795,99.126c-0.903,0.949-2.122,1.473-3.433,1.473s-2.53-0.523-3.433-1.473c-0.902-0.95-1.363-2.193-1.297-3.502 l2.929-57.858c0.017-0.333-0.134-0.653-0.401-0.853c-0.324-0.242-0.661-0.487-1.003-0.736C4.74,34.419,2,32.425,2,30.311L2.7,7.034 c0.011-0.392,0.327-0.698,0.72-0.698c0.397,0,0.721,0.323,0.721,0.721v16.486c0,1.407,1.145,2.552,2.552,2.552 c1.402,0,2.547-1.14,2.552-2.542l0.08-19.56c0.002-0.57,0.468-1.034,1.038-1.034s1.035,0.464,1.038,1.034l0.079,19.56 c0.007,1.401,1.151,2.541,2.553,2.541c1.407,0,2.552-1.145,2.552-2.552V7.056c0-0.397,0.323-0.721,0.721-0.721 c0.393,0,0.709,0.307,0.72,0.699l0.7,23.246c0,2.144-2.738,4.137-5.154,5.895c-0.344,0.25-0.681,0.496-1.006,0.738 c-0.268,0.2-0.418,0.519-0.401,0.853l2.929,57.858C15.158,96.932,14.697,98.176,13.795,99.126z" fill="inherit"/></g></svg>