<?xml version="1.0" encoding="UTF-8" standalone="no"?><svg xmlns="http://www.w3.org/2000/svg" xmlns:xlink="http://www.w3.org/1999/xlink" fill="#396416" height="181.3" preserveAspectRatio="xMidYMid meet" version="1" viewBox="-0.3 -0.6 321.9 181.3" width="321.9" zoomAndPan="magnify"><g id="change1_1"><path d="M142,137.5L142,137.5c0,0.2,0,0.4,0,0.7c-0.4,8.5-4.1,16.2-9.6,20.9c13.8,11.9,31.9,20.2,46.7,19.4 c12.2-0.7,23.6-7.4,23.6-20.8c0-0.4,0-0.8-0.1-1.2c-0.9-14.6-17-23.6-30.5-23.7C162.5,132.5,151.6,135,142,137.5L142,137.5z M59.5,38c1.7-1.3,3-1.8,4.7-0.9c1.9,0.9,2.7,3.2,1.8,5.2c-1.7,3.5-6.8,5.3-12,7.1c-1.8-5.2-3.6-10.3-2-13.8 c0.9-1.9,3.2-2.7,5.2-1.8C59,34.5,59.5,35.8,59.5,38L59.5,38z M72.1,29.2c-1.1-0.9-2-1.2-3.2-0.6c-1.3,0.6-1.8,2.2-1.2,3.4 c1.1,2.3,4.5,3.5,8,4.7c1.2-3.4,2.4-6.8,1.3-9.2c-0.6-1.3-2.2-1.8-3.4-1.2C72.4,26.9,72.1,27.8,72.1,29.2L72.1,29.2z M49.2,23.6 c1.1-0.9,2-1.2,3.1-0.6c1.3,0.6,1.8,2.2,1.2,3.4c-1.1,2.3-4.5,3.5-8,4.7c-1.2-3.4-2.4-6.9-1.3-9.2c0.6-1.3,2.2-1.8,3.4-1.2 C48.8,21.3,49.2,22.2,49.2,23.6L49.2,23.6z M100,51.6c1.7-1.3,3-1.8,4.8-0.9c1.9,0.9,2.7,3.2,1.8,5.2c-1.7,3.5-6.9,5.3-12,7.1 c-1.8-5.2-3.6-10.3-2-13.8c0.9-1.9,3.3-2.7,5.2-1.8C99.6,48.1,100,49.4,100,51.6L100,51.6z M99.9,6.3c0.8,1.9,1.7,3.7,2.6,5.5 c0,0.1,0.1,0.1,0.1,0.1c0.1,0.1,0,0.3-0.2,0.4c-0.1,0.1-0.1,0.1-0.2,0.1c-0.1,0.1-0.3,0-0.4-0.2c-0.4-0.7-1-1.4-1.7-2 c-0.7-0.6-1.3-1-1.8-1.1c-1-0.3-2.6-0.1-4.8,0.7L92.7,10c-1,0.4-1.6,0.8-1.8,1.4c-0.1,0.4-0.1,1.1,0.2,2c0.1,0.3,0.4,1.2,0.9,2.7 l4.3,12.5c0.7,1.9,1.1,3.1,1.4,3.7c0.2,0.4,0.5,0.7,0.8,1c0.3,0.3,0.8,0.4,1.4,0.3c0.3,0,0.9-0.1,1.6-0.3c0.3,0,0.4,0.1,0.5,0.3 c0.1,0.2,0,0.4-0.2,0.5c-2.1,0.6-3.5,1-4.3,1.3c-0.8,0.3-2.1,0.8-3.9,1.5c-0.2,0.1-0.4,0-0.5-0.2c-0.1-0.3,0-0.4,0.2-0.5 c0.7-0.3,1.2-0.6,1.5-0.8c0.3-0.3,0.6-0.6,0.6-1c0.1-0.7-0.3-2.3-1.2-5l-4.3-12.5c-0.7-1.9-1.1-3-1.2-3.5c-0.2-0.5-0.5-0.8-0.7-1 c-0.4-0.3-1.4-0.2-3,0.3c-2.2,0.8-3.5,1.6-4.1,2.5c-0.7,0.9-0.9,2.4-0.8,4.6c0,0.2-0.1,0.3-0.2,0.3c-0.1,0-0.1,0-0.2,0.1 c-0.2,0-0.3,0-0.4-0.2c0,0,0-0.1,0-0.1c-0.4-2.2-0.8-4.2-1.2-6c3.4-1,7-2.2,10.8-3.6C93,8.8,96.6,7.5,99.9,6.3L99.9,6.3z M115.4,17 l1.1,6.3c0.4,2,0.6,3.3,0.8,3.9c0.2,0.5,0.4,0.9,0.7,1.2c0.3,0.4,1.3,0.5,2.9,0.4c0.3,0,0.5,0.1,0.5,0.4c0,0.2-0.1,0.3-0.4,0.4 c-1.9,0.3-3.3,0.5-4.3,0.6c-1.1,0.2-2.5,0.5-4.1,0.9c-0.2,0.1-0.3-0.1-0.3-0.3c-0.1-0.3,0-0.5,0.2-0.5c0.9-0.2,1.4-0.4,1.6-0.5 c0.5-0.2,0.7-0.5,0.9-0.9c0.2-0.6,0.1-2.4-0.5-5.2l-2.3-13c-0.3-2-0.6-3.2-0.7-3.6c-0.1-0.5-0.3-0.8-0.5-1.2 c-0.3-0.3-0.7-0.5-1.4-0.5c-0.3,0-0.8,0-1.6,0.1c-0.2,0-0.4-0.1-0.4-0.4c-0.1-0.3,0-0.4,0.3-0.5c2.1-0.3,3.5-0.5,4.3-0.6 c0.7-0.1,2-0.4,4.1-0.9c0.2,0,0.3,0.1,0.4,0.3c0.1,0.3,0,0.5-0.2,0.5c-0.9,0.3-1.4,0.5-1.6,0.6c-0.4,0.2-0.7,0.5-0.9,0.8 c-0.2,0.5-0.2,1.2-0.1,2.1c0.1,0.4,0.2,1.4,0.5,2.8l0.9,5.3c2.4-0.3,4.9-0.7,7.7-1.2c2.7-0.5,5.2-1,7.5-1.5l-0.9-5.3 c-0.3-1.9-0.6-3.1-0.7-3.7c-0.2-0.4-0.3-0.8-0.6-1.2c-0.3-0.4-1.3-0.5-2.9-0.4c-0.2,0-0.3-0.1-0.4-0.3c0-0.3,0-0.4,0.3-0.5 c2.2-0.3,3.6-0.5,4.3-0.6c0.7-0.1,2-0.4,4.1-0.9c0.2,0,0.3,0.1,0.3,0.4c0,0.3,0,0.4-0.2,0.5c-1,0.3-1.6,0.5-1.9,0.7 c-0.3,0.2-0.5,0.4-0.7,0.8c-0.2,0.5-0.1,2.2,0.4,4.9l2.3,13c0.4,2.2,0.6,3.4,0.7,3.9c0.1,0.5,0.3,0.9,0.6,1.2 c0.2,0.3,0.7,0.5,1.4,0.5c0.3,0,0.8,0,1.6-0.1c0.2,0,0.4,0.1,0.4,0.3c0.1,0.3,0,0.4-0.3,0.4c-1.9,0.3-3.3,0.5-4.2,0.6 c-1.2,0.2-2.6,0.5-4.2,0.9c-0.2,0-0.3-0.1-0.4-0.3c-0.1-0.3,0-0.5,0.2-0.5c0.9-0.3,1.4-0.4,1.7-0.5c0.5-0.2,0.8-0.5,0.9-0.9 c0.2-0.6,0-2.4-0.5-5.2l-1.1-6.3c-2.2,0.3-4.7,0.7-7.6,1.2C120.1,15.9,117.6,16.4,115.4,17L115.4,17z M160.9,27.5 c-2.8-0.2-5.9-0.3-9.2-0.4c-2-0.1-5-0.1-9-0.1c-0.2,0-0.3-0.1-0.3-0.4c0-0.3,0.1-0.4,0.3-0.4c1.4-0.1,2.3-0.4,2.6-0.9 c0.3-0.5,0.5-2.2,0.6-5.1l0.3-13.2c0-2.1,0.1-3.3,0-3.7c0-0.5-0.1-0.9-0.3-1.2c-0.3-0.5-1.3-0.9-2.9-1.1c-0.2,0-0.3-0.2-0.3-0.4 c0-0.3,0.1-0.4,0.3-0.4c1.9,0.1,4.8,0.3,8.7,0.4c4,0.1,7,0.1,9.1,0.1c0.1,1.7,0.3,3.7,0.6,6c0,0.1,0,0.1,0,0.2 c0,0.1-0.1,0.2-0.3,0.3c-0.1,0-0.1,0-0.2,0c-0.1,0-0.2-0.1-0.3-0.3c-0.2-0.7-0.5-1.5-0.9-2.3c-0.4-0.8-0.8-1.3-1.2-1.6 c-0.6-0.5-1.4-0.8-2.4-0.9c-0.8-0.1-2.1-0.2-3.7-0.3c-1.1,0-1.9,0-2.3,0.1c-0.7,0.1-1.1,0.3-1.3,0.7c-0.3,0.4-0.5,1.5-0.5,3.1l0,1.5 l-0.1,5.4c0.5,0.1,1.3,0.1,2.6,0.1c3.1,0.1,5-0.1,5.6-0.5c0.5-0.4,0.8-1.2,0.9-2.6c0-0.3,0.2-0.4,0.5-0.4s0.4,0.1,0.4,0.4 c-0.1,1.6-0.1,2.9-0.1,3.8c0,1-0.1,2.4,0,4.1c0,0.3-0.2,0.4-0.5,0.4c-0.3,0-0.4-0.1-0.4-0.4c0-1.5-0.3-2.5-0.9-2.9 c-0.6-0.5-2.4-0.7-5.4-0.8c-0.9,0-1.8,0-2.6,0l-0.2,6.6c0,1.5-0.1,2.5,0,2.9c0.1,0.9,0.2,1.5,0.4,1.9c0.3,0.5,0.9,0.8,1.7,0.9 c0.3,0.1,1.1,0.1,2.3,0.1c2.2,0,3.8-0.1,5-0.3c0.7-0.2,1.4-0.5,2.1-0.9c1-0.6,2-1.9,2.8-3.9c0.1-0.1,0.1-0.2,0.3-0.2 c0.1,0,0.1,0,0.2,0.1c0.2,0.1,0.3,0.2,0.3,0.3c0,0,0,0.1,0,0.2C162.5,23.2,161.8,25.3,160.9,27.5L160.9,27.5z M271,54.1L271,54.1 c-0.5-1-1.5-0.4-1,0.5c2.8,5.6,8.1,9.7,13.9,11.6c9.8,3.3,25.7-0.1,29.4-11.1c3.5-10.3-6.4-17-14.8-19.9 C265.3,24,216.8,46,185.8,35.5c-25.3-8.6-18.2-32.9,11.2-23c7,2.4,13.2,5.8,14.9,8c0.5,0.7,1.4-0.2,1-0.8 c-1.8-2.2-7.7-7.6-14.9-10.1c-30.4-10.2-39.5,17.8-12.5,27c42.2,14.3,90.7-7.6,112.6-0.3c7.7,2.7,17.3,8.8,14.1,18.4 c-3.5,10.3-20.7,11.7-27.6,9.4C281.4,63,273.7,59.4,271,54.1L271,54.1z M117,144.5L117,144.5c5,5,9.4,9.1,14.7,13.7 c4.9-4.2,8.9-11.9,9.3-20.2c0-0.1,0-0.2,0-0.3C132.4,140.1,125.5,142.1,117,144.5L117,144.5z M71.8,153L71.8,153 c14.3-1.9,26.9-4.6,40.7-8.4C101.5,133.1,88.2,123,79,123c-9.5,0-13.4,8-12.6,16.4C66.9,144.3,68.9,149,71.8,153L71.8,153z M72.6,154.1L72.6,154.1c6.2,7.8,16.9,14,32.8,14c10.1,0,18.2-3,24-7.7c-5.3-4.7-10.9-9.8-15.9-14.9C99.5,149.3,87,152.1,72.6,154.1 L72.6,154.1z M0.1,138.9L0.1,138.9c-0.4-0.7,0.7-1.2,1-0.6c10,20.2,50.3,17.3,69.3,14.9c-2.8-4-4.7-8.8-5.2-13.6 c-0.9-9.1,3.5-17.7,13.7-17.7c14,0,25.8,9.8,37,21.7c8.8-2.4,16-4.6,24.9-7c-0.1-12.9-8.8-21.7-22-21.7c-0.8,0-0.7-1.1,0-1.1 c13.7,0,22.9,9.1,23.2,22.6c9.5-2.5,20.4-5,30.2-4.8c14.1,0.1,30.7,9.5,31.6,24.8c0.1,0.5,0.1,0.9,0.1,1.3 c0,14.1-11.8,21.1-24.6,21.9c-18.8,1.1-35-6.3-49.1-18.5c-6,4.9-14.3,8.1-24.9,8.1c-16.6,0-27.8-6.7-34.1-15.1 C51.5,156.7,10.5,159.8,0.1,138.9L0.1,138.9z M84.8,50c-0.7-2.3-2-3.8-3.7-4.1c-0.3-0.1-0.7-0.1-1-0.1H80c-0.3,0.1-0.6,0.3-0.6,0.7 c0,0.3,0.2,0.7,0.7,0.7h0.2h0.5c1.2,0.3,2.2,1.5,2.7,3.3c1.2,3.9,0.4,9.7-0.8,14.5c-0.6,2.5-0.7,2.6-0.8,2.8c-2.5,8.8-19,49-21.2,49 c-2.7,0,2.3-50.1,2.8-55.2c0.6-5.5-2.3-6.8-4.9-6.2c-5.2,1.2-22.7,55.4-25.5,55.4C26,113.6,34,38.9,18.2,38.9c-4.6,0-9,3.4-12.4,9.5 C2.9,53.5,1,60.1,1,65.1c0,3.1,1,5.8,2.9,8.1c1.5,1.8,3.7,3.4,6.3,4.5c0.3,0.1,0.8,0,0.9-0.3c0.1-0.3,0-0.8-0.3-0.9 c-3.2-1.3-8.5-4.6-8.5-11.4C2.4,60.3,4.1,54,6.8,49c1.6-2.8,4.8-7.4,9.2-8.6c9.2-0.7,8,58.8,10.8,67.3c0,3.4,4.4,8.3,7.5,4.9 c2.8-3.5,20.6-54.2,23.9-54.2c1.3,0-3.2,50.1-3.2,54.3c-0.4,3.3,2.8,8.8,6.4,5.9c5.8-4.8,19.9-45,22.2-51.9 C85.2,61.5,86.3,54.7,84.8,50L84.8,50z M96.1,85.1c0-6-13.3-7.2-13.3,6.8c0,8.6,5.2,12.7,8.3,12.7c5.8,0,12.1-7.9,17.8-14.7 c0,0,0.3-2.3-0.8-0.7c-1.2,1.8-11.5,14-15.7,14c-3.6,0-4.9-5.7-4.7-11.1C90.8,91.6,96.1,90,96.1,85.1L96.1,85.1z M91.5,82.5 c4.1,0,3.9,7.9-3.8,8.9C88,86.7,89.4,82.5,91.5,82.5L91.5,82.5z M148.8,87.9c-2.4,6.1-8.6,20.6-15,20.6c-6.9,0-9.5-13.1-9.3-27.8 c24-31.8,19.1-42.4,11.5-42.4c-9,0-15,19.2-15.9,37.9c-0.9-0.3-1.8-0.5-2.6-0.5c-10.5,0-16.2,21.1-6.5,21.1c3.7,0,6.4-4.5,9.1-9.9 c0.8,13.3,4.7,24.1,12.4,24.1c8.6,0,15.6-18.7,17.4-22.3C149.8,88.7,149.5,86.3,148.8,87.9L148.8,87.9z M137.5,40.2 c8.9,0-0.3,23.7-12.9,38.2C125.2,60.2,130.3,40.2,137.5,40.2L137.5,40.2z M112,95.1c-5.1,0,0.4-18.3,5.1-18.3c1.1,0,2.1,0.3,2.8,0.9 c-0.1,2.4-0.1,4.8,0,7.1C118.5,87.8,115.7,95.1,112,95.1L112,95.1z M197.3,87.3c-5.2,10.3-11.9,15.6-14.9,15.6 c-3.4,0,1.5-16.7,0.7-19.6c-0.4-1.4-2.8-1.6-3.7-1.6c0.7,2.3-5.8,22.7,2.5,22.7c3.9,0,10.5-6,15.8-16.2L197.3,87.3z M182.2,77.9 c1.4,0,2.6-1.2,2.6-2.7s-1.2-2.7-2.6-2.7c-1.4,0-2.6,1.2-2.6,2.7S180.7,77.9,182.2,77.9L182.2,77.9z M196.8,82.7 c-1.4,12.9,0.2,22.6,1.6,22.6c1.4,0,1.6-2.7,2.5-6.2c1.4-6.9,10.4-33.3,13.8-33.3c2.7,0-4.1,35.6-4.6,40.6c-0.7,5.6,1.3,6.9,3.8,6.2 c4.1-0.9,19.1-21.2,20.3-23.2c0.9-1.2,0.4-2.8-0.5-1.4c-1.5,2.4-16.5,22.7-19.5,22.7c-1.2,0,5.9-37.2,5.9-41.2 c0.5-4.1-2.5-8.8-6.2-5.8c-4.5,3.5-12.4,27.3-13.3,29.8c-0.8,2.5,0-4.9,0-6.6C200.8,83,196.9,81.3,196.8,82.7L196.8,82.7z M202.8,116.3c-0.2-3.6-2.2-6.2-5.8-7.7c-2.9-1.2-6.7-1.6-11.1-1.3h-0.1c-4.1,0.3-8.8,1.4-14,2.8c-3.5-6.2-5.7-14.2-6.3-23.2 c0-0.2,0-0.2,0-0.4c-0.1-2-0.1-3.9-0.1-5.9c24-31.8,19.1-42.4,11.5-42.4c-9,0-15,19.2-16,37.9c-0.9-0.3-1.8-0.5-2.6-0.5 c-10.5,0-16.2,21.1-6.6,21.1c3.7,0,6.5-4.5,9.1-9.9c0.1,1.7,0.3,3.5,0.6,5.1c0.9,5.7,2.2,10.7,4.3,15.6c0.7,1.4,1.3,2.7,2.1,3.9 c-6.8,2.2-14,4.9-21,7.5c-20,7.5-40.6,15.4-49.2,9.9c-1-0.7-1.8-1.4-2.4-2.5c-0.1-0.1-0.3-0.3-0.5-0.3c-0.3,0.1-0.7,0.3-0.5,0.7 c0,0.2,0,0.3,0.1,0.3c0.7,1.2,1.6,2.2,2.8,2.8c2.2,1.4,5,2.1,8.8,2.1c3.3-0.1,7.2-0.7,12-1.9c8.7-2.3,19.1-6.2,29.2-9.9 c7.2-2.7,14.5-5.5,21.2-7.7c2,3.1,4.2,5.7,6.7,7.9c5,4.4,11.1,6.6,16.8,6.1l0,0c3.5-0.3,6-1.4,8.1-3.1 C201.9,121.5,203,119,202.8,116.3L202.8,116.3z M178.2,40.2c9,0-0.3,23.7-12.9,38.2C166,60.2,171,40.2,178.2,40.2L178.2,40.2z M152.8,95.1c-5.1,0,0.4-18.3,5.1-18.3c1.1,0,2.1,0.3,2.8,0.9c-0.1,2.4-0.1,4.8,0,7.1C159.2,87.8,156.5,95.1,152.8,95.1L152.8,95.1z M193.3,124.9c-5.5,0.3-9.9-1.9-14.2-5.5c-2.4-2.1-4.5-4.6-6.3-7.4c0.1,0-0.1-0.4-0.3-0.7c5-1.4,9.5-2.4,13.4-2.7l0,0 c5.7-0.3,15.2,0.1,15.7,7.8C201.9,120.6,198.1,124.5,193.3,124.9L193.3,124.9z M250.5,81c-0.4-1.1-3.1-1-3.8-0.5 c-1.3,1.4-4.3,11.5-8.5,11.5c-5.1,0,0.3-18.4,5-18.4c2,0,3.4,1,4.4,2.1c0.9,0.9,1.4-0.7,0.5-1.4c-1.1-1-2.8-1.7-4.6-1.7 c-10.5,0-16,21.1-6.5,21.1c3.9,0,7-5.2,9.8-11.4c2.1,7,2.3,17.5,1.3,27.5c-11.1,8.7-19,18.1-19,25.6c0,3.7,2.4,7.6,7.6,7.6 c8.5,0,14.8-17.5,16.2-35.1c23.7-17.3,58.8-32,67.9-17.7c0.8-0.7-0.1-1.2-0.1-1.2c-6.7-14-42.8-0.6-67.7,17 C253.7,96.8,252.9,87.6,250.5,81L250.5,81z M235.4,140.9c-3.3,0-4.9-2.8-4.9-6.7c0-5.8,7.1-14.2,17.3-22.5 C246.2,126.9,241.6,140.9,235.4,140.9L235.4,140.9z"/></g></svg>