<?xml version="1.0" encoding="UTF-8" standalone="no"?><svg xmlns="http://www.w3.org/2000/svg" xmlns:xlink="http://www.w3.org/1999/xlink" fill="#000000" height="766.4" preserveAspectRatio="xMidYMid meet" version="1" viewBox="-0.2 -0.7 789.6 766.4" width="789.6" zoomAndPan="magnify"><defs><clipPath id="a"><path d="M 131 366 L 390 366 L 390 765.660156 L 131 765.660156 Z M 131 366"/></clipPath><clipPath id="b"><path d="M 431 207 L 789.390625 207 L 789.390625 642 L 431 642 Z M 431 207"/></clipPath></defs><g><g id="change1_1"><path d="M 43.90625 750.148438 C 35.9375 747.425781 28.242188 743.761719 21.375 738.863281 C 17.992188 736.453125 14.800781 733.753906 11.957031 730.722656 C 9.4375 728.042969 6.808594 724.933594 5.269531 721.535156 C 6.816406 703.53125 9.332031 685.589844 11.972656 667.71875 C 17.382812 631.109375 24.03125 594.667969 31.816406 558.488281 C 39.539062 522.605469 48.34375 486.9375 59.007812 451.808594 C 69.445312 417.425781 81.542969 383.351562 97.183594 350.960938 C 104.785156 335.210938 113.285156 319.828125 123.234375 305.429688 C 132.964844 291.34375 144.175781 277.964844 157.6875 267.347656 C 152.769531 270.816406 150.882812 272.371094 151.789062 271.78125 C 139.59375 281.488281 129.140625 293.289062 119.941406 305.828125 C 109.660156 319.84375 100.808594 334.859375 92.867188 350.304688 C 76.453125 382.246094 63.753906 416.023438 52.921875 450.222656 C 41.894531 485.042969 32.863281 520.484375 25.179688 556.191406 C 17.425781 592.25 11.058594 628.609375 6.074219 665.15625 C 3.582031 683.425781 1.378906 701.742188 0.0898438 720.140625 C -0.0117188 721.617188 -0.160156 722.390625 0.496094 723.683594 C 1.308594 725.292969 2.300781 726.820312 3.359375 728.28125 C 5.832031 731.695312 8.761719 734.773438 11.933594 737.542969 C 18.34375 743.132812 25.828125 747.40625 33.667969 750.652344 C 50.082031 757.453125 68.039062 759.808594 85.703125 759.960938 C 103.871094 760.117188 122.003906 757.835938 139.800781 754.296875 C 125.34375 756.355469 110.75 757.664062 96.140625 757.667969 C 78.53125 757.671875 60.644531 755.867188 43.90625 750.148438" fill="#396416"/></g><g id="change1_2"><path d="M 692.46875 662.976562 C 688.375 661.179688 684.074219 659.84375 679.832031 658.457031 C 671.074219 655.59375 662.285156 652.824219 653.5625 649.851562 C 619.777344 638.332031 586.90625 624.210938 556.238281 605.859375 C 541.242188 596.890625 526.84375 586.914062 513.292969 575.878906 C 499.335938 564.511719 486.152344 552.140625 473.519531 539.332031 C 448.25 513.714844 425.121094 485.972656 403.078125 457.5625 C 380.515625 428.476562 358.886719 398.691406 336.597656 369.394531 C 325.71875 355.09375 314.574219 340.949219 302.613281 327.53125 C 296.789062 321 290.761719 314.628906 284.289062 308.734375 C 279.175781 304.074219 273.679688 299.65625 267.699219 296.117188 C 269.058594 296.820312 266.308594 295.203125 263.449219 293.785156 C 270.789062 297.898438 277.1875 303.460938 283.191406 309.308594 C 289.507812 315.460938 295.363281 322.074219 300.996094 328.855469 C 312.5625 342.777344 323.1875 357.453125 333.808594 372.101562 C 344.507812 386.863281 354.96875 401.800781 365.585938 416.621094 C 386.8125 446.265625 408.515625 475.597656 431.9375 503.5625 C 454.660156 530.691406 479.1875 556.753906 506.53125 579.296875 C 533.425781 601.46875 563.601562 619.347656 595.359375 633.601562 C 611.144531 640.6875 627.3125 646.902344 643.71875 652.390625 C 652.113281 655.199219 660.578125 657.804688 669.054688 660.367188 C 673.386719 661.679688 677.722656 662.980469 682.042969 664.332031 C 684.183594 665 686.3125 665.699219 688.421875 666.453125 C 690.121094 667.0625 691.925781 667.6875 693.421875 668.722656 C 692.898438 673.253906 690.0625 676.800781 686.761719 679.839844 C 682.910156 683.386719 678.429688 686.238281 673.867188 688.769531 C 664.226562 694.121094 653.859375 698.140625 643.421875 701.628906 C 626.28125 707.355469 608.648438 711.464844 590.972656 715.128906 C 573.054688 718.84375 555.015625 721.988281 536.910156 724.65625 C 518.617188 727.355469 500.238281 729.558594 481.796875 730.953125 C 463.644531 732.332031 445.042969 733.421875 426.929688 731.027344 C 432.136719 731.835938 437.386719 732.304688 442.644531 732.574219 C 461.074219 733.519531 479.59375 732.523438 497.964844 730.988281 C 516.378906 729.453125 534.734375 727.234375 553.015625 724.550781 C 571.117188 721.890625 589.171875 718.777344 607.070312 714.992188 C 624.785156 711.242188 642.4375 706.660156 659.308594 700.019531 C 667.496094 696.792969 675.59375 693.089844 682.953125 688.226562 C 689.285156 684.042969 696.6875 678.113281 697.890625 670.109375 C 698.148438 668.378906 698.121094 666.851562 696.804688 665.53125 C 695.628906 664.355469 693.964844 663.632812 692.46875 662.976562" fill="#396416"/></g><g clip-path="url(#a)" id="change1_19"><path d="M 287.984375 753.457031 C 283.683594 752.550781 279.507812 751.203125 275.230469 750.238281 C 270.808594 749.203125 266.269531 748.753906 261.738281 748.5625 C 252.636719 748.171875 243.5 748.910156 234.476562 750.070312 C 221.429688 751.75 208.722656 754.75 195.878906 757.46875 C 187.121094 759.324219 178.085938 760.148438 169.167969 759.050781 C 164.804688 758.515625 160.484375 757.523438 156.371094 755.960938 C 153.300781 754.792969 149.898438 753.332031 147.371094 751.136719 C 145.03125 748.144531 143.96875 744.054688 143.085938 740.433594 C 142.113281 736.429688 141.429688 732.359375 140.886719 728.273438 C 139.761719 719.765625 139.207031 711.1875 138.863281 702.617188 C 138.160156 685.171875 138.371094 667.675781 138.835938 650.226562 C 139.671875 618.523438 141.566406 586.816406 144.027344 555.199219 C 146.070312 528.976562 148.289062 502.78125 150.828125 476.601562 C 152.609375 458.246094 154.558594 439.902344 156.710938 421.585938 C 158.859375 403.273438 161.023438 384.917969 164.164062 366.746094 C 162.984375 371.910156 162.429688 374.546875 162.265625 375.492188 C 162.164062 375.96875 162.054688 376.441406 161.953125 376.914062 C 154.496094 412.929688 149.628906 449.519531 145.148438 486.003906 C 140.644531 522.675781 137.121094 559.496094 134.601562 596.359375 C 133.339844 614.808594 132.410156 633.289062 131.871094 651.777344 C 131.328125 670.300781 131.203125 688.871094 132.234375 707.378906 C 132.738281 716.488281 133.484375 725.609375 135.042969 734.605469 C 135.8125 739.074219 136.804688 743.539062 138.375 747.800781 C 139.546875 750.980469 141.039062 754.523438 143.832031 756.597656 C 150.316406 761.355469 158.507812 763.832031 166.386719 764.957031 C 175.238281 766.214844 184.269531 765.703125 193.035156 764.070312 C 197.335938 763.269531 201.5625 762.117188 205.800781 761.046875 C 214.246094 758.914062 222.808594 757.152344 231.402344 755.753906 C 240.421875 754.289062 249.546875 753.238281 258.6875 753.132812 C 263.203125 753.078125 267.75 753.261719 272.214844 753.984375 C 276.375 754.660156 280.421875 755.941406 284.558594 756.761719 C 302.460938 760.320312 321.007812 761.75 339.242188 761.011719 C 356.5 760.316406 374.378906 757.582031 389.835938 749.476562 C 375 756.390625 358.128906 758.441406 341.917969 758.71875 C 323.867188 759.027344 305.644531 757.167969 287.984375 753.457031" fill="#396416"/></g><g id="change1_3"><path d="M 396.109375 720.878906 C 386.519531 705.550781 378.53125 689.1875 370.9375 672.800781 C 363.230469 656.175781 355.921875 639.378906 348.816406 622.488281 C 334.476562 588.402344 321.015625 553.929688 307.921875 519.347656 C 298.207031 493.6875 288.660156 467.96875 279.304688 442.175781 C 275.570312 431.871094 271.84375 421.566406 268.207031 411.230469 C 265.160156 402.574219 262.128906 393.914062 259.171875 385.226562 C 256.28125 376.726562 253.316406 368.195312 251.027344 359.507812 C 251.457031 361.851562 251.730469 363.21875 251.882812 363.882812 C 254.507812 376.835938 258.210938 389.597656 261.882812 402.273438 C 265.972656 416.398438 270.328125 430.449219 274.847656 444.445312 C 286.144531 479.4375 298.511719 514.070312 311.636719 548.414062 C 324.757812 582.753906 338.800781 616.847656 354.597656 650.050781 C 362.351562 666.355469 370.46875 682.484375 379.464844 698.140625 C 383.925781 705.773438 388.53125 713.335938 393.664062 720.542969 C 398.539062 727.394531 403.835938 734.367188 410.570312 739.507812 C 404.746094 734.253906 400.246094 727.488281 396.109375 720.878906" fill="#396416"/></g><g id="change1_4"><path d="M 228.363281 223.933594 C 222.402344 234.246094 217.550781 251.21875 229.335938 259.570312 C 226.410156 253.855469 226.035156 247.8125 227.820312 241.671875 C 229.488281 235.925781 232.410156 230.59375 235.5625 225.539062 C 242.132812 215.011719 250.105469 205.476562 257.183594 195.304688 C 245.457031 201.941406 235.101562 212.269531 228.363281 223.933594" fill="#396416"/></g><g id="change1_5"><path d="M 225.902344 297.515625 C 234.203125 294.367188 241.457031 288.171875 247.929688 282.253906 C 254.363281 276.371094 260.347656 269.984375 266 263.347656 C 268.851562 259.996094 271.632812 256.589844 274.320312 253.105469 C 275.722656 251.289062 277.101562 249.453125 278.460938 247.605469 C 278.660156 247.335938 280.046875 245.816406 279.972656 245.464844 C 276.648438 229.128906 270.585938 212.976562 262.5625 198.367188 C 265.949219 213.480469 270.445312 228.515625 272.867188 243.824219 C 265.421875 253.261719 257.8125 262.578125 250.09375 271.792969 C 242.613281 280.726562 235.082031 290.238281 225.902344 297.515625" fill="#396416"/></g><g id="change1_6"><path d="M 237.050781 309.769531 C 239.636719 306.667969 243.390625 304.625 246.691406 302.3125 C 257.996094 294.386719 269.285156 286.433594 280.136719 277.894531 C 286.921875 272.558594 293.867188 267.128906 299.75 260.789062 C 301.09375 259.339844 302.484375 257.796875 303.34375 255.996094 C 304.128906 254.351562 304.207031 252.503906 304.109375 250.710938 C 303.878906 246.511719 302.699219 242.335938 301.558594 238.308594 C 299.09375 229.617188 296.054688 221.089844 293.332031 212.476562 C 290.757812 204.328125 288.246094 196.070312 287.078125 187.582031 C 287.894531 187.253906 288.710938 186.914062 289.511719 186.546875 C 289.890625 186.371094 290.382812 186.316406 290.457031 185.882812 C 291.265625 181.117188 290.136719 176.421875 288.855469 171.828125 C 287.359375 166.460938 285.40625 161.210938 283.300781 156.058594 C 283.210938 155.835938 280.894531 149.808594 280.503906 149.917969 C 277.664062 150.699219 274.824219 151.484375 271.964844 152.1875 C 263.164062 154.351562 254.210938 155.890625 245.1875 156.761719 C 227.335938 158.484375 208.664062 158.199219 191.15625 153.984375 C 191.6875 154.257812 192.164062 154.488281 192.617188 154.699219 C 205.40625 160.890625 220.339844 163.109375 234.386719 163.488281 C 248.691406 163.871094 263.109375 162.011719 276.863281 158.03125 C 278.660156 161.945312 280.394531 165.898438 281.976562 169.902344 C 282.921875 172.339844 283.867188 174.78125 284.640625 177.277344 C 285.222656 179.15625 285.902344 181.183594 286.023438 183.191406 C 278.398438 187.585938 269.886719 190.734375 261.417969 192.988281 C 267.0625 192.882812 272.675781 191.976562 278.128906 190.535156 C 280.796875 189.832031 283.429688 188.992188 286.007812 188.011719 C 286.304688 187.898438 286.59375 187.777344 286.890625 187.660156 C 286.507812 193.761719 287.269531 199.929688 288.257812 205.9375 C 289.292969 212.234375 290.679688 218.46875 292.160156 224.671875 C 293.6875 231.09375 295.394531 237.480469 296.65625 243.964844 C 297.175781 246.632812 298.171875 250.132812 297.464844 252.839844 C 297.199219 253.859375 296 254.882812 295.304688 255.621094 C 294.339844 256.648438 293.320312 257.628906 292.285156 258.585938 C 278.929688 270.847656 264.1875 281.597656 250.128906 293.027344 C 246.679688 295.832031 243.195312 298.605469 239.820312 301.503906 C 237.910156 303.144531 235.835938 304.707031 234.445312 306.832031 C 229.785156 313.980469 223.609375 319.5 217.410156 325.265625 C 224.664062 321.003906 231.617188 316.28125 237.050781 309.769531" fill="#396416"/></g><g id="change1_7"><path d="M 237.375 194.214844 C 231.535156 193.253906 225.691406 192.339844 219.863281 191.316406 C 211.871094 189.910156 203.894531 188.246094 196.128906 185.867188 C 190.445312 184.128906 184.59375 182.074219 179.460938 178.972656 C 182.503906 170.355469 185.644531 161.75 188.355469 153.023438 C 188.238281 153.160156 188.136719 153.289062 188.046875 153.410156 C 186.621094 155.109375 185.289062 156.886719 184.015625 158.699219 C 179.375 165.324219 175.5625 172.515625 172.28125 179.894531 C 171.761719 181.066406 171.5625 181.027344 172.523438 181.851562 C 173.199219 182.429688 173.863281 183.03125 174.578125 183.554688 C 175.480469 184.214844 176.410156 184.824219 177.355469 185.410156 C 177.378906 188.730469 177.726562 192.144531 178.78125 195.253906 C 179.398438 197.066406 180.445312 198.460938 181.414062 200.078125 C 182.183594 201.367188 182.152344 203.035156 182.160156 204.488281 C 182.1875 209.1875 181.828125 213.984375 181.46875 218.664062 C 180.867188 226.507812 179.246094 234.164062 176.132812 241.410156 C 172.980469 248.746094 168.570312 255.441406 164.164062 262.070312 C 176.601562 253.957031 185.410156 241.015625 187.652344 226.269531 C 188.265625 222.226562 188.429688 218.121094 188.320312 214.035156 C 188.238281 210.070312 188.179688 205.894531 187.285156 202.015625 C 186.863281 200.183594 186.15625 198.460938 184.839844 197.085938 C 183.726562 195.921875 182.65625 194.898438 181.820312 193.5 C 180.429688 191.167969 179.429688 188.621094 178.460938 186.074219 C 180.355469 187.183594 182.3125 188.179688 184.332031 189.050781 C 200.660156 196.085938 219.984375 197.554688 237.375 194.214844" fill="#396416"/></g><g id="change1_8"><path d="M 225.523438 125.476562 C 224.085938 120.671875 220.554688 116.703125 216.308594 114.105469 C 217.699219 111.144531 218.230469 107.933594 217.027344 104.96875 C 214.101562 109.1875 210.144531 112.699219 206.273438 116.023438 C 204.195312 117.808594 202.054688 119.617188 199.667969 120.980469 C 198.871094 121.433594 197.777344 122.089844 196.816406 121.886719 C 195.871094 121.6875 195.160156 120.757812 194.660156 120.003906 C 193.152344 123.660156 196.628906 126.101562 199.933594 126.113281 C 203.21875 126.125 206.441406 124.640625 209.058594 122.746094 C 211.101562 121.265625 213.246094 119.09375 214.894531 116.605469 C 215.710938 120.015625 217.28125 123.289062 218.488281 126.53125 C 219.242188 128.566406 219.960938 130.714844 220 132.910156 C 213.929688 131.738281 207.429688 133.992188 202.949219 138.152344 C 198.554688 142.234375 195.964844 148.144531 195.308594 154.058594 C 200.1875 151.296875 203.804688 146.734375 207.957031 143.0625 C 211.746094 139.707031 216.058594 137.050781 219.976562 133.875 C 219.839844 135.660156 219.234375 137.414062 218.59375 139.070312 C 225.085938 138.277344 227.15625 130.929688 225.523438 125.476562" fill="#396416"/></g><g id="change1_9"><path d="M 163.101562 76.527344 C 160.917969 66.761719 161.121094 56.882812 166.03125 47.945312 C 170.734375 39.390625 178.230469 32.625 185.507812 26.296875 C 174.941406 28.066406 165.085938 35.359375 159.859375 44.65625 C 154.433594 54.308594 154.933594 67.175781 162.328125 75.652344 C 162.554688 75.929688 162.800781 76.214844 163.101562 76.527344" fill="#396416"/></g><g id="change1_10"><path d="M 184.34375 77.980469 C 181.945312 76.914062 178.632812 75.554688 175.921875 74.464844 C 172.652344 73.144531 166.660156 70.757812 164.691406 75.242188 C 167.660156 73.5 170.261719 76.007812 172.515625 77.78125 C 174.945312 79.699219 177.402344 81.566406 180.085938 83.117188 C 184.152344 85.46875 188.667969 86.035156 193.304688 85.324219 C 198.84375 84.472656 204.140625 82.199219 208.640625 78.867188 C 212.96875 75.664062 217.488281 70.566406 217.410156 64.847656 C 214.03125 70.542969 207.449219 73.871094 201.441406 76.078125 C 198.292969 77.234375 194.992188 78.121094 191.652344 78.496094 C 189.28125 78.765625 186.605469 78.886719 184.34375 77.980469" fill="#396416"/></g><g id="change1_11"><path d="M 170.832031 97.382812 C 172.3125 98.820312 174.511719 99.742188 175.78125 101.359375 C 177.839844 103.984375 177.441406 107.871094 179.917969 110.3125 C 180.386719 107.015625 182.058594 103.839844 181.480469 100.429688 C 180.976562 97.4375 179.121094 95.421875 176.902344 93.484375 C 171.964844 89.171875 170.28125 81.800781 164.539062 78.296875 C 165.234375 84.855469 165.804688 92.492188 170.832031 97.382812" fill="#396416"/></g><g id="change1_12"><path d="M 192.941406 113.859375 C 192.097656 113.40625 191.035156 112.644531 190.03125 112.742188 C 188.679688 112.871094 188.398438 115.394531 187.289062 116.144531 C 186.972656 118.03125 189.007812 119.527344 190.707031 119.605469 C 193.027344 119.710938 194.511719 117.664062 194.429688 115.492188 C 194.414062 115.089844 194.34375 114.632812 194.105469 114.300781 C 193.898438 114.011719 193.273438 114.042969 192.941406 113.859375" fill="#396416"/></g><g id="change1_13"><path d="M 255.894531 90.007812 C 251.4375 88.507812 246.816406 87.550781 242.359375 86.058594 C 238.128906 84.644531 234.078125 82.738281 230.4375 80.148438 C 226.789062 77.605469 223.613281 74.445312 220.449219 71.339844 C 222.039062 80.574219 228.824219 88.121094 237.355469 91.671875 C 241.863281 93.550781 246.710938 94.339844 251.554688 94.714844 C 256.3125 95.078125 261.613281 94.722656 265.964844 97.003906 C 264.199219 93.15625 259.644531 91.265625 255.894531 90.007812" fill="#396416"/></g><g id="change1_14"><path d="M 284.296875 149.847656 C 284.84375 149.558594 285.371094 149.238281 285.882812 148.894531 C 292.835938 144.222656 295.191406 136.144531 293.242188 128.179688 C 291.363281 120.503906 285.5 114.445312 278.714844 110.738281 C 270.945312 106.492188 262.476562 105.984375 253.886719 104.832031 C 246.519531 103.84375 236.6875 102.40625 233.910156 94.304688 C 233.128906 102.828125 242.539062 107.511719 249.308594 109.664062 C 257.210938 112.171875 265.671875 112.515625 273.328125 115.816406 C 279.617188 118.550781 285.523438 122.957031 288.472656 129.316406 C 290.089844 132.808594 290.988281 136.785156 290.003906 140.582031 C 289.078125 144.140625 286.914062 147.308594 284.296875 149.847656" fill="#396416"/></g><g id="change1_15"><path d="M 254.796875 131.933594 C 250.714844 129.738281 247.261719 126.863281 244.898438 122.859375 C 242.679688 119.019531 241.03125 114.726562 240.480469 110.3125 C 240.398438 110.53125 240.339844 110.722656 240.289062 110.902344 C 237.167969 120.015625 241.550781 130.8125 248.988281 136.421875 C 253.105469 139.527344 257.6875 140.578125 262.746094 140.902344 C 267.519531 141.203125 272.535156 141.101562 276.296875 144.515625 C 275.75 139.929688 271.324219 137.257812 267.363281 135.875 C 263.203125 134.425781 258.714844 134.039062 254.796875 131.933594" fill="#396416"/></g><g id="change1_16"><path d="M 197.148438 4.632812 C 204.859375 1.152344 214.058594 2.1875 222.058594 4.015625 C 239.316406 7.957031 255.511719 16.421875 270.734375 25.21875 C 286.128906 34.113281 300.875 44.175781 315.167969 54.734375 C 343.804688 75.878906 370.824219 99.339844 396.097656 124.394531 C 408.839844 137.023438 421.160156 150.109375 432.828125 163.734375 C 434.742188 165.96875 436.628906 168.222656 438.503906 170.480469 C 440.699219 173.128906 440.515625 175.992188 439.25 179.097656 C 437.648438 183.023438 434.953125 186.492188 432.222656 189.691406 C 429.429688 192.960938 426.394531 196.023438 423.269531 198.976562 C 410.242188 211.304688 395.832031 222.136719 381.667969 233.105469 C 374.503906 238.65625 367.316406 244.183594 360.367188 250.007812 C 357.050781 252.789062 353.761719 255.628906 350.738281 258.730469 C 349.078125 260.429688 343.546875 265.535156 345.652344 268.273438 C 344.171875 266.015625 347.800781 262.667969 349.203125 261.273438 C 351.3125 259.179688 353.625 257.292969 355.949219 255.441406 C 360.675781 251.6875 365.59375 248.183594 370.515625 244.6875 C 380.777344 237.402344 391.164062 230.285156 401.328125 222.855469 C 408.609375 217.53125 415.832031 212.097656 422.703125 206.246094 C 429.253906 200.675781 435.792969 194.761719 440.863281 187.773438 C 445.101562 181.90625 448.871094 173.683594 443.65625 167.183594 C 439.3125 161.761719 434.886719 156.40625 430.351562 151.144531 C 407.382812 124.507812 381.90625 100.011719 354.898438 77.503906 C 328.582031 55.578125 300.492188 35.203125 270.152344 19.183594 C 254.78125 11.066406 238.167969 3.488281 220.863281 0.8125 C 212.605469 -0.464844 203.355469 -0.699219 195.851562 3.53125 C 189.660156 7.023438 186.367188 13.164062 185.070312 19.859375 C 185.179688 18.789062 184.921875 19.84375 184.597656 23.085938 C 185.921875 15.359375 189.714844 7.988281 197.148438 4.632812" fill="#396416"/></g><g id="change1_17"><path d="M 190.449219 22.789062 C 202.582031 28.550781 214.449219 34.652344 225.109375 42.902344 C 235.78125 51.15625 244.65625 61.105469 253.363281 71.339844 C 245.554688 44.585938 218.34375 23.476562 190.449219 22.789062" fill="#396416"/></g><g clip-path="url(#b)" id="change1_20"><path d="M 786.105469 551.730469 C 781.679688 544.355469 776.046875 537.648438 770.507812 531.09375 C 764.664062 524.171875 758.640625 517.402344 752.527344 510.714844 C 727.878906 483.742188 702.039062 457.816406 675.949219 432.246094 C 649.617188 406.4375 622.984375 380.949219 596.125 355.695312 C 569.152344 330.335938 541.90625 305.265625 514.429688 280.449219 C 500.691406 268.042969 486.890625 255.707031 473.003906 243.464844 C 461.242188 233.101562 449.445312 222.757812 437.375 212.75 C 436.8125 212.246094 434.996094 210.726562 431.25 207.6875 C 442.523438 217.714844 453.421875 228.207031 464.367188 238.589844 C 474.097656 247.816406 483.851562 257.019531 493.554688 266.273438 C 502.246094 274.554688 510.933594 282.839844 519.621094 291.121094 C 530.785156 301.765625 541.945312 312.40625 553.109375 323.046875 C 573.554688 342.539062 593.933594 362.109375 614.210938 381.777344 C 640.726562 407.5 667.21875 433.238281 693.394531 459.304688 C 706.402344 472.261719 719.3125 485.316406 732.042969 498.546875 C 744.644531 511.644531 757.226562 524.816406 768.933594 538.730469 C 771.761719 542.089844 774.535156 545.496094 777.152344 549.023438 C 779.511719 552.210938 782.476562 555.785156 783.617188 559.648438 C 784.144531 561.441406 783.292969 563.835938 782.8125 565.578125 C 782.261719 567.59375 781.550781 569.5625 780.738281 571.488281 C 779.105469 575.347656 777.085938 579.039062 774.816406 582.558594 C 765.796875 596.539062 753.078125 608.109375 739.039062 616.914062 C 709.226562 635.617188 673.367188 641.71875 638.625 639.910156 C 653.542969 641.429688 668.605469 641.496094 683.488281 639.582031 C 716.90625 635.285156 750 620.558594 772.15625 594.589844 C 777.484375 588.339844 782.195312 581.464844 785.578125 573.964844 C 787.273438 570.203125 788.652344 566.257812 789.277344 562.167969 C 789.863281 558.332031 788.027344 554.933594 786.105469 551.730469" fill="#396416"/></g><g id="change1_18"><path d="M 359.75 334.5 C 364.8125 327.421875 371.054688 321.195312 377.355469 315.226562 C 383.929688 309 390.765625 303.054688 397.550781 297.066406 C 404.296875 291.109375 411.054688 285.140625 417.496094 278.851562 C 423.503906 272.984375 429.644531 266.75 433.726562 259.335938 C 435.570312 255.984375 437.011719 252.148438 436.589844 248.261719 C 436.132812 244.058594 433.59375 241.25 429.402344 240.585938 C 425.269531 239.933594 420.902344 240.8125 416.894531 241.800781 C 412.5625 242.863281 408.316406 244.25 404.125 245.765625 C 395.574219 248.859375 387.234375 252.484375 378.960938 256.242188 C 370.851562 259.921875 362.890625 263.996094 354.636719 267.347656 C 355.96875 266.898438 356.960938 266.539062 357.621094 266.289062 C 361.414062 264.90625 365.160156 263.378906 368.914062 261.886719 C 377.355469 258.53125 385.773438 255.125 394.3125 252.027344 C 402.746094 248.972656 411.394531 245.945312 420.28125 244.539062 C 422.53125 244.183594 424.835938 243.921875 427.117188 244.0625 C 428.652344 244.15625 430.796875 244.402344 431.753906 245.792969 C 433.949219 249 431.859375 253.769531 430.191406 256.691406 C 425.949219 264.109375 419.292969 270.25 413.0625 275.976562 C 399.742188 288.21875 385.371094 299.261719 372.105469 311.5625 C 365.804688 317.40625 359.617188 323.515625 354.480469 330.421875 C 349.738281 336.792969 345.207031 344.9375 346.847656 353.167969 C 348.457031 361.238281 355.132812 367.5625 361.578125 372.113281 C 368.59375 377.0625 376.410156 380.835938 384.328125 384.09375 C 401.214844 391.046875 418.859375 396.117188 436.425781 401.027344 C 454.105469 405.964844 471.9375 410.457031 489.328125 416.371094 C 497.449219 419.136719 505.789062 422.113281 513.046875 426.773438 C 516.191406 428.792969 519.320312 431.253906 520.871094 434.75 C 522.578125 438.609375 523.546875 442.769531 523.816406 446.980469 C 524.367188 455.699219 522.015625 464.398438 518.65625 472.371094 C 515.3125 480.316406 510.914062 487.796875 506.019531 494.875 C 496.132812 509.164062 484.320312 522.449219 471.445312 534.113281 C 477.386719 529.300781 483.066406 524.171875 488.488281 518.78125 C 500.542969 506.800781 511.84375 493.480469 519.777344 478.367188 C 523.769531 470.753906 526.914062 462.523438 527.96875 453.949219 C 528.488281 449.714844 528.472656 445.410156 527.769531 441.195312 C 527.125 437.339844 526.003906 433.171875 523.816406 429.878906 C 519.210938 422.953125 510.59375 418.898438 503.238281 415.632812 C 495.117188 412.027344 486.707031 409.136719 478.246094 406.441406 C 460.78125 400.878906 443.078125 396.097656 425.515625 390.867188 C 408.34375 385.753906 390.894531 380.367188 374.941406 372.078125 C 367.894531 368.414062 360.269531 363.867188 355.832031 357.066406 C 353.566406 353.59375 352.753906 349.894531 353.832031 345.84375 C 354.933594 341.707031 357.277344 337.953125 359.75 334.5" fill="#396416"/></g></g></svg>