<?xml version="1.0" encoding="UTF-8" standalone="no"?><svg xmlns="http://www.w3.org/2000/svg" xmlns:xlink="http://www.w3.org/1999/xlink" fill="#396416" height="48.5" preserveAspectRatio="xMidYMid meet" version="1" viewBox="-1.5 -0.4 499.0 48.5" width="499" zoomAndPan="magnify"><g><g><g id="change1_3"><path d="M4.26,33.36C14.28,22.94,26.05,13.76,39.85,9C51.04,5.13,63,4.4,74.62,6.08c12.17,1.76,23.93,5.69,35.39,10.05 c12.16,4.63,24.09,9.82,36.29,14.33c12.32,4.55,24.96,8.42,38,10.21c1.76,0.24,3.52,0.46,5.28,0.63c1.35,0.13,2.5-1.24,2.5-2.5 c0-1.46-1.15-2.37-2.5-2.5c-13.17-1.29-26-4.95-38.43-9.38c-12.4-4.42-24.48-9.65-36.74-14.43C102.76,7.96,90.85,3.77,78.5,1.66 C66.43-0.39,54.05-0.36,42.21,3.01c-14.02,4-26.35,12.25-36.85,22.2c-1.58,1.5-3.12,3.04-4.64,4.62 C-1.5,32.15,2.03,35.69,4.26,33.36L4.26,33.36z"/></g></g><g><g id="change1_1"><path d="M493.04,28.71c-30.33,6.95-61.15-2.25-90.5-9.5c-27.27-6.73-56.19-12.19-83.64-3.32c-13.03,4.21-24.98,11.5-33.35,22.48 c-0.82,1.07-0.17,2.8,0.9,3.42c1.29,0.75,2.6,0.18,3.42-0.9c14.61-19.17,41.11-25.37,64.06-24.66 c30.51,0.95,59.34,12.36,89.2,17.38c16.95,2.85,34.37,3.79,51.24-0.08C497.5,32.81,496.17,27.99,493.04,28.71L493.04,28.71z"/></g></g></g><g><g><g><g id="change1_5"><path d="M239.91,39.17c-5.34-3.47-10.16-7.68-14.31-12.5c-0.35-0.4-0.7-0.9-1.03-1.26c-0.03-0.03,0.01-0.14-0.02-0.21 c0.03,0.06-0.11,0.41,0,0.17c0.15-0.33-0.13,0.26-0.14,0.25c-0.1,0.12-0.11,0.13-0.01,0.02c0.04-0.05,0.09-0.1,0.14-0.14 c0.29-0.22-0.34,0.2,0,0.02c0.1-0.05,0.19-0.11,0.29-0.16c-0.39,0.2,0.23-0.06,0.38-0.1c0.12-0.03,0.68-0.14,0.51-0.12 c-0.29,0.04,0.23-0.02,0.29-0.02c0.17-0.01,0.34-0.01,0.5-0.01c0.29,0,0.58,0.01,0.87,0.05c-0.43-0.05,0.23,0.06,0.35,0.09 c0.76,0.17,1.52,0.38,2.26,0.63c1.28,0.43,2.44,0.98,3.64,1.69c2.6,1.53,4.83,3.63,6.42,6.13c0.73,1.14,2.22,1.6,3.42,0.9 c1.13-0.66,1.63-2.28,0.9-3.42c-1.96-3.08-4.59-5.66-7.69-7.6c-2.9-1.82-6.58-3.4-10.05-3.46c-3.19-0.06-7.15,1.56-7.08,5.31 c0.04,2.26,1.8,3.99,3.2,5.57c1.27,1.43,2.6,2.8,3.98,4.12c3.28,3.12,6.87,5.92,10.66,8.39c1.13,0.74,2.76,0.23,3.42-0.9 C241.52,41.37,241.05,39.91,239.91,39.17L239.91,39.17z"/></g></g><g><g id="change1_4"><path d="M238.66,46.5c4.12-2.46,8.24-4.92,12.35-7.38c2.02-1.21,4.04-2.4,6.05-3.62c1.87-1.14,3.68-2.4,5.02-4.15 c1.28-1.68,1.96-3.77,1.71-5.89c-0.12-0.96-0.39-1.89-0.92-2.72c-0.94-1.48-2.05-1.84-3.75-1.59 c-3.72,0.54-7.37,1.93-10.53,3.97c-3.62,2.33-6.7,5.48-8.77,9.27c-1.55,2.82,2.77,5.35,4.32,2.52 c3.25-5.91,9.47-10.07,16.17-10.92c-0.59-0.24-1.18-0.49-1.77-0.73c1,1.16-0.21,2.98-1.17,3.89c-1.81,1.73-4.25,2.87-6.38,4.14 c-4.95,2.96-9.91,5.92-14.86,8.88C233.38,43.83,235.89,48.16,238.66,46.5L238.66,46.5z"/></g></g><g><g id="change1_7"><path d="M243.88,37.86c5.26-2.89,10.51-5.78,15.77-8.67c1.15-0.63,1.62-2.31,0.9-3.42c-0.75-1.16-2.19-1.57-3.42-0.9 c-5.26,2.89-10.51,5.78-15.77,8.67c-1.15,0.63-1.62,2.31-0.9,3.42C241.21,38.13,242.65,38.53,243.88,37.86L243.88,37.86z"/></g></g><g><g id="change1_2"><path d="M242.73,33.51c-4.25-3.21-8.51-6.42-12.76-9.63c-1.05-0.79-2.84-0.2-3.42,0.9c-0.7,1.32-0.22,2.58,0.9,3.42 c4.25,3.21,8.51,6.42,12.76,9.63c1.05,0.79,2.84,0.2,3.42-0.9C244.33,35.61,243.85,34.35,242.73,33.51L242.73,33.51z"/></g></g><g><g id="change1_6"><path d="M224.73,25.13c-0.28,4,2.42,7.42,5.19,9.99c2.84,2.63,6.07,4.83,9.57,6.47c1.18,0.55,2.75,0.37,3.42-0.9 c0.59-1.11,0.37-2.83-0.9-3.42c-1.54-0.72-3.03-1.55-4.46-2.48c-1.54-1.01-2.35-1.64-3.73-2.87c-0.6-0.54-1.18-1.1-1.74-1.68 c-0.27-0.28-0.52-0.58-0.77-0.88c-0.47-0.56,0.12,0.2-0.11-0.14c-0.11-0.16-0.23-0.31-0.34-0.48c-0.21-0.32-0.41-0.65-0.59-0.99 c-0.02-0.04-0.34-0.71-0.13-0.22c-0.07-0.17-0.13-0.35-0.19-0.53c-0.06-0.18-0.11-0.36-0.15-0.54 c-0.02-0.06-0.12-0.66-0.08-0.32c0.05,0.34-0.01-0.27-0.01-0.33c-0.01-0.23,0.01-0.45,0.02-0.68c0.09-1.31-1.22-2.56-2.5-2.5 C225.8,22.7,224.83,23.73,224.73,25.13L224.73,25.13z"/></g></g></g></g></svg>