<?xml version="1.0" encoding="UTF-8" standalone="no"?><svg xmlns="http://www.w3.org/2000/svg" xmlns:xlink="http://www.w3.org/1999/xlink" fill="#467221" height="56.8" preserveAspectRatio="xMidYMid meet" version="1" viewBox="8.0 3.2 48.0 56.8" width="48" zoomAndPan="magnify"><g id="change1_1"><path d="M43.7900391,9.2714157c-2.4100342-1.5102129-4.5500488-0.2299747-5.6500244,0.9701881 c-0.4100342-0.4501829-0.9700928-0.9101315-1.6300049-1.2304354c0.0100098-0.0595684,0.0200195-0.129879,0.0300293-0.1997013 c0.1699219-1.6400919-0.5900879-3.2601643-1.9400635-4.1200042c-2.4000244-1.5199776-4.539917-0.2299738-5.6400146,0.9599347 c-1.0999756-1.1899085-3.25-2.4799123-5.6499023-0.9599347c-1.3500977,0.8598399-2.1101074,2.4799123-1.9400635,4.1200042 c0.1400146,1.2900038,0.6900635,3.1898537,2.5699463,4.9095325c3.2800293,2.9901514,4.6700439,3.9998903,4.7199707,4.0399275 c0.0900879,0.0600567,0.1900635,0.0903301,0.3000488,0.0903301c0.1000977,0,0.1999512-0.0302734,0.2900391-0.0903301 c0.0400391-0.0297832,0.6999512-0.519516,2.1099854-1.7294445c0.4000244,0.749979,0.9500732,1.5194893,1.7700195,2.2694702 c3.2700195,2.9901505,4.6600342,3.9998894,4.7199707,4.0399265c0.0899658,0.0600567,0.1900635,0.0903301,0.2900391,0.0903301 s0.2099609-0.0302734,0.289917-0.0903301c0.0600586-0.0400372,1.4500732-1.0497761,4.7299805-4.0399265 c1.880127-1.7196808,2.4301758-3.6195297,2.5700684-4.9095335C45.9000244,11.7513275,45.1400146,10.1312551,43.7900391,9.2714157z M30.5600586,13.3914194c0.0499268,0.4897327,0.1599121,1.0697947,0.3798828,1.6898947 c-0.9899902,0.8500738-1.6398926,1.3798447-1.9799805,1.6396027c-0.5599365-0.4394398-1.9499512-1.5595264-4.3399658-3.7396421 c-1.6500244-1.499959-2.1400146-3.1498165-2.25-4.2699022c-0.1400146-1.2699847,0.4400635-2.5199504,1.4799805-3.1698351 c0.5999756-0.3901258,1.1800537-0.5302587,1.7000732-0.5302587c1.7399902,0,2.9299316,1.6303263,3,1.7201676 c0.0899658,0.1401329,0.2399902,0.2202086,0.4099121,0.2202086c0.1600342,0,0.3100586-0.0800757,0.4100342-0.2202086 c0.0799561-0.1098604,2.0599365-2.8597846,4.7000732-1.189909c1.0200195,0.6498847,1.5998535,1.8700657,1.4799805,3.1400509 C34.6300049,8.4813976,33.5900879,8.5814924,32.5,9.2714157C31.1500244,10.1312551,30.3800049,11.7513275,30.5600586,13.3914194z M44.7299805,13.2913246c-0.1199951,1.1200857-0.5999756,2.7699432-2.25,4.2699013 c-2.3898926,2.1801167-3.7800293,3.309967-4.3399658,3.7396431c-0.5599365-0.4296761-1.9500732-1.5595264-4.3399658-3.7396431 c-1.6500244-1.499958-2.130127-3.1498156-2.25-4.2699013C31.4199219,12.0213394,32,10.7713737,33.0300293,10.1214895 c0.6099854-0.3901262,1.1799316-0.5302591,1.7099609-0.5302591c1.7399902,0,2.9299316,1.6400919,2.9899902,1.7299328 c0.1000977,0.1303682,0.2099609,0.2001905,0.4100342,0.2104435c0.1600342,0,0.3199463-0.0800753,0.4100342-0.2202082 c0.0799561-0.1098604,2.0599365-2.8597851,4.6999512-1.189909C44.2800293,10.7713737,44.8599854,12.0213394,44.7299805,13.2913246z"/><path d="M48.1699219,31.7307587l6.8701172-2.3197613c0.2099609-0.0703106,0.3499756-0.2700119,0.3399658-0.4999866 l-0.1600342-3.3002014c-0.0100098-0.1796818-0.1199951-0.3500881-0.2900391-0.4296761l-8.289917-3.8202076 c-0.1700439-0.079586-0.3699951-0.0498028-0.5100098,0.0600586l-2.6500244,2.0101986 c-0.1699219,0.129879-0.2399902,0.3696175-0.1599121,0.5795727l2.6699219,6.749815 c-1.6099854-0.5898285-3.3499756-0.9198971-5.1599121-0.9198971c-0.460083,0-0.920166,0.0302734-1.3701172,0.0703106 c-2.869873-5.1297417-8.3599854-8.6101151-14.6699219-8.6101151C15.5300293,21.300869,8,28.7908974,8,37.9908409 c0,9.1994514,7.5300293,16.6792259,16.7900391,16.6792259c1.3399658,0,2.7099609-0.1899338,4.0799561-0.5297699 C31.6400146,57.7002602,35.9599609,60,40.8300781,60C49.1899414,60,56,53.2301674,56,44.9203377 C56,39.2505722,52.8300781,34.3107643,48.1699219,31.7307587z M54.2299805,25.9608974l0.1101074,2.1801167l-2.0400391-0.9399166 l-0.25-2.2401733L54.2299805,25.9608974z M53.5300293,28.8709736l-4.25,1.4296474l2.6298828-2.1796265L53.5300293,28.8709736z M47.3699951,30.5808868l-0.0299072-4.5701866l3.5698242,1.6503468L47.3699951,30.5808868z M50.9899902,24.470705l0.25,2.2401714 l-3.3900146-1.5600147l1.8900146-1.2597313L50.9899902,24.470705z M46.4899902,22.4009361l2.1799316,0.9999733 l-1.8798828,1.2602196L44.75,23.7207241L46.4899902,22.4009361z M44.7099609,24.8007736l1.630127,0.749979l0.0198975,3.4198284 L44.7099609,24.8007736z M24.7900391,53.6700974C16.0800781,53.6700974,9,46.630249,9,37.9908409 c0-8.6501541,7.0800781-15.6899986,15.7900391-15.6899986c8.6999512,0,15.7800293,7.0398445,15.7800293,15.6899986 c0,5.5594177-2.9700928,10.6994133-7.7900391,13.5093918c-0.6700439-0.8100357-1.1999512-1.7001457-1.6000977-2.6698456 c3.8701172-2.249939,6.25-6.3699417,6.25-10.8395462c0-6.940239-5.6699219-12.5797329-12.6398926-12.5797329 c-6.9799805,0-12.6500244,5.6394939-12.6500244,12.5797329c0,6.9294968,5.6700439,12.5694771,12.6500244,12.5694771 c0.6298828,0,1.2800293-0.0600548,1.9399414-0.1601524c0.3900146,1.0102272,0.9000244,1.9701614,1.5,2.8700409 C27.0800781,53.5304527,25.9199219,53.6700974,24.7900391,53.6700974z M41.2099609,34.5705223 c5.5900879,0.2104454,10.0700684,4.7601242,10.0700684,10.3498154c0,5.7200584-4.6899414,10.3795967-10.4499512,10.3795967 c-2.880127,0-5.4899902-1.1596375-7.380127-3.0399551c5.0200195-3.0194473,8.1201172-8.4196892,8.1201172-14.2691383 C41.5700684,36.8204613,41.4399414,35.6808434,41.2099609,34.5705223z M30.8300781,47.8504333 c-0.2800293-0.9301529-0.4300537-1.9101067-0.4300537-2.9300957c0-4.059948,2.3599854-7.5696182,5.789917-9.2697639 c0.1600342,0.7499771,0.2399902,1.5399971,0.2399902,2.3402672C36.4299316,42.040535,34.2900391,45.7503929,30.8300781,47.8504333z M26.3699951,49.4304657c-0.539917,0.0795898-1.0699463,0.129879-1.5799561,0.129879 c-6.4300537,0-11.6500244-5.1897964-11.6500244-11.5695038c0-6.3899612,5.2199707-11.5797596,11.6500244-11.5797596 c3.9299316,0,7.3999023,1.9496517,9.5100098,4.9197865c-5.0900879,2.4296188-8.630127,7.5998878-8.630127,13.5894699 C25.6699219,46.4906044,25.9199219,48.0100937,26.3699951,49.4304657z M40.8300781,59.0000267 c-4.7000732,0-8.8601074-2.2997398-11.4300537-5.8098984c-0.1800537-0.2397385-0.3399658-0.4799652-0.5-0.7201958 c-0.0300293-0.0498009-0.0500488-0.0898399-0.0799561-0.129879c-0.5100098-0.8198013-0.9400635-1.6898956-1.2700195-2.5995369 c-0.0600586-0.1401329-0.1101074-0.2802658-0.1600342-0.4203987l-0.0200195-0.0498047 c-0.4500732-1.370079-0.7000732-2.829998-0.7000732-4.3499756c0-5.6394958,3.3601074-10.48946,8.170166-12.7393951 c0.4599609,0.7699966,0.829834,1.6000519,1.0998535,2.4799118c-3.8598633,1.8300285-6.539917,5.7298203-6.539917,10.2594833 c0,1.3500595,0.25,2.6498299,0.6800537,3.8499908l0.0100098,0.0102539 c0.5098877,1.4198837,1.2999268,2.6996307,2.2999268,3.7997017l0.1800537,0.1899338 c1.039917,1.0898132,2.289917,1.9701614,3.6899414,2.5800095c1.3999023,0.6098442,2.9399414,0.9496803,4.5700684,0.9496803 c6.3099365,0,11.4499512-5.099472,11.4499512-11.37957c0-6.2298088-5.0700684-11.2994957-11.3300781-11.3595505 c-0.2600098-0.9301529-0.5899658-1.8197746-1-2.6801033c0.2900391-0.0200195,0.5800781-0.0400372,0.880127-0.0400372 C48.6400146,30.8406467,55,37.1505318,55,44.9203377C55,52.680378,48.6400146,59.0000267,40.8300781,59.0000267z"/></g></svg>