<?xml version="1.0" encoding="UTF-8" standalone="no"?><svg xmlns="http://www.w3.org/2000/svg" xmlns:xlink="http://www.w3.org/1999/xlink" fill="#396416" height="19" preserveAspectRatio="xMidYMid meet" version="1" viewBox="0.0 -0.0 737.3 19.0" width="737.3" zoomAndPan="magnify"><g><g><g id="change1_1"><path d="M9.487,5.438c-.11,0-.222-.007-.334-.022-2.059-.275-4.297-.415-6.653-.415C1.119,5,0,3.881,0,2.5S1.119,0,2.5,0c2.576,0,5.038,.154,7.316,.46,1.369,.183,2.33,1.44,2.146,2.81-.168,1.256-1.242,2.168-2.475,2.168Z"/><path d="M441.838,19c-.807,0-1.587-.015-2.345-.043-1.379-.052-2.456-1.212-2.404-2.592,.051-1.38,1.204-2.473,2.592-2.404,.696,.026,1.414,.039,2.156,.039,4.034,0,7.572-.394,10.816-1.203,1.343-.335,2.697,.48,3.031,1.82,.334,1.34-.481,2.697-1.82,3.031-3.645,.909-7.579,1.352-12.027,1.352Zm-97.635,0c-3.561,0-6.759-.28-9.779-.857-1.356-.26-2.245-1.569-1.986-2.926s1.569-2.252,2.925-1.985c2.707,.517,5.598,.769,8.839,.769,1.457,0,2.875-.053,4.215-.157,1.371-.131,2.579,.921,2.687,2.298,.107,1.377-.922,2.579-2.298,2.687-1.469,.115-3.018,.173-4.604,.173Zm-292.892,0c-1.118,0-2.223-.029-3.285-.086-1.379-.073-2.437-1.251-2.363-2.63,.073-1.379,1.237-2.453,2.63-2.362,.973,.052,1.988,.078,3.018,.078,3.703,0,6.973-.33,9.997-1.009,1.347-.299,2.685,.546,2.987,1.892,.302,1.348-.545,2.685-1.892,2.987-3.388,.76-7.017,1.13-11.092,1.13Zm583.991-.025c-.025,0-.051,0-.076,0-5.304-.158-9.974-1.009-14.278-2.601-1.295-.479-1.957-1.917-1.478-3.212,.479-1.294,1.914-1.955,3.212-1.478,3.84,1.42,7.874,2.148,12.693,2.292,1.38,.041,2.465,1.193,2.424,2.573-.041,1.355-1.151,2.426-2.498,2.426Zm-391.427-.035c-.039,0-.077,0-.115-.003-5.329-.241-9.853-1.164-14.236-2.903-1.284-.51-1.911-1.963-1.402-3.246,.51-1.284,1.964-1.91,3.246-1.402,3.853,1.529,7.862,2.342,12.619,2.558,1.379,.062,2.447,1.231,2.384,2.61-.061,1.341-1.167,2.387-2.496,2.387Zm-90.979-.072c-1.302,0-2.4-1.008-2.492-2.327-.096-1.377,.943-2.571,2.321-2.667,4.654-.323,8.629-1.259,12.51-2.945,1.267-.551,2.739,.03,3.289,1.297s-.03,2.739-1.297,3.289c-4.419,1.92-8.917,2.983-14.156,3.348-.059,.004-.118,.006-.176,.006Zm391.426-.07c-1.282,0-2.374-.981-2.488-2.282-.12-1.376,.898-2.588,2.273-2.708,4.565-.398,8.515-1.423,12.431-3.224,1.254-.575,2.739-.028,3.316,1.227s.027,2.739-1.227,3.316c-4.454,2.048-8.929,3.211-14.085,3.661-.074,.007-.147,.01-.22,.01Zm-13.719-.528c-.147,0-.296-.013-.446-.039-5.858-1.055-10.005-3.036-13.615-5.021-1.209-.665-1.651-2.185-.986-3.395s2.185-1.652,3.395-.986c3.237,1.779,6.942,3.554,12.092,4.479,1.359,.245,2.262,1.545,2.018,2.903-.217,1.209-1.271,2.058-2.458,2.058Zm-391.413-.168c-.165,0-.332-.017-.5-.051-5.876-1.192-10.041-3.354-13.484-5.288-1.204-.676-1.632-2.2-.956-3.403,.676-1.205,2.199-1.634,3.404-.956,3.112,1.747,6.864,3.699,12.03,4.747,1.353,.274,2.228,1.594,1.953,2.947-.241,1.186-1.283,2.004-2.448,2.004Zm118.365-.272c-1.132,0-2.158-.774-2.431-1.924-.319-1.343,.512-2.69,1.855-3.01,4.772-1.133,8.24-2.984,11.96-5.109,1.199-.685,2.727-.268,3.411,.931,.685,1.199,.268,2.727-.931,3.411-3.913,2.235-7.873,4.348-13.286,5.633-.194,.046-.388,.068-.579,.068Zm391.403-.216c-1.109,0-2.122-.744-2.417-1.866-.351-1.336,.448-2.702,1.784-3.053,4.79-1.257,8.255-3.244,11.924-5.349,1.198-.687,2.725-.272,3.413,.925,.687,1.198,.272,2.726-.925,3.413-3.791,2.174-7.711,4.422-13.143,5.847-.212,.056-.426,.083-.636,.083Zm-222.829-1.24c-.297,0-.6-.054-.895-.167-3.443-1.319-6.295-2.956-9.053-4.538-1.135-.65-2.27-1.302-3.445-1.93-1.218-.65-1.678-2.164-1.028-3.383,.651-1.218,2.166-1.677,3.383-1.027,1.221,.651,2.399,1.327,3.578,2.003,2.712,1.556,5.274,3.025,8.355,4.207,1.289,.494,1.934,1.939,1.439,3.229-.381,.995-1.33,1.606-2.335,1.606Zm-391.381-.341c-.317,0-.639-.061-.95-.188-3.038-1.249-5.629-2.735-8.135-4.173-1.438-.825-2.795-1.604-4.244-2.35-1.228-.631-1.711-2.139-1.08-3.366,.632-1.229,2.14-1.712,3.367-1.079,1.551,.797,3.022,1.642,4.445,2.457,2.476,1.42,4.813,2.762,7.549,3.886,1.277,.525,1.887,1.986,1.361,3.263-.397,.967-1.33,1.551-2.313,1.551Zm327.163-.49c-.956,0-1.868-.552-2.284-1.48-.563-1.26,0-2.738,1.261-3.303,2.297-1.027,4.329-2.192,6.479-3.427,1.772-1.017,3.605-2.068,5.595-3.033,1.245-.604,2.739-.084,3.341,1.158,.603,1.242,.084,2.737-1.158,3.34-1.835,.891-3.513,1.853-5.29,2.872-2.164,1.241-4.4,2.524-6.926,3.654-.332,.148-.678,.219-1.02,.219Zm351.514-1.804c-.402,0-.811-.098-1.19-.304-1.063-.577-2.099-1.17-3.133-1.764-2.836-1.627-5.516-3.164-8.788-4.369-1.296-.477-1.959-1.914-1.482-3.21,.478-1.295,1.914-1.962,3.21-1.481,3.667,1.351,6.657,3.064,9.548,4.724,1.001,.573,2.002,1.147,3.03,1.706,1.214,.658,1.664,2.176,1.005,3.39-.453,.835-1.312,1.309-2.2,1.309Zm-391.339-.435c-.411,0-.827-.101-1.212-.314-.785-.437-1.557-.879-2.33-1.322-3.054-1.751-5.938-3.405-9.564-4.643-1.307-.446-2.004-1.867-1.559-3.174,.446-1.307,1.865-2.003,3.174-1.559,4.081,1.393,7.312,3.246,10.437,5.037,.753,.433,1.506,.864,2.271,1.289,1.207,.671,1.642,2.193,.971,3.4-.457,.822-1.309,1.285-2.188,1.285Zm-247.557-.621c-.87,0-1.715-.454-2.176-1.264-.683-1.2-.263-2.727,.938-3.409l1.181-.676c3.454-1.981,7.025-4.029,11.731-5.457,1.321-.398,2.718,.347,3.118,1.667,.4,1.321-.346,2.717-1.667,3.118-4.163,1.263-7.335,3.082-10.694,5.009l-1.197,.685c-.39,.222-.814,.327-1.233,.327Zm391.311-.447c-.867,0-1.709-.451-2.171-1.257-.687-1.198-.272-2.726,.926-3.412l.408-.233c3.68-2.111,7.484-4.294,12.652-5.724,1.332-.374,2.708,.412,3.076,1.742,.368,1.331-.412,2.708-1.743,3.076-4.56,1.262-7.93,3.195-11.498,5.242l-.409,.234c-.392,.225-.819,.331-1.241,.331Zm143.734-1.992c-.402,0-.81-.097-1.188-.302-3.19-1.728-6.867-3.447-12.129-4.328-1.362-.229-2.281-1.517-2.053-2.879,.228-1.361,1.52-2.284,2.878-2.053,6.001,1.004,10.286,3.021,13.685,4.863,1.214,.657,1.666,2.175,1.008,3.389-.453,.836-1.312,1.31-2.201,1.31Zm-391.325-.417c-.392,0-.79-.093-1.161-.288-2.965-1.557-6.733-3.257-12.199-4.055-1.366-.199-2.312-1.469-2.113-2.835,.199-1.365,1.468-2.313,2.834-2.112,6.248,.912,10.658,2.924,13.802,4.576,1.222,.642,1.693,2.153,1.051,3.376-.447,.851-1.316,1.338-2.215,1.338Zm-39.862-.579c-.92,0-1.805-.51-2.241-1.39-.614-1.237-.109-2.737,1.128-3.351,4.585-2.275,8.888-3.554,13.95-4.146,1.373-.156,2.613,.822,2.773,2.193,.16,1.371-.822,2.613-2.193,2.773-5.723,.668-9.583,2.306-12.308,3.657-.357,.178-.736,.262-1.109,.262Zm391.339-.391c-.936,0-1.834-.529-2.261-1.432-.59-1.248-.058-2.738,1.19-3.329,4.476-2.118,8.938-3.337,14.04-3.835,1.378-.131,2.597,.872,2.731,2.245,.134,1.375-.872,2.598-2.246,2.731-4.573,.446-8.393,1.488-12.387,3.378-.345,.163-.709,.241-1.068,.241Zm-64.25-1.552c-.277,0-.56-.047-.836-.145-3.784-1.343-7.949-2.045-12.732-2.146-1.38-.028-2.476-1.172-2.447-2.552,.029-1.381,1.178-2.501,2.552-2.446,5.327,.112,10.004,.908,14.299,2.432,1.301,.462,1.982,1.892,1.52,3.192-.363,1.024-1.327,1.665-2.356,1.665Zm-391.38-.29c-.258,0-.52-.041-.779-.125-3.783-1.239-7.97-1.856-12.802-1.888-1.381-.009-2.493-1.136-2.484-2.516,.009-1.376,1.126-2.484,2.5-2.484h.016c5.357,.034,10.044,.733,14.326,2.136,1.312,.43,2.027,1.842,1.598,3.154-.345,1.054-1.324,1.723-2.375,1.723Zm168.523-.373c-1.084,0-2.083-.712-2.4-1.806-.384-1.326,.38-2.713,1.706-3.097,4.035-1.169,8.438-1.737,13.458-1.738,.303,0,.602,.002,.897,.006,1.381,.02,2.484,1.153,2.465,2.534-.019,1.369-1.134,2.466-2.499,2.466h-.035c-.273-.004-.549-.006-.828-.006-4.542,0-8.49,.505-12.067,1.541-.232,.067-.466,.1-.696,.1Zm391.398-.236c-1.107,0-2.12-.741-2.416-1.863-.353-1.335,.444-2.702,1.779-3.055,3.788-1,7.893-1.486,12.549-1.486,.621,0,1.227,.009,1.818,.026,1.38,.04,2.466,1.192,2.426,2.572-.041,1.381-1.197,2.508-2.572,2.426-.543-.016-1.101-.024-1.672-.024-4.22,0-7.907,.432-11.272,1.32-.214,.057-.429,.084-.64,.084Zm-273.056-.828c-.128,0-.259-.01-.39-.03-2.343-.367-4.814-.546-7.553-.546-1.938,0-3.798,.094-5.527,.279-1.369,.137-2.605-.847-2.752-2.221-.147-1.373,.847-2.604,2.22-2.751,1.905-.204,3.944-.308,6.06-.308,3.001,0,5.726,.198,8.328,.606,1.364,.214,2.296,1.493,2.083,2.857-.193,1.232-1.257,2.112-2.467,2.112Z"/><path d="M734.755,19c-2.582,0-5.043-.154-7.315-.459-1.369-.183-2.33-1.44-2.146-2.81,.184-1.368,1.442-2.333,2.81-2.146,2.054,.274,4.292,.414,6.652,.414,1.381,0,2.5,1.119,2.5,2.5s-1.119,2.5-2.5,2.5Z"/></g></g></g></svg>