<?xml version="1.0" encoding="UTF-8" standalone="no"?><svg xmlns="http://www.w3.org/2000/svg" xmlns:xlink="http://www.w3.org/1999/xlink" fill="#396416" height="591.7" preserveAspectRatio="xMidYMid meet" version="1" viewBox="-1.2 54.3 704.1 591.7" width="704.1" zoomAndPan="magnify"><g id="change1_1"><path d="M81.823,460.587c0.679-12.32,5.464-42.164,6.074-45.849c0.338-2.043,0.013-2.772-2.102-2.674 c-7.077,0.329-14.141,1.16-21.238,0.708c-2.132-0.135-2.748,1.092-3.254,2.793c-2.283,7.675-3.428,15.556-3.87,23.506 c-0.829,14.906-2.267,29.795-1.758,44.753c0.111,3.275,0.245,4.961,1.145,5.674c1.061,0.84,2.392,0.522,5.865-0.186 c8.142-1.66,9.856-2.108,13.01-2.179c3.058-0.07,3.115,0.367,3.977,0C84.075,485.257,81.056,474.5,81.823,460.587z M78.816,481.984 c0.079,2.434-0.686,3.301-3.138,3.235c-4.747-0.128-9.456,0.564-13.99,1.887c-2.774,0.809-3.179-0.269-3.277-2.575 c-0.407-9.589,0.191-19.149,0.794-28.703c0.712-11.284,0.991-22.607,3.01-33.782c1.273-7.047,1.187-7.063,8.577-6.572 c-7.502,10.949-6.805,23.709-7.71,35.996c-0.73,9.904-0.467,19.896,2.398,29.588c0.495,1.674,0.907,3.563,3.143,3.612 c1.939,0.043,3.012-1.489,3.352-3.032c4.108-18.666,8.905-37.254,7.263-56.659c-0.301-3.56-1.627-6.687-4.464-9.291 c10.48-1.31,10.656-1.282,9.079,8.432C80.741,443.292,78.184,462.5,78.816,481.984z M698.689,566.458 c-4.126-10.485-12.896-13.486-22.806-14.621c-2.589-0.296-3.374-1.087-3.326-3.597c0.131-6.842,0.045-13.688,0.045-20.532 c-1.317-31.11-4.098-62.038-8.102-92.922c-4.395-33.893-18.352-62.2-44.741-84.196c-11.546-9.623-17.749-15.075-28.844-28.052 c-5.453-6.378-10.305-12.872-13.625-22.102c-2.095-5.824-2.942-10.962-3.319-14.58c11.115-6.888,20.551-9.039,27.252-9.69 c7.602-0.739,16.121-0.131,28.93-2.943c7.902-1.735,13.82-5.689,15.081-14.356c1.237-8.505,2.002-17.061,1.177-25.654 c-0.695-7.24-5.256-12.351-12.511-13.197c-13.213-1.542-26.349-0.964-39.046,3.508c-5.026,1.77-8.398,5.184-9.267,10.711 c-0.814,5.172-1.389,10.353-1.422,15.597c-0.05,7.873-2.09,10.431-9.558,13.102c-2.903,1.038-4.284,0.625-4.911-2.567 c-4.197-21.351-7.821-42.814-12.843-64.005c-2.634-11.116-4.237-22.476-9.515-32.846c-3.281-6.446-7.903-10.953-15.027-12.911 c-12.743-3.503-25.795-5.361-38.814-7.27c-28.116-4.123-56.529-4.027-84.835-5.144c-29.341-1.158-58.724,0.272-88.091-0.822 c-16.034-0.597-32.117-0.242-48.168,0.132c-12.556,0.292-25.144,0.196-37.659,0.915c-19.474,1.119-38.883,3.392-58.065,7.114 c-5.686,1.103-11.529,1.897-16.432,5.593c-7.076,5.334-10.545,12.935-12.702,21.017c-5.098,19.102-9.08,38.478-13.054,57.844 c-2.199,10.713-4.003,21.507-6.12,32.238c-0.259,1.311,0.261,3.46-2.322,3.524c-6.415,0.161-12.387-5.453-12.358-11.939 c0.025-5.744-0.58-11.422-1.215-17.113c-0.635-5.697-3.754-9.418-8.943-11.369c-12.718-4.782-25.953-5.734-39.3-4.241 c-7.631,0.854-11.748,5.623-12.684,13.413c-1.046,8.706-0.266,17.4,0.946,26.027c0.802,5.708,4.143,9.68,9.461,12.037 c6.414,2.842,13.257,3.23,20.081,3.558c13.625,0.655,26.492,3.982,38.653,10.186c1.9,0.969,2.428,1.853,1.992,3.996 c-2.356,11.592-8.612,21.653-12.626,32.588c-0.353,0.962-1.327,1.806-2.2,2.449c-7.31,5.382-14.753,10.589-21.977,16.083 c-5.455,4.148-10.842,8.538-13.961,14.839c-6.242,12.611-12.046,25.427-15.798,39.043c-5.767,20.931-8.496,42.333-10.695,63.907 c-0.896,8.792-0.938,11.626-1.746,24.815c-0.215,3.505-0.63,10.212-1.566,23.618c-0.645,9.24-1.587,21.935-2.913,37.507 c-2.059-0.49-11.833-2.586-20.588,3.275c-10.243,6.857-13.373,20.775-9.358,30.939c2.789,7.06,8.437,10.79,10.379,12.058 c6.053,3.951,12.069,4.383,18.822,4.706c9.33,0.446,21.693,0.688,36.54,0.024c-0.046,0.656-0.105,1.61-0.145,2.76 c-0.092,2.654,0.394,8.357,0.853,14.529c0.799,10.734,5.444,17.406,14.649,19.749c15.716,4,31.616,4.786,47.692,1.962 c4.094-0.719,7.328-2.212,9.824-4.443c2.729-2.439,4.244-5.392,5.927-10.801c1.607-5.164,3.464-12.797,4.055-22.592 c3.653-0.066,9.132-0.159,15.774-0.251c89.398-1.243,153.713,1.93,200.944,2.259c40.058,0.279,97.818,0.957,169.746,2.775 c0.08,9.144,1.663,16.387,3.086,21.258c1.868,6.398,3.181,10.869,7.153,14.526c3.4,3.13,8.102,4.838,14.95,5.919 c14.143,2.232,28.285,1.672,42.387-0.191c4.365-0.576,7.866-2.003,10.61-4.291c2.974-2.479,4.809-5.726,6.726-11.739 c1.745-5.471,3.779-13.928,3.896-24.961c6.028,0.156,14.567,0.203,24.806-0.338c15.109-0.799,22.404-1.907,28.01-4.707 C696.614,592.244,702.875,577.097,698.689,566.458z M595.241,235.837c0.952-3.968,4.869-4.688,8.347-5.061 c2.951-0.317,5.964-0.065,8.949-0.065c6.11-0.154,12.169,0.359,18.199,1.33c3.443,0.554,5.227,2.55,5.573,5.976 c0.693,6.846,0.385,13.652-0.681,20.439c-0.394,2.504-1.485,4.126-4.313,4.157c-10.205,0.112-20.343-0.706-30.472-1.873 c-3.234-0.373-4.846-2.113-5.696-5.003C593.194,249.092,593.67,242.386,595.241,235.837z M596.786,269.385 c-6.524,2.367-13.765,2.935-19.362,7.634C582.365,270.672,589.694,270.328,596.786,269.385z M65.803,263.582 c-2.214-0.055-3.439-1.291-3.693-3.436c-0.436-3.693-0.805-7.393-1.104-10.176c0.214-4.176,0.342-7.406,0.556-10.629 c0.251-3.79,2.347-5.768,6.091-6.309c8.914-1.289,17.875-1.061,26.814-0.722c5.606,0.213,8.259,2.971,8.879,8.5 c0.624,5.563,1.099,11.134-0.857,16.6c-1.01,2.823-2.579,4.572-5.801,4.914C86.415,263.416,76.126,263.84,65.803,263.582z M94.361,272.489c6.425-0.15,12.21,2.141,17.785,5.193C106.218,275.951,100.289,274.22,94.361,272.489z M119.677,307.222 c4.048-10.24,6.143-18.785,7.72-25.969c3.142-14.307,4.754-25.584,5.39-29.99c0,0,4.853-26.333,17.005-78.753 c3.303-14.25,11.983-22.81,27.166-24.703c19.13-2.384,38.175-4.503,57.536-5.022c21.112-0.566,42.255-0.675,63.376-1.623 c18.245-0.819,36.579,0.274,54.872,0.651c22.387,0.461,44.781,0.82,67.155,1.668c19.386,0.734,38.818,0.339,58.159,2.171 c16.83,1.594,33.546,3.952,50.133,7.298c9.519,1.92,15.53,6.885,18.743,16.381c6.413,18.956,9.448,38.636,13.385,58.109 c4.902,24.244,9.108,48.629,13.513,72.972c0.605,3.346,2.483,5.907,4.217,8.606c0.651,1.014,1.539,1.888,2.662,3.604 c1.402,2.142,2.324,4.048,2.896,5.362c-26.101-1.415-52.202-2.831-78.303-4.246c-1.756-2.46-5.66-8.678-3.926-15.265 c0.16-0.607,0.372-1.235,0.65-1.877c22.06,2.17,44.12,4.34,66.181,6.51c-0.309-2.842-0.79-7.103-1.447-12.261 c-5.906-46.379-11.376-50.414-16.026-83.923c0,0-2.246-8.6-7.745-28.828c-2.978-10.954-10.553-17.3-21.132-19.992 c-14.359-3.654-29.023-5.649-43.802-6.734c-10.292-0.756-20.567-1.729-30.916-1.572c-2.14,0.032-4.284-1.153-6.45-1.677 c-4.289-1.038-8.557-1.284-12.853,0.165c-1.987,0.67-4.102,1.334-6.165,1.351c-25.884,0.211-51.783,0.908-77.649,0.277 c-35.221-0.86-70.439-1.862-105.666-1.568c-18.91,0.158-37.717,2.334-56.322,5.863c-3.158,0.599-6.298,1.564-9.282,2.766 c-8.659,3.488-13.886,9.964-16.584,18.895c-5.759,19.064-10.849,38.286-14.764,57.817c-4.129,20.602-8.248,41.207-12.495,61.785 c-0.105,0.509-0.735,2.323,0.161,3.424c0.783,0.963,2.357,0.952,3.344,0.853c52.657-0.571,105.313-1.336,157.969-2.295 c34.89-0.635,69.775-1.356,104.656-2.161c-0.41,1.571-0.786,3.252-1.104,5.037c-0.645,3.62-0.928,6.964-1.002,9.936 c3.006-1.895,7.237-5.204,10.384-10.579c0.843-1.441,1.5-2.844,2.016-4.16h23.161c1.433,6.326,2.867,12.652,4.3,18.978 c-10.023,0.526-25.054,1.215-43.335,1.655c-33.079,0.795-57.712,0.314-64.84,0.189c-28.186-0.496-85.387-0.753-208.914,0.034 C116.748,314.177,118.165,311.046,119.677,307.222z M485.722,311.192c1.288,6.673,3.319,7.839,6.425,15.927 c1.691,4.403,3.575,9.425,3.961,16.132c0.213,3.706-0.108,6.589-0.468,9.826c-0.666,5.986-1.835,10.866-2.807,14.271 c-3.637-9.91-7.581-17.416-10.528-22.46c-5.637-9.648-9.63-13.785-13.645-24.128c-2.675-6.89-1.447-6.552-4.135-13.538 c-5.274-13.703-8.97-12.328-13.422-24.12c-2.685-7.111-3.464-13.237-8.505-22.614c-0.622-1.157-2.794-5.198-3.34-4.969 c-0.425,0.178,0.324,2.861,1.131,5.689c2.401,8.418,4.384,15.03,4.952,16.806c1.682,5.256,1.881,10.975,2.891,16.461 c2.341,12.718,7.194,24.579,12.859,36.101c7.699,15.659,9.932,23.977,13.147,37.226c0.694,2.859,1.197,5.229,1.517,6.799 c-1.784-2.657-4.406-6.74-7.253-11.932c-3.968-7.236-4.526-9.609-7.252-14.037c-4.485-7.285-6.72-6.944-12.87-14.514 c-7.151-8.801-11.913-16.891-13.031-23.094c-3.539-19.64-13.33-35.579-27.922-48.578c-10.667-9.502-15.177-21.28-16.634-35.067 c-1.539-14.559-1.045-28.865,3.773-42.694c4.419-12.685,12.259-23.004,23.871-30.137c12.066-7.412,24.557-6.083,35.541,4.117 c7.647,7.101,13.419,15.724,17.979,25.051c5.265,10.768,11.482,20.973,18.037,30.948c4.806,7.314,11.83,12.294,19.796,16.006 c5.193,2.42,10.542,4.803,13.693,10.239c-15.462-4.351-24.935-8.353-30.882-11.359c-1.78-0.9-6.963-3.591-7.72-2.574 c-0.573,0.77,1.648,3.313,2.686,4.512c8.774,10.14,18.227,20.127,20.729,29.743c0.827,3.179,1.742,8.255,1.15,14.876 c-0.785-1.271-2.048-3.24-3.743-5.545c-5.036-6.851-9.425-12.667-16.631-14.986c-1.293-0.416-3.264-0.908-5.829-0.993 c0.83,0.74,2.17,2.004,3.622,3.734c11.886,14.158,11.558,35.951,11.381,38.666c-0.485,7.438,1.076,14.025,5.112,20.183 c3.729,5.691,5.167,8.802,9.422,14.806c3.566,5.032,7.305,13.518,7.662,28.592c-2.321-5.781-4.763-10.175-6.551-13.101 c-5.709-9.347-15.284-20.995-16.769-22.802c-0.987-1.201-2.384-2.858-3.87-5.395c-1.943-3.316-2.871-6.214-4.32-9.523 c-1.825-4.169-2.953-7.58-3.583-7.433C484.621,302.478,484.961,307.25,485.722,311.192z M396.889,277.717 c-0.829-15.2-4.081-27.788-7.23-36.937c1.547,3.566,3.529,7.532,6.083,11.698c3.286,5.361,6.732,9.772,9.863,13.296 c0.856,2.783,1.26,5.118,1.47,6.713c2.571,19.508-10.136,32.781-10.316,33.045c-0.194,0.284-0.545,0.46-1.39,1.148 C396.632,298.801,397.502,288.971,396.889,277.717z M378.856,260.71c-4.287,1.805-6.48,2.701-7.76,3.781 c-4.075,3.437-5.476,7.981-7.184,14.277c-0.901,3.322-1.878,8.1-2.018,14.017c-13.37,0.243-26.741,0.487-40.111,0.73 c-5.086-13.497-9.262-23.321-11.003-26.067c-0.834-1.315-1.899-2.274-1.899-2.275c-1.433-1.283-3.184-2.1-5.252-2.628 c-12.893-3.287-25.718-6.842-38.616-10.109c-2.46-0.623-3.232-1.682-3.015-4.086c0.352-3.911,0.164-7.612-5.021-8.281 c-1.455-0.188-1.358-1.433-1.474-2.597c-0.43-4.315,0.244-8.625-0.302-12.999c-0.289-2.31,2.316-4.848,2.977-7.445 c0.746-2.931,2.371-3.997,5.14-4.91c6.423-2.119,9.035-13.029,4.355-17.64c-1.221-1.203-1.249-2.215-1.05-3.598 c0.773-5.375,0.054-10.636-0.977-15.93c-4.038-20.731-27.582-23.918-41.4-20.135c-16.389,4.487-26.067,25.369-20.105,39.316 c0.373,0.872,0.773,1.656-0.064,2.717c-4.459,5.654-1.109,15.952,5.785,17.918c3.756,1.071,3.826,4.428,3.872,7.138 c0.098,5.706-0.498,11.423-0.774,17.138c-0.05,1.042-0.152,2.05-1.156,2.571c-4.789,2.484-4.444,6.784-3.752,11.038 c0.361,2.215-0.271,3.095-2.38,3.686c-11.617,3.258-23.17,6.744-34.809,9.918c-3.042,0.83-4.84,2.277-6.201,5.172 c-3.352,7.131-4.525,14.712-5.306,22.391c-0.209,2.055-0.462,3.083-2.912,3.094c-7.714,0.035-15.429,0.289-23.138,0.591 c-3.453,0.135-1.669-2.077-1.44-3.217c4.15-20.595,7.783-41.289,12.416-61.794c4.222-18.69,9.111-37.188,14.149-55.666 c3.001-11.007,10.089-17.235,20.777-19.537c14.229-3.064,28.652-4.769,43.203-5.682c20.524-1.288,41.043-0.765,61.561-0.438 c20.278,0.323,40.548,1.349,60.826,1.501c22.139,0.166,44.283-0.318,66.426-0.517c1.363-0.012,2.726-0.002,5.228-0.002 c-10.192,7.78-17.663,16.407-22.549,27.152c-4.801,10.558-5.718,19.482-6.633,30.429c-0.9,10.765-1.136,26.913,2.887,46.585 C387.44,257.288,383.525,258.745,378.856,260.71z M383.858,266.547c-9.38,3.827-15.202,10.185-14.828,20.949 C365.829,278.943,373.925,267.559,383.858,266.547z M216.803,223.785c11.315,9.667,22.919,8.477,35.109,3.136 c0.061,4.074,0.121,8.148,0.182,12.221c-3.458-0.49-6.288-0.647-8.188-0.702c-7.863-0.228-12.093,0.928-24.675,1.518 c-1.259,0.059-2.286,0.097-2.931,0.12c0.251-2.717,0.434-5.604,0.516-8.645C216.888,228.762,216.877,226.209,216.803,223.785z M222.363,195.828c1.223,4.666,2.445,9.332,3.668,13.998C223.549,205.538,222.552,200.792,222.363,195.828z M232.831,200.615 c2.04,4.298,2.598,8.807,1.83,13.528C234.051,209.634,233.441,205.125,232.831,200.615z M237.311,179.839v-12.495 C238.229,171.502,239.06,175.661,237.311,179.839z M244.706,164.956c1.649,6.624,1.775,13.265,0.066,19.927 C245.438,178.233,244.92,171.596,244.706,164.956z M247.85,209.281c0.764-3.064,1.527-6.128,2.291-9.192 C250.351,203.414,249.902,206.556,247.85,209.281z M218.535,243.535c7.018-0.842,14.057-1.748,21.531-1.464 c4.626-0.217,9.592,0.029,14.43,1.339c1.644,0.445,4.249,0.254,4.013,2.92c-0.235,2.667,0.905,6.182-2.328,7.664 c-10.921,5.003-22.252,7.768-34.331,4.989c-2.173-0.5-4.277-1.317-6.459-1.762c-2.657-0.543-3.815-1.768-4.029-4.709 C210.791,244.669,210.581,244.489,218.535,243.535z M256.908,199.933c0.924,4.145-0.971,7.466-3.037,10.737 C254.604,207.009,256.462,203.677,256.908,199.933z M254.338,172.689c1.656,2.947,2.238,5.989,0.821,9.11 C254.886,178.762,254.612,175.726,254.338,172.689z M237.121,262.537c11.21-0.885,19.661-4.644,24.366-7.172 c0.259,0.045,0.727,0.127,1.308,0.231c12.452,2.222,15.257,3.491,35.622,9.047c3.952,1.078,6.247,1.685,8.656,3.743 c1.894,1.618,3.341,3.689,5.849,10.06c1.424,3.618,3.148,8.512,4.679,14.505c-51.782,1.092-103.563,2.184-155.345,3.275 c0.239-2.429,0.476-4.419,0.647-5.78c0.051-0.405,1.081-6.773,3.007-14.593c0.459-1.862,1.146-3.269,2.189-4.336 c1.594-1.631,3.543-2.1,4.251-2.277c3.9-0.976,18.079-5.08,37.632-10.68C215.092,260.536,224.792,263.51,237.121,262.537z M260.968,208.671c1.958-3.881,3.386-7.284,4.366-11.163C267.383,201.229,265.129,207.369,260.968,208.671z M208.667,210.863 c-1.428-0.694-4.495-9.129-3.85-10.493c0.188-0.397,0.605-0.685,0.946-1.054c0.434,0.275,0.901,0.399,1.007,0.666 c1.312,3.327,2.76,6.619,3.766,10.04C211.042,211.743,209.53,211.283,208.667,210.863z M510.479,257.981 c-5.313-14.681-18.783-23.204-17.413-24.922c0.5-0.627,2.296,0.49,11.23,3.977c8.442,3.295,12.292,4.427,14.037,4.913 c4.044,1.127,7.416,1.755,9.592,2.106c-0.797-2.093-2.244-5.184-4.913-8.188c-3.12-3.512-5.835-4.569-11.912-8.172 c-4.891-2.899-9.864-5.663-13.91-9.402c-3.995-3.693-7.436-7.998-10.369-12.969c-5.814-9.854-11.484-19.784-17.118-29.738 c-4.738-8.369-9.971-16.345-18.316-22.655c5.999-0.658,11.354-0.225,16.756,0.089c16.405,0.953,32.647,3.049,48.778,6.129 c13.392,2.557,21.573,9.781,25.035,23.623c13.719,54.847,19.875,93.333,19.875,93.334c0.777,5.107,2.036,13.296,3.67,23.47 c-19.171-2.298-38.481-4.431-57.93-6.39c-1.56-0.157-3.12-0.313-4.679-0.468c0.041-3.881-0.348-9.41-2.34-15.675 c-2.654-8.349-6.946-14.205-9.826-17.546c3.326,1.591,5.446,3.46,6.785,4.913c2.091,2.268,2.776,4.059,6.982,9.422 c0.716,0.913,0.643,0.792,1.64,2.056c2.396,3.039,4.306,5.617,5.65,7.472C513.194,276.482,513.875,267.365,510.479,257.981z M71.95,593.113c-30.104,0.684-46.755,1.062-55.681-9.358c-4.623-5.398-7.715-14.324-4.861-22.008 c3.073-8.274,11.807-11.789,12.397-12.017c4.012-1.548,7.49-1.429,8.702-1.392c9.614,0.297,29.739,0.221,56.755,0.089 c-0.143,1.537-0.269,3.09-0.378,4.658c-0.962,13.87-0.421,26.956,1.079,39.091C85.657,592.528,79.442,592.943,71.95,593.113z M89.514,542.115c-0.055,0.805-0.148,2.206-0.252,3.973c-7.622-0.09-15.265-0.168-22.927-0.234 c-7.26-0.063-14.501-0.115-21.725-0.156c0.119-31.667-0.277-58.737,2.917-81.097c0,0,0.622-23.893,8.588-59.019 c3.862-17.03,10.625-32.878,18.339-48.394c2.856-5.744,7.939-9.552,12.816-13.386c6.646-5.225,13.576-10.089,20.312-15.203 c2.058-1.562,3.403-3.651,3.507-3.781c1.461-1.822,2.504-3.489,3.207-4.728c1.354,0.04,3.395,0.1,5.872,0.168 c62.613,1.711,88.607-0.358,163.555-0.704c29.755-0.137,59.511-0.216,89.267-0.331c11.827-0.046,23.654-0.129,35.481-0.174 c7.707-0.03,15.414-0.027,23.121-0.028c1.482,0,3.17-0.242,3.813,1.581c2.967,8.412,9.301,14.344,15.221,20.531 c4.619,4.827,8.311,10.207,11.247,16.172c3.583,7.283,7.841,14.151,12.946,20.474c0.665,0.824,1.197,2.198,2.565,1.711 c1.422-0.507,0.879-1.85,0.768-2.924c-1.731-16.67-6.988-32.249-14.242-47.283c-5.737-11.89-10.614-24.142-13.5-37.091 c-0.292-1.311-0.433-2.655-0.268-4.146c5.07,7.275,10.948,14.114,13.065,22.938c2.531,10.55,6.868,20.135,12.779,29.238 c9.145,14.081,14.524,25.076,16.153,34.349c0.162,0.922,0.818,4.954,1.63,4.942c0.64-0.009,1.084-2.53,1.366-4.186 c2.665-15.657,3.201-27.108,3.293-28.113c0.573-6.262-0.192-12.384-2.73-19.458c16.922,21.627,22.492,32.626,24.154,38.691 c0.292,1.067,1.609,6.162,2.46,6.048c0.406-0.054,0.768-1.302,0.786-6.441c0.028-8.219,0.039-13.425-1.735-20.532 c-3.072-12.304-9.156-20.603-12.189-24.828c-1.114-1.552-2.09-2.8-2.77-3.645c16.199,0.584,32.899,1.5,50.066,2.807 c10.52,0.801,20.839,1.721,30.95,2.744c7.802,7.795,17.58,17.627,28.807,29.072c20.954,21.359,24.423,25.409,28.448,31.952 c7.814,12.7,12.391,26.542,14.894,41.155c6.97,40.698,10.299,81.687,10.033,122.98c-0.02,3.138-0.899,3.971-3.982,3.901 c-13.319-0.301-26.644-0.441-39.967-0.428c-2.823,0.003-3.775-1.046-3.785-3.615c-0.036-8.714-0.09-17.429-0.182-26.143 c-0.013-1.252,0.399-1.948,1.51-2.659c7.022-4.494,10-12.432,7.471-20.375c-0.024-0.077-0.036-0.136-0.058-0.21 c-0.527-1.318-1.204-2.779-2.08-4.314c-0.625-1.094-1.265-2.077-1.888-2.951c-2.735-2.63-5.439-4.965-9.271-5.874 c-10.392-2.465-16.998,1.306-19.436,11.686c-1.544,6.575-1.281,8.967-1.839,28.965c-0.12,4.32-0.253,7.648-0.32,13.561 c-0.047,4.106-0.042,7.745-0.018,10.803c-75.691-1.246-136.839-1.203-177.974-0.95c-98.867,0.607-197.73-1.699-296.595-2.587 c-6.493-0.058-6.227,1.674-6.285-6.729c-0.097-14.177,2.293-28.335,0.304-42.514c-0.328-2.335-0.914-4.633-1.264-6.965 c-1.914-12.756-16.829-13.797-24.823-8.172c-1.325,0.933-2.517,2.096-3.865,3.414c-1.158,1.524-2.317,3.047-3.475,4.571 c-3.229,9.236-0.82,13.594-0.136,14.679c1.29,2.048,6.101,7.727,7.401,8.585c0.847,0.559,1.079,1.202,1.055,2.169 C89.871,524.442,90.114,533.297,89.514,542.115z M102.398,597.619c-0.491,0.181-1.012,0.289-1.565,0.309 c-2.243,0.081-4.308-1.432-5.488-3.341c-1.18-1.909-1.632-4.169-1.999-6.383c-3.975-24.014-0.34-48.549-0.073-72.888 c0.022-1.991,0.071-3.327-1.88-4.073c-5.995-2.291-8.058-7.352-8.039-13.029c0.022-6.654,3.201-12.036,9.433-14.885 c4.76-2.176,11.21-2.285,15.184,1.585c2.651,2.582,3.569,6.435,4.078,10.101c1.03,7.411,0.879,14.929,0.727,22.41 c-0.243,11.891-0.299,23.787-0.743,35.674c-0.468,12.527,0.023,26.058-4.372,37.994C106.67,593.786,104.946,596.682,102.398,597.619 z M355.438,596.118c0,0.027-0.001,0.055-0.001,0.082c-66.485-0.61-132.963-1.456-199.434-2.537 c-14.919-0.243-29.839-0.497-44.76-0.764c1.989-12.181,3.191-25.082,3.288-38.637c0.009-1.249,0.008-2.492-0.001-3.728 c127.939,0.67,220.453,1.113,224.317,0.951c0.459-0.019,2.517-0.177,3.77,1.116c0.806,0.831,1.025,2.129,1.058,3.903 c0.169,9.206,0.564,18.409,0.722,27.615c0.041,2.38,0.812,3.379,3.253,3.322c5.092-0.118,10.188-0.032,15.282-0.094 c2.365-0.029,1.875-1.834,1.842-3.271c-0.218-9.33-0.294-18.668-0.762-27.986c-0.178-3.542,0.977-4.303,4.332-4.272 c46.887,0.437,93.847-1.06,140.734-0.677c12.031,0.098,24.427,0.039,43.637,0.724c4.172,0.149,13.606,0.512,26.679,0.775 c6.691,0.134,12.206,0.2,15.909,0.234c-0.128,5.182-0.017,10.821,0.468,16.845c0.874,10.86,2.759,20.453,4.913,28.542 C518.936,597.546,437.187,596.832,355.438,596.118z M614.163,601.601c-0.904,0.769-2.023,1.336-3.374,1.647 c-1,0.23-1.854,0.192-2.596-0.036c-0.988-0.304-2.704-1.105-4.268-4.555c-5.536-12.209-5.346-30.109-5.346-30.109 c0.131-12.339-0.35-10.941,0.458-19.033c1.433-14.359-1.363-29.293,0.38-44.201c0.273-2.339,0.714-4.66,1.115-6.983 c0.959-5.554,3.208-9.985,9.529-10.832c6.172-0.827,11.28,1.13,15.162,5.991c5.686,7.119,4.843,19.901-5.132,23.469 c-0.59,0.211-1.024,0.487-1.316,0.881c-0.182,0.245-0.533,0.823-0.462,1.926c3.277,50.787,1.741,59.297-1.33,76.315 C616.83,596.931,616.332,599.755,614.163,601.601z M683.234,595.838c-6.083,2.623-14.764,3.71-33.064,3.597 c-5.734-0.035-16.67-0.108-31.238-0.239c1.686-5.238,3.284-11.611,4.211-18.95c1.304-10.325,0.868-19.301,0-26.203 c13.217,0.46,23.833,0.387,31.116,0.234c8.278-0.174,14.248-0.508,22.46,1.404c8.341,1.942,14.56,3.39,17.653,8.351 C699.75,572.658,694.844,590.831,683.234,595.838z M628.525,485.728c-0.096,3.424-0.32,7.566,2.34,9.826 c3.804,3.232,8.736-1.437,18.563,1.175c1.973,0.525,4.202,1.362,5.714,0.21c0.95-0.724,1.141-2.451,1.315-5.773 c0.635-12.082-0.343-24.133-0.689-36.196c-0.297-10.333-1.065-20.604-3.46-30.714c-0.709-2.991-1.9-4.272-5.238-4.222 c-6.083,0.091-12.209-0.152-18.252-0.834c-1.711-0.193-2.634-0.039-3.093,0.471c-0.904,1.003-0.341,2.902-0.207,3.393 C627.157,429.059,629.033,467.681,628.525,485.728z M632.437,422.053c1.812,0.288,3.638,0.484,5.674,0.75 c-7.005,8.324-5.141,18.175-4.471,27.298c0.861,11.729,3.505,23.327,5.409,34.978c0.18,1.098,0.481,2.191,0.855,3.24 c0.637,1.786,1.396,3.709,3.67,3.659c2.198-0.048,2.593-2.084,3.106-3.709c3.039-9.64,3.174-19.606,2.91-29.551 c-0.45-16.985-0.37-19.929-2.493-25.205c-1.841-4.576-4.185-8.01-5.939-10.25c1.818-0.83,5.46-2.204,7.671-0.569 c1.914,1.414,1.694,4.437,1.863,5.673c2.827,20.75,3.191,41.625,3.025,62.527c-0.014,1.795-0.268,2.95-1.003,3.489 c-1.108,0.814-2.834,0.157-3.58-0.098c-7.259-2.489-12.505,1.49-16.165-1.771c-2.02-1.8-2.204-4.601-2.34-6.551 c-1.385-19.876,1.44-40.138-2.168-59.733C628.359,425.669,627.742,421.306,632.437,422.053z M494.562,72.808 c-0.022-0.868-0.068-1.757,0.081-2.604c0.528-2.997,1.192-6.266,4.676-6.898c3.586-0.651,5.777,1.968,7.129,4.88 c1.174,2.526,1.805,5.305,2.804,8.364c2.281-3.356,4.283-6.494,7.572-8.465c3.147-1.886,6.402-2.665,9.955-1.367 c3.415,1.247,4.83,3.703,4.261,7.278c-0.517,3.243-1.644,6.335-3.65,8.879c-7.065,8.959-13.1,18.722-21.17,26.904 c-2.046,2.075-3.127,2.555-4.263-0.65C497.783,97.363,494.886,85.351,494.562,72.808z M641.221,191.446 c0.369-10.253,2.331-20.195,6.188-29.716c0.893-2.204,2.46-4.038,4.427-5.429c1.847-1.306,3.855-2.67,6.17-1.467 c2.219,1.153,2.748,3.488,2.721,5.767c-0.028,2.327-0.432,4.65-0.737,7.619c3.136-1.676,5.821-3.256,8.858-3.958 c2.914-0.673,5.753-0.762,7.776,1.967c2,2.696,2.515,5.662,0.99,8.757c-1.832,3.72-4.88,6.275-8.507,8.063 c-7.904,3.897-15.838,7.74-24.068,10.928C642.495,194.962,641.121,194.223,641.221,191.446z M22.899,152.022 c-1.547-2.59-2.678-5.344-2.771-8.4c-0.112-3.682,2.299-5.547,5.811-4.399c1.509,0.493,2.932,1.333,4.287,2.187 c1.245,0.784,2.344,1.799,4.175,3.235c-1.304-5.44-0.637-9.784,2.987-13.365c3.521-3.479,7.393-2.954,9.709,1.453 c2.749,5.231,2.658,11.09,3.019,16.731c0.428,6.677,0.07,13.406,0.018,20.112c-0.013,1.728-0.139,3.643-2.685,2.309 C37.947,166.908,28.648,161.648,22.899,152.022z M117.177,160.473c3.52,0.292,4.977,3.042,5.65,6.09 c0.863,3.909,0.674,7.879,0.369,11.868c-0.608,7.946-2.492,15.674-3.742,23.508c-0.417,2.614-1.671,2.374-3.269,1.098 c-8.817-7.043-16.003-15.561-22.28-24.873c-0.814-1.207-1.376-2.676-1.697-4.104c-0.948-4.227,2.186-6.998,6.385-5.774 c3.71,1.082,6.289,3.811,9.506,6.863c0.288-3.962,0.385-7.229,1.983-10.118C111.605,162.275,113.837,160.196,117.177,160.473z M83.619,100.399c-0.465-1.888-0.669-4.127,1.342-5.45c2.261-1.488,4.108,0.082,5.708,1.369c2.399,1.929,4.575,4.134,7.171,6.521 c0.534-4.488,1.117-8.666,4.368-11.881c3.25-3.214,7.346-2.585,9.379,1.566c1.179,2.407,1.589,5.033,1.374,7.636 c-0.808,9.793-2.309,19.5-3.979,29.18c-0.419,2.426-1.634,3.174-3.905,1.734C93.65,123.829,86.814,113.364,83.619,100.399z M74.655,295.464c1.047-2.137,3.359-4.996,6.004-4.706c3.18,0.348,4.78,2.739,5.553,5.776c0.814,3.2,0.782,6.461,0.454,9.642 c-0.266,2.573-0.513,4.503-0.578,4.905c-0.528,3.227-1.534,8.71-3.436,16.469c-2.755-1.334-13.464-6.599-20.637-12.2 c-0.859-0.67-3.022-2.566-4.817-5.647c-2.537-4.354-2.235-7.965,0.857-10.398c3.154-2.482,8.461-1.942,11.627,0.518 c2.653,2.061,3.225,5.031,3.906,4.827C74.461,304.387,72.519,299.826,74.655,295.464z M577.141,169.828 c0.141,1.928,0.357,3.852,0.612,6.557c2.555-2.786,4.45-5.295,7.255-6.665c3.422-1.671,7.047-2.604,9.937,0.669 c2.807,3.179,1.122,6.483-1.108,9.106c-6.771,7.963-14.146,15.372-21.621,22.675c-1.185,1.157-2.285,1.596-3.011-0.504 c-3.691-10.673-4.921-21.595-2.694-32.695c0.593-2.955,1.398-7.27,5.512-6.852C575.831,162.505,576.879,166.252,577.141,169.828z M374.545,91.839c-3.88-7.396-6.073-15.228-5.543-23.666c0.215-3.429,0.597-7.233,4.682-7.932c4.184-0.716,6.1,2.537,7.387,6.003 c0.253,0.682,0.442,1.388,0.842,2.665c1.889-2.186,2.984-4.376,5.155-5.527c2.307-1.222,4.688-1.818,7.088-0.353 c2.381,1.453,3.131,3.792,2.975,6.427c-0.19,3.209-1.634,5.975-3.405,8.565c-3.664,5.358-8.009,10.155-12.513,14.799 C378.423,95.697,376.409,95.392,374.545,91.839z M634.321,131.123c2.159,2.995,0.983,6.069-0.947,8.654 c-4.764,6.38-10.731,11.364-17.966,14.805c-2.042,0.971-3.014,0.924-3.518-1.69c-1.106-5.745-2.186-11.476-2.507-17.548 c0.398-2.854,0.376-6.004,1.78-8.881c0.835-1.711,1.696-3.397,3.928-3.525c2.36-0.136,3.967,1.342,4.556,3.222 c1.105,3.524,2.36,4.725,6.231,2.895C628.649,127.746,632.211,128.197,634.321,131.123z M190.011,63.074 c-0.249-1.976-0.056-4.137,2.057-5.196c2.164-1.084,3.84,0.244,5.293,1.643c1.233,1.186,2.284,2.561,3.512,3.963 c1.107-2.015,2.056-4.021,3.262-5.859c1.289-1.963,3.067-3.317,5.637-2.752c2.427,0.533,3.259,2.527,3.842,4.593 c0.806,2.856,0.448,5.747-0.637,8.409c-2.577,6.316-5.383,12.539-8.076,18.808c-0.833,1.94-1.96,1.638-3.094,0.39 C195.574,80.21,191.188,72.405,190.011,63.074z M275.355,86.405c-0.242-1.322-0.221-2.736-0.062-4.077 c0.212-1.785,0.881-3.417,2.855-3.98c2.119-0.605,3.657,0.46,4.815,2.025c1.101,1.488,1.975,3.144,3.033,4.864 c0.423-0.26,0.566-0.297,0.615-0.386c3.085-5.522,5.885-7.281,9.304-5.835c3.136,1.327,4.064,5.367,1.995,10.977 c-2.331,6.321-5.892,12.039-9.638,17.616c-1.255,1.868-2.692,2.125-4.011-0.035C280.226,100.965,276.764,94.107,275.355,86.405z M673.209,355.771c-0.086,2.146-0.911,3.751-1.403,4.558c0.409-0.628,1.563-2.215,3.731-3.092c0.343-0.139,1.928-0.752,4.033-0.512 c1.093,0.125,3.619,0.413,4.845,2.243c1.956,2.922-1.027,7.342-1.2,7.592c-1.642,2.369-3.949,3.394-5.047,3.865 c-7.57,3.25-15.974,5.891-19.584,6.989c-0.654-2.979-3.4-16.735,4.132-23.635c2.021-1.852,6.579-4.856,8.875-3.346 C673.376,351.606,673.235,355.133,673.209,355.771z M20.262,217.338c-7.242-3.453-14.098-7.51-18.276-14.73 c-1.329-2.296-3.181-5.063-0.933-7.559c2.3-2.553,5.051-0.634,7.55,0.325c0.562,0.216,1.111,0.466,1.837,0.772 c0.132-0.78,0.311-1.376,0.319-1.975c0.043-2.956,0.704-5.626,4.103-6.166c3.579-0.569,5.553,1.68,6.698,4.699 c2.745,7.236,3.123,14.775,2.622,22.4C24.009,217.757,22.251,218.287,20.262,217.338z M561.889,131.627 c-3.008-6.809-6.315-13.542-6.78-21.119c0.158-2.574,0.155-5.411,3.019-6.3c2.825-0.877,4.795,1.188,6.005,3.401 c1.112,2.035,1.847,1.544,3.254,0.43c2.216-1.756,4.787-2.434,7.161-0.397c2.304,1.977,2.92,4.651,1.618,7.445 c-2.796,6.002-6.654,11.346-10.775,16.485C564.506,132.672,562.903,133.923,561.889,131.627z M403.186,123.546 c-2.739-5.819-4.337-11.916-4.18-18.357c0.061-2.499,0.646-5.174,3.564-5.951c2.769-0.738,4.508,1.094,5.628,3.29 c1.172,2.298,1.996,0.637,3.017-0.005c2.097-1.317,4.306-1.968,6.697-0.793c1.781,0.875,2.292,2.502,2.476,4.792 c-0.259,0.876-0.518,2.229-1.048,3.466c-2.573,6.006-7.12,10.388-12.059,14.43C405.558,125.828,404.206,125.713,403.186,123.546z M28.435,347.696c-0.766,0.383-1.941-2.284-5.232-4.096c-2.625-1.446-7.208-2.775-9.668-0.445c-0.814,0.771-1.333,1.594-1.621,2.447 c-0.876,2.596,0.33,5.285,1.639,7.509c7.09,12.048,19.795,18.449,19.795,18.449c2.287,1.152,5.769,2.711,10.294,3.977 c1.776-7.027,2.349-12.969,2.528-17.172c0,0,0.331-11.941-3.3-19.258c-1.551-3.125-4.056-5.1-7.679-4.964 c-3.153,0.118-5.813,2.921-6.766,5.652C27.069,343.675,29.356,347.236,28.435,347.696z M30.103,353.537 c1.478,1.129,3.395,2.574,3.947,2.113c0.457-0.381-0.358-1.786-1.288-4.245c-1.545-4.082-2.946-7.383-1.666-10.22 c0.812-1.8,1.691-3.717,4.099-3.842c2.41-0.126,3.989,1.23,5.045,3.203c2.539,4.744,2.851,9.96,3.157,16.12 c-0.405,3.644-0.893,8.203-1.436,12.756c-0.104,0.874,0,2.395-1.61,1.513c-9.256-5.071-18.81-9.808-24.129-19.7 c-1-1.86-2.378-4.067-0.44-5.78c1.85-1.635,4.037-0.164,5.832,0.864C25.002,348.259,25.443,349.978,30.103,353.537z M642.608,303.875c-2.994-1.987-6.623-0.732-7.965-0.27c-3.932,1.354-5.951,4.421-6.586,5.489 c-1.242-7.422-4.92-12.204-8.144-12.112c-2.054,0.059-3.895,2.095-4.49,2.754c-2.098,2.322-2.663,5.028-2.977,7.178 c-1.643,11.249,1.536,21.243,2.275,23.47c1.032,3.108,2.11,5.541,2.807,7.019c12.18-4.937,19.207-11.316,22.813-15.202 c4.07-4.387,5.58-7.797,5.636-11.428C646.025,307.686,644.669,305.242,642.608,303.875z M642.744,312.325 c-0.666,3.954-4.21,8.054-6.542,10.443c-4.097,4.198-9.305,7.237-14.86,9.064c-2.352,0.773-2.502,0.079-3.439-2.16 c-0.776-1.857-1.337-3.797-1.748-5.766c-0.833-3.986-1.014-8.087-0.982-12.149c0.022-2.878,0.161-5.828,1.271-8.484 c0.451-1.079,1.091-2.128,2.074-2.761c2.886-1.855,5.385,1.454,6.183,3.881c1.322,4.021,1.611,7.983,1.476,9.911 c-0.156,2.231-0.557,3.808-0.225,3.913c0.354,0.113,1.007-1.63,3.041-4.913c1.629-2.629,2.629-3.8,3.632-4.749 c0.738-0.698,1.557-1.33,2.582-1.901C639.522,304.253,643.552,307.526,642.744,312.325z M602.577,99.208 c7.537-4.353,15.164-8.576,21.744-14.369c1.871-1.647,3.624-3.474,4.639-5.784c1.677-3.817,2.464-7.725-0.865-11.096 c-2.645-2.678-7.555-2.746-11.464-0.364c-1.346,0.82-2.578,1.828-4.232,3.016c-0.601-3.099-0.574-5.772-2.865-7.664 c-5.448-4.5-11.932-1.984-13.411,5.734c-1.885,9.837-0.486,19.525,2.596,29.011C599.466,99.992,600.652,100.32,602.577,99.208z M598.02,69.251c0.721-3.325,2.152-6.952,6.372-6.518c4.074,0.419,5.729,3.514,5.446,7.566c-0.052,0.742-0.008,1.492-0.008,1.618 c0.038,0.744,0.024,0.874,0.053,0.992c0.436,1.747-1.026,4.665,0.713,5.086c2.404,0.583,1.382-2.833,2.612-4.083 c0.864-0.879,1.456-2.033,2.348-2.876c3.267-3.088,7.952-3.723,10.509-1.522c2.525,2.174,2.361,6.849-0.622,10.505 c-4.99,6.116-11.907,9.668-18.554,13.552c-6.865,4.012-6.899,4.006-8.086-3.96C597.795,82.854,596.543,76.061,598.02,69.251z M329.092,126.899c1.601,2.49,3.371,2.281,5.163,0.421c4.226-4.388,8.454-8.803,11.778-13.937c2.205-3.407,3.657-7.097,2.316-11.296 c-1.275-3.991-4.623-5.495-8.552-4.041c-3.032,1.122-4.448,3.785-6.467,6.481c-0.443-0.748-0.649-1.048-0.807-1.372 c-1.634-3.36-3.617-7.034-7.947-5.658c-4.242,1.348-3.699,5.533-3.491,9.208C321.517,114.347,325.098,120.686,329.092,126.899z M325.534,99.774c2.265-0.461,3.452,1.643,4.205,3.53c0.78,1.952,1.324,3.998,1.964,6.005c0.263,0.826,0.437,1.803,1.556,1.775 c1.084-0.026,1.303-0.946,1.537-1.809c0.687-2.541,1.658-4.954,3.538-6.871c1.369-1.396,3.027-2.398,4.999-1.607 c2.056,0.825,2.235,2.832,2.222,4.725c-0.018,2.58-1.053,4.879-2.589,6.858c-3.193,4.113-6.549,8.099-9.801,12.166 c-1.423,1.78-2.241,1.654-3.364-0.435c-3.318-6.172-6.277-12.414-6.27-20.163C323.789,102.727,323.315,100.225,325.534,99.774z M238.419,126.752c0.902,1.284,1.755,1.209,2.626,0.058c5.856-7.735,9.837-16.36,11.528-25.897c0.515-2.905-0.746-5.849-3.91-6.88 c-3.093-1.008-5.935-0.088-7.922,2.617c-1.088,1.482-1.943,3.135-3.079,4.999c-1.383-1.618-2.512-3.094-3.8-4.415 c-3.344-3.432-6.097-2.72-7.512,1.865c-0.372,1.206-0.475,2.364-0.197,3.645C228.127,111.837,233.198,119.327,238.419,126.752z M229.628,97.882c0.525-0.316,1.064-0.311,1.207-0.306c2.589,0.099,4.521,4.901,6.147,8.939c0.8,1.987,1.372,3.74,1.777,5.122 c0.636-3.659,1.31-6.675,1.873-8.956c0.214-0.869,0.649-2.339,1.733-3.92c1.303-1.899,3.087-3.185,5.376-2.192 c2.091,0.908,2.591,3.137,2.124,5.103c-1.792,7.555-4.98,14.568-8.83,21.289c-0.835,1.458-1.627,1.171-2.472-0.032 c-4.388-6.25-8.061-12.864-10.104-20.271C227.981,100.93,228.018,98.849,229.628,97.882z M442.431,125.488 c0.61,1.006,1.794,2.821,3.529,0.943c5.052-5.471,11.207-9.853,15.594-15.996c2.241-3.138,3.782-6.405,3.57-10.344 c-0.297-5.536-4.694-8.438-9.908-6.583c-2.97,1.057-4.804,3.362-6.76,6.3c-0.574-1.176-0.84-1.725-1.109-2.272 c-2.171-4.425-6.302-7.127-9.669-5.855c-4.255,1.608-4.69,5.573-4.56,9.35C433.435,110.195,437.843,117.915,442.431,125.488z M438.342,93.546c2.898-0.679,5.29,1.089,6.586,3.807c0.905,1.898,1.475,3.953,2.284,5.901c0.393,0.947,0.288,2.569,1.822,2.393 c1.301-0.149,0.915-1.547,1.061-2.468c0.578-3.652,2.618-6.118,6.059-7.387c3.276-1.207,6.002,0.478,6.434,3.991 c0.364,2.957-0.412,5.688-2.04,8.154c-4.029,6.105-9.715,10.632-14.937,15.6c-0.678,0.645-1.339,1.237-1.985-0.032 c-3.835-7.532-8.239-14.865-8.233-24.335C435.723,97.387,435.401,94.235,438.342,93.546z M676.164,265.295 c-3.078,0.159-5.127,4.289-6.107,6.266c-3.773,7.605-2.725,17.469-1.993,22.091c4.73-0.977,8.353-2.522,10.762-3.743 c3.905-1.98,8.013-4.127,10.762-8.656c0.701-1.155,3.812-6.282,1.713-9.378c-0.915-1.35-2.438-1.755-2.832-1.859 c-2.944-0.781-6.485,1.001-8.941,4.453c1.387-3.815,0.858-7.277-1.087-8.586C677.471,265.231,676.399,265.283,676.164,265.295z M680.488,277.222c0.781-0.815,0.699-0.913,1.362-1.583c0.873-0.882,1.965-1.985,3.533-2.279c1.142-0.214,3.115-0.106,3.947,1.095 c1.25,1.805-0.789,5.055-2.298,6.647c-0.291,0.307-0.774,0.776-2.324,1.805c-3.16,2.098-5.512,3.043-9.206,4.854 c-1.085,0.532-2.69,1.337-4.632,2.382c-0.419-2.709-0.526-4.934-0.55-6.422c-0.141-8.822,2.393-12.536,2.972-13.503 c0.688-1.15,1.479-2.627,3.064-2.248c1.627,0.389,1.537,2.127,1.589,3.418c0.066,1.63-0.186,2.939-0.38,4.43 c-0.369,2.844-0.445,3.397-0.144,3.563C678.072,279.743,679.824,277.915,680.488,277.222z M161.954,126.795 c1.925,1.601,3.241,0.24,4.041-1.541c2.648-5.898,5.642-11.661,7.419-17.914c1.036-3.646,1.398-7.359,0.032-11.011 c-1.816-4.854-6.35-5.829-10.089-2.239c-2.419,2.322-3.56,5.258-3.91,9.12c-1.67-1.935-2.723-3.322-3.948-4.536 c-2.133-2.116-4.723-3.748-7.679-2.268c-2.813,1.408-2.525,4.375-2.037,6.983C147.69,113.571,154.399,120.509,161.954,126.795z M148.603,98.233c1.719-1.189,3.32-0.007,4.738,1.012c2.283,1.642,3.484,4.15,5.039,6.387c0.772,1.111,1.027,3.438,2.736,2.878 c1.427-0.468,0.223-2.408,0.344-3.173c-0.349-4.176,0.568-7.424,3.305-9.989c2.757-2.584,5.63-1.844,6.937,1.726 c1.113,3.039,0.897,6.108,0.092,9.146c-1.629,6.153-4.69,11.734-7.152,17.553c-0.506,1.195-1.262,1.965-2.494,0.792 c-6.5-6.188-12.896-12.45-14.523-21.878C147.342,101.053,147.113,99.264,148.603,98.233z M21.65,264.877 c0.599,0.342,5.366,3.066,6.551,3.743c-0.475-4.286-0.513-7.745-0.468-10.06c0.007-0.354,0.21-10.529-1.442-14.583 c-0.726-1.782-1.769-2.273-1.976-2.369c-0.479-0.222-1.035-0.33-1.675-0.288c-1.902,0.123-3.121,1.163-3.982,2.899 c-1,2.016-0.403,4.167-0.884,6.552c-1.481-0.633-2.59-1.166-3.741-1.586c-2.096-0.764-4.217-1.004-5.816,0.928 c-0.371,0.448-0.574,0.89-0.655,1.325c-0.275,1.473,0.696,3.011,1.331,3.825C12.162,259.458,19.407,263.596,21.65,264.877z M10.022,251.315c0.8-0.983,2.114-0.799,3.108-0.308c0.608,0.3,2.796,0.648,5.478,3.106c1.971,1.806,2.674,3.228,3.043,3.044 c0.49-0.245-0.297-2.979-0.787-4.683c-0.404-1.405-0.648-1.928-0.825-3.152c-0.162-1.122-0.289-2,0.005-3.043 c0.294-1.042,1.172-2.834,2.402-2.877c1.186-0.041,2.08,1.565,2.496,2.312c1.504,2.7,1.307,5.508,1.239,6.528 c-0.24,3.607-0.393,7.789-0.49,13.2c-3.529-1.922-13.085-7.323-15.195-11.38C10.192,253.475,9.426,252.047,10.022,251.315z M254.453,407.47c4.851,1.028,9.81,1.749,14.756,2.092c23.61,1.637,47.261,1.321,73.412,1.113 c25.663,1.587,53.667-0.593,81.627-3.712c6.03-0.673,11.041-3.757,15.686-7.281c3.258-2.472,2.468-6.5,2.531-10.077 c0.257-14.583-0.048-29.155-3.163-43.456c-2.269-10.42-7.728-14.457-18.373-14.027c-12.427,0.501-24.849,1.223-37.26,2.045 c-25.963,1.719-51.959,1.55-77.948,1.38c-15.667-0.103-31.308-1.763-46.996-1.101c-4.872,0.206-8.697,2.09-11.109,6.801 c-2.539,4.96-2.89,10.262-3.397,15.556c-1.15,12.006-2.552,24.034-1.759,36.106C243.022,401.469,246.79,405.846,254.453,407.47z M252.841,385.979c1.344-10.735,2.749-21.464,4.293-32.172c0.584-4.052,1.326-6.414,2.936-7.591c2.876-2.102,7.11-0.791,8.238-0.468 c11.161,3.194,58.502,6.866,86.726,3.82c21.551-2.326,43.447-2.083,64.738-6.156c0.536-0.103,2.527-0.524,4.233,0.515 c1.253,0.763,2.036,2.153,2.559,4.012c2.525,8.98,5.012,17.963,5.646,27.345c0.289,4.278-0.217,8.445-1.336,12.531 c-1.191,4.346-4.38,6.782-8.491,8.174c-10.364,3.509-21.163,4.444-31.96,4.922c-9.304,0.411-18.641,0.085-27.963,0.085 c-33.17-0.247-66.412,0.226-99.498-3.131C254.879,397.044,251.861,393.805,252.841,385.979z M409.736,522.972 c0.789,1.205,0.068,2.143-0.668,2.999c-4.487,5.221-14.953,6.751-14.953,6.751c-5.387,1.038-10.922,2.061-18.494,1.435 c-4.705-0.389-8.613-1.284-11.464-2.106c-1.321,1.939-2.734,3.205-3.724,3.968c-1.601,1.234-3.451,2.66-6.082,2.791 c-1.956,0.098-3.422-0.566-4.699-1.144c-2.595-1.175-4.415-2.933-5.615-4.445c-16.912-0.212-29.557-1.634-33.964-3.51 c-0.8-0.34-4.047-1.726-5.176-4.579c-0.418-1.056-0.524-1.965-0.084-2.49c0.56-0.667,1.812-0.459,2.147-0.411 c2.426,0.343,16.982,0.735,38.481,1.164c0.763-4.361,4.512-7.6,8.89-7.721c4.478-0.123,8.462,3.047,9.358,7.487 c3.978-0.072,7.162-0.169,9.124-0.234c11.412-0.38,23.22,2.271,34.247-0.69c0.195-0.052,1.239-0.342,2.045,0.12 C409.338,522.49,409.55,522.687,409.736,522.972z M412.788,484.529c-8.016-0.982-16.096-1.698-24.171-1.643 c-5.392,0.037-13.084-0.055-22.588-0.666c0.04-0.804,0.001-2.58-1.205-3.784c-1.064-1.061-2.579-1.223-4.527-1.43 c-1.279-0.136-2.25-0.086-2.486-0.074c-2.648,0.134-8.117,0.3-11.669,0.23c-4.531-0.089-5.986-0.563-7.458,0.662 c-1.141,0.95-1.579,2.327-1.768,3.352c-2.078,0.297-5.219,0.706-9.057,1.044c-5.131,0.452-6.881,0.239-15.965,0.778 c-5.83,0.346-11.639,0.933-17.379,2.336c-2.927,0.715-5.694,1.284-5.871,5.012c-0.172,3.63,0.918,6.11,4.671,7.892 c12.199,5.79,25.204,7.995,38.346,10.282c24.909,4.334,49.25,2.99,73.189-5.183c4.013-1.37,7.896-3.078,11.323-5.586 c3.307-2.421,3.688-6.221,3.207-9.764C418.895,484.412,415.442,484.854,412.788,484.529z M339.754,482.278 c0.359-2.193,1.294-3.021,3.381-2.987c2.854,0.047,5.709,0.012,8.564,0.012c0,0.047,0,0.094,0,0.141 c2.234,0,4.499,0.236,6.696-0.051c4.203-0.548,5.091,1.452,4.818,5.155c-0.52,7.045-1.286,7.98-8.248,8.549 c-1.977,0.161-3.959,0.365-5.939,0.364C340.928,493.456,338.44,490.313,339.754,482.278z M414.378,495.756 c-3.011,2.268-6.465,3.757-9.971,4.989c-15.037,5.286-30.683,8.517-46.481,7.574c-21.649-1.293-43.422-3.149-63.652-12.423 c-2.66-1.22-3.414-2.779-3.316-5.423c0,0,0.138-1.039,0.691-1.983c1.615-2.755,13.94-2.906,23.602-3.736 c6.307-0.542,12.662,0.089,18.991-0.053c1.035-0.023,1.758,0.032,2.259,0.43c0.723,0.575,0.81,1.55,0.859,1.961 c0.029,0.246,0.69,5.507,2.7,7.526c0.969,0.974,3.144,1.076,7.493,1.28c1.178,0.055,3.35,0.074,6.339-0.094 c8.784-0.493,8.839-0.493,11.433-8.797c0.496-1.589,1.42-1.823,2.741-1.825c15.306-0.025,30.571,0.82,45.808,2.194 c1.129,0.102,3.022,0.036,2.945,1.614C416.702,491.398,416.625,494.063,414.378,495.756z M210.471,516.075 c-2.135-9.379-3.414-18.85-1.581-28.412c1.079-5.625,4.281-9.249,7.357-8.499c4.887,1.192,4.941,5.59,5.473,9.511 c0.115,0.847,0.108,1.711,0.226,3.782c2.209-2.913,3.91-4.888,6.241-6.076c3.065-1.562,6.486-3.048,9.344-0.259 c3.005,2.933,2.876,6.815,0.85,10.348c-3.112,5.426-8.09,9.017-13.095,12.51c-3.868,2.7-7.878,5.202-11.67,8.002 C211.862,518.279,210.936,518.117,210.471,516.075z M483.414,496.447c1.637-0.23,4.808-0.585,9.196-1.404 c1.347-0.251,2.906-0.565,3.263-1.594c0.231-0.667-0.118-1.42-0.642-2.552c-0.49-1.057-1.051-1.847-1.464-2.361 c6.703-2.2,13.406-4.4,20.108-6.6c6.555,6.255,13.109,12.51,19.664,18.766c2.812-7.541,5.932-15.228,9.397-23.03 c0.684-1.539,1.373-3.065,2.066-4.577c6.222-2.292,9.206-1.759,10.777-0.74c1.67,1.082,3.587,1.728,5.333,2.683 c1.002,0.548,1.769,0.838,2.402-0.466c0.625-1.288-0.095-1.858-1.094-2.269c-2.29-0.941-4.6-1.836-7.039-2.804 c2.007-1.838,3.946-2.279,6.265-1.094c1.765,0.902,3.642,1.594,5.493,2.319c1.046,0.41,2.319,1.769,3.171,0.022 c0.895-1.837-0.984-1.894-2.005-2.345c-1.584-0.7-3.217-1.289-5.249-2.091c2.098-1.862,3.902-1.981,6.135-1.184 c2.315,0.826,4.82,1.136,7.255,1.606c0.723,0.14,1.626,0.135,1.779-0.833c0.154-0.97-0.721-1.185-1.435-1.332 c-1.704-0.35-3.417-0.66-5.133-0.941c-2.622-0.429-3.896-1.345-1.804-3.987c1.151-1.454,2.051-3.11,3.025-4.699 c0.369-0.602,0.999-1.296,0.194-1.966c-0.988-0.822-1.594-0.027-2.083,0.704c-1.519,2.275-3.096,4.519-4.462,6.885 c-1.264,2.189-3.039,2.951-5.76,2.786c1.235-2.502,2.389-4.691,3.393-6.947c0.391-0.878,1.701-2.082,0.057-2.814 c-1.316-0.586-1.504,0.944-1.917,1.742c-1.315,2.539-2.63,5.082-3.799,7.69c-0.95,2.12-2.414,3.234-5.169,3.287 c1.234-2.629,2.452-4.918,3.355-7.326c0.289-0.77,1.937-1.9,0.202-2.71c-1.531-0.715-2.173,0.577-2.698,1.777 c-1.115,2.551-2.342,5.734-2.981,6.837c-0.765,1.32-2.301,2.953-5.738,4.052c-0.084-1.81-0.329-3.346-0.585-4.548 c-0.671-3.143-1.255-5.88-3.536-7.753c-0.499-0.41-1.686-1.276-3.214-1.576c-3.521-0.69-7.645,1.866-10.357,6.315 c-0.42,1.412-0.84,2.823-1.26,4.235c-0.241-0.662-0.874-2.121-2.374-3.286c-0.264-0.205-2.442-1.841-5.41-1.453 c-1.969,0.257-3.777,1.444-5.42,3.443c-0.965,1.174-1.599,2.381-1.97,3.608c-0.7,2.314,0.25,3.635,0.833,8.729 c0.129,1.128,0.202,2.059,0.243,2.676c-6.453,2.291-12.905,4.581-19.357,6.872c-0.093-0.415-0.236-0.99-0.452-1.663 c-0.454-1.416-0.681-2.124-0.951-2.314c-1.848-1.298-10.149,7.941-10.996,8.89c-4.661,5.227-4.38,6.065-4.211,6.317 C476.943,498.151,478.599,497.125,483.414,496.447z M517.589,464.4c0.766-0.407,1.514-0.589,2.231-0.595 c1.704-0.016,2.928,1.025,4.459,2.355c0.852,0.74,2.045,1.925,3.178,3.66c0.328-1.259,0.925-3.032,2.07-4.933 c0.768-1.275,4.219-7.246,7.974-6.376c4.857,1.126,3.952,6.224,4.789,10.358c-1.711,8.78-5.044,17.319-8.791,25.724 c-0.485,1.087-1.084,1.325-1.927,0.461c-5.432-5.565-12.356-9.702-16.125-16.86c-1.12-2.127-1.737-4.412-1.885-6.771 C513.365,468.269,514.865,465.846,517.589,464.4z M190.312,400.096c3.247,0.745,4.05,3.405,4.299,6.259 c0.286,3.279-0.559,6.428-1.51,9.516c-1.792,5.819-3.717,11.596-5.532,17.408c-0.446,1.427-0.881,2.432-2.472,1.079 c-6.756-5.743-13.331-11.64-16.486-20.293c-0.505-1.386-0.876-2.855-1.058-4.317c-0.225-1.799,0.148-3.534,1.876-4.546 c1.658-0.97,3.464-0.839,4.95,0.226c1.978,1.417,3.753,3.116,5.966,4.991c0.618-2.622,1.331-4.965,2.692-7.039 C184.786,400.715,187.142,399.369,190.312,400.096z M575.197,529.082c6.927-22.11,12.742-44.505,15.945-67.466 c2.784-19.956,3.81-40.103,5.524-60.174c0.677-7.922,0.84-15.909,2.904-23.653c0.165-0.617,0.432-2.067,0.899-2.082 c0.399-0.013,0.751,1.022,0.945,1.706c-2.192,26.383-3.811,52.83-6.742,79.13c-2.788,25.018-8.84,49.446-16.859,73.341 c-0.407,1.212-0.481,3.396-2.116,2.988C573.649,532.36,574.792,530.375,575.197,529.082z M106.469,375.512 c0,0-0.622-7.239,0.365-22.719c0.059-0.923,0.164-2.326,0.327-2.328c0.34-0.005,0.693,6.068,0.819,8.228 c0.09,1.551,2.078,35.392,2.084,35.567c0.904,26.334,8.265,52.118,9.25,57.005c2.896,14.377,6.093,28.694,9.075,43.054 c0.293,1.413,1.541,3.734-0.402,4.2c-1.959,0.469-1.999-2.164-2.31-3.577c-4.898-22.214-9.472-44.494-13.64-66.86 C108.795,410.688,106.653,393.209,106.469,375.512z M126.113,420.075c4.24-31.118,13.979-60.377,35.805-84.516 c4.652-5.145,10.426-8.832,16.756-11.629c0.898-0.397,1.892-0.703,2.862-0.777c1.024-0.078,2.502-0.657,2.941,0.718 c0.447,1.4-1.055,1.928-1.994,2.26c-19.584,6.935-29.021,23.329-37.394,40.495c-7.844,16.081-13.053,33.035-14.951,50.916 c-0.13,1.226-0.489,2.441-0.86,3.624c-0.328,1.049-0.692,2.443-2.099,2.173C125.684,423.052,126.191,421.595,126.113,420.075z M535.895,334.11c-0.414-0.472-0.706-1.087-0.207-1.669c0.499-0.583,1.177-0.428,1.676-0.046c1.183,0.904,2.328,1.864,3.437,2.858 c19.369,17.365,29.218,39.845,34.641,64.672c1.325,6.065,2.423,12.179,3.521,17.74c-0.153,1.624,0.239,3.163-1.383,3.136 c-1.583-0.026-1.621-1.691-1.89-2.838c-2.358-10.048-4.378-20.184-7.051-30.147c-5.404-20.149-15.737-37.47-30.886-51.87 C537.121,335.346,536.467,334.763,535.895,334.11z M311.825,469.821c-1.26-0.16-3.523,0.252-3.437-1.319 c0.096-1.758,2.282-0.919,3.456-0.812c15.121,1.375,30.259,1.859,45.411,0.779c9.53-0.68,19.037-1.681,28.563-2.437 c1.294-0.103,3.473-1.291,3.751,0.882c0.244,1.904-2.094,1.894-3.422,2.027c-9.633,0.969-19.28,1.791-28.923,2.66 C342.021,472.419,326.9,471.743,311.825,469.821z M366.192,541.692c0.515,1.674-1.344,1.816-2.395,2.182 c-6.814,2.371-13.638,1.83-20.441-0.12c-0.718-0.206-1.665-0.476-1.581-1.3c0.129-1.265,1.278-0.847,2.074-0.802 c1.729,0.097,3.454,0.265,4.326,0.335c5.576,0.964,10.208,0.541,14.792-0.832C364.072,540.825,365.699,540.09,366.192,541.692z M603.718,363.996c1.924-4.343,4.109-8.482,8.778-10.546c0.799-0.353,1.684-0.836,2.343,0.058c0.513,0.696,0.173,1.564-0.541,1.882 c-4.238,1.889-6.418,5.634-8.608,9.375c-0.311,0.532-0.461,1.158-0.539,1.359C603.305,365.452,603.406,364.7,603.718,363.996z M92.888,342.646c0.243-0.322,0.776-0.426,1.179-0.629c2.918,1.438,5.688,2.778,8.43,4.174c0.561,0.285,1.038,0.909,0.557,1.491 c-0.32,0.388-1.102,0.73-1.558,0.616c-3.03-0.756-5.659-2.391-8.255-4.057C92.67,343.875,92.458,343.216,92.888,342.646z M324.659,579.425c0.397,0.562,0.289,1.378,0.004,2.187c-111.275-1.636-190.677-2.748-196.792-2.653 c-1.075,0.017-6.779,0.194-6.593-1.19c0.351-2.61,4.185-1.136,6.428-1.113c10.555,0.109,184.179,3.73,193.103,2.207 C321.281,578.783,323.838,578.262,324.659,579.425z M586.108,582.704c0.078,2.478-2.663,1.487-4.171,1.495 c-20.03,0.1-40.062,0.148-60.092,0.126c-43.049-0.049-86.099-0.127-129.148-0.289c-1.53-0.006-4.026,0.798-4.976-0.265 c-0.076-0.085-0.516-0.587-0.378-1.045c0.358-1.187,4.267-0.977,5.186-0.94c4.871,0.194,41.652,0.13,94.049-0.052 c0-0.163,0-0.326,0.001-0.489c31.598,0,63.196,0,94.794,0c0.124,0,0.252-0.02,0.373,0 C583.335,581.501,586.037,580.459,586.108,582.704z M455.442,178.583c-3.684-4.505-6.78-9.494-10.083-14.304 c-0.601-0.875-1.437-2.189-0.195-2.936c1.149-0.691,1.561,0.789,2.103,1.543c5.292,7.359,10.635,14.676,16.055,21.944 c11.006,14.757,17.501,31.37,18.441,49.968c0.188,0.826,0.201,1.914-0.877,2.008c-1.02,0.09-1.394-0.998-1.556-1.828 c-1.002-5.111-1.844-10.254-2.91-15.351C473.163,204.046,465.416,190.778,455.442,178.583z M411.042,188.886 c0.003-9.54,2.304-16.132,4.46-22.747c0.319-0.978,0.685-2.552,2.154-1.87c1.164,0.54,0.357,1.76-0.038,2.627 c-7.392,16.222-4.736,31.071,5.585,45.223c7.115,9.756,13.83,19.858,14.964,32.443c0.114,1.264,1.013,3.124-0.814,3.447 c-1.423,0.252-1.627-1.644-1.776-2.823c-1.516-12.011-7.577-21.959-14.281-31.614C415.608,205.379,411.345,196.66,411.042,188.886z M438.778,288.904c0.874,6.538,0.673,7.031,0.478,7.089c-0.619,0.185-2.384-3.646-3.524-6.731 c-2.267-6.134-2.275-10.927-2.961-13.089c-2.363-7.454-6.499-13.977-11.805-19.714c-6.883-7.441-11.9-15.894-14.586-25.724 c-0.941-3.443-1.017-6.878-0.692-10.361c0.095-1.014-0.053-2.622,1.503-2.412c0.263,0.035,0.449,0.126,0.578,0.257 c0.585,0.591,0.212,2.167,0.18,2.296c-0.507,2.039,1.807,16.122,11.423,30.319c5.793,8.551,8.312,8.494,13.153,17.147 c2.263,4.045,3.936,8.251,4.996,12.637C437.918,282.248,438.186,284.471,438.778,288.904z M482.783,287.987 c0.014,0.95,0.347,2.283-0.979,2.462c-1.289,0.174-1.5-1.152-1.628-2.097c-1.044-7.691-4.704-14.411-8.18-21.11 c-6.454-12.438-8.135-25.735-7.832-39.426c0.111-5.046,0.758-10.078-0.198-15.203c2.321,1.788,2.322,4.237,2.413,6.637 c0.241,6.333,0.404,12.669,0.675,19c0.54,12.617,5.425,23.885,10.895,34.981C480.253,277.906,482.705,282.57,482.783,287.987z M480.891,328.808c0.392,1.074,1.39,2.592-0.188,3.201c-1.455,0.561-1.972-1.133-2.52-2.192c-2.436-4.707-3.853-9.853-4.207-15.001 c-0.651-9.474-5.305-16.914-10.675-24.147c-5.255-7.079-8.832-14.957-11.314-23.369c-0.255-0.864-1.092-1.779,0.007-2.682 c1.159,0.013,1.378,0.972,1.634,1.744c3.532,10.665,9.644,19.874,16.373,28.693c3.121,4.091,4.962,8.643,5.618,13.614 C476.536,315.624,478.498,322.259,480.891,328.808z M449.514,228.222c0.197,1.341,1.288,3.522-0.506,3.952 c-1.912,0.458-1.827-1.977-2.066-3.254c-1.949-10.414-5.632-19.965-12.45-28.299c-2.776-3.394-3.917-7.731-3.432-12.28 c0.155-1.455,0.116-3.873,1.531-3.747c2.07,0.184,0.489,2.358,0.716,3.405c-0.345,5.232,1.423,9.504,4.601,13.229 C444.569,209.034,448.045,218.205,449.514,228.222z M401.863,181.657c-1.455,6.622-3.255,13.114-3.868,19.928 c-0.34,3.775,0.62,7.407,0.267,11.113c-0.07,0.737-0.059,1.655-0.978,1.72c-0.338,0.024-0.978-0.767-1.073-1.264 C394.075,201.934,396.358,191.484,401.863,181.657z M443.024,180.572c-2.265-7.445-5.906-11.074-5.392-11.429 c0.666-0.461,5.487,6.519,7.934,10.478c0,0,2.606,4.266,1.623,6.013c-0.17,0.302-0.443,0.565-0.849,0.777 c-0.12,0.063-0.236,0.09-0.348,0.085C444.858,186.447,443.024,180.572,443.024,180.572z M409.783,205.525 c6.021,9.317,13.791,17.707,15.466,29.331C421.477,224.345,414.189,215.7,409.783,205.525z M493.069,290.795 c-1.224-8.937-2.943-17.707-8.299-25.286C490.854,270.219,495.172,283.555,493.069,290.795z M439.191,302.868 c2.482,9.257,5.373,18.32,12.111,25.566C445.038,325.902,438.133,311.292,439.191,302.868z M444.836,199.019 c-2.354-8.475-9.344-14.622-11.291-23.281C437.413,183.458,444.289,189.634,444.836,199.019z M394.244,223.301 c1.14,9.136,2.645,17.082,7.284,24.079C396.223,243.888,391.917,230.257,394.244,223.301z M412.702,161.551 c-2.942,5.078-5.81,10.139-8.402,15.36C404.92,170.636,408.349,165.818,412.702,161.551z M285.175,268.853 c-0.112-1.496-0.084-2.438,0.942-2.75c1.009-0.308,1.677,0.385,2.038,1.216c2.373,5.46,4.733,10.926,7.027,16.419 c0.392,0.94,0.339,2.038-0.786,2.574c-0.984,0.469-1.736-0.179-2.184-0.918C288.976,280.05,286.808,274.256,285.175,268.853z M273.086,266.702c-0.29-1.087-0.857-2.485,0.902-2.981c1.086,0.193,1.45,1.026,1.849,1.777c2.323,4.372,4.654,8.74,6.916,13.144 c0.729,1.418,1.684,3.185-0.269,4.224c-1.899,1.01-2.939-0.645-3.724-2.072C276.302,276.329,274.4,271.626,273.086,266.702z M188.583,272.846c-2.604,5.601-5.306,11.156-8.016,16.707c-0.332,0.679-0.974,1.173-1.821,0.89 c-0.897-0.299-1.013-1.144-0.775-1.835c2.107-6.104,5.27-11.695,8.52-17.238c0.168-0.286,0.577-0.431,0.861-0.633 C188.877,270.833,189.006,271.936,188.583,272.846z M198.929,271.328c-0.895,4.641-1.768,9.292-3.73,13.641 c-0.378,0.838-0.975,1.587-1.976,1.371c-1.262-0.273-1.244-1.364-1.104-3.236c1.121-3.603,2.47-7.998,3.868-12.378 c0.278-0.87,0.904-1.627,1.909-1.461C199.01,269.449,199.102,270.429,198.929,271.328z M82.065,574.86 c0.04,2.033-1.834,1.581-3.111,1.589c-5.585,0.037-11.17,0.016-18.425,0.016c-8.369-0.434-18.401-0.949-28.432-1.481 c-1.202-0.064-3.01,0.099-2.917-1.468c0.103-1.743,1.984-0.984,3.053-0.968c15.629,0.235,31.256,0.534,46.884,0.857 C80.279,573.43,82.032,573.183,82.065,574.86z M684.093,583.071c0.053,1.8-1.656,1.513-2.812,1.472 c-13.26-0.47-26.518-0.976-39.775-1.508c-0.933-0.037-2.455,0.121-2.489-1.027c-0.012-0.415,0.087-0.694,0.256-0.88 c0.565-0.619,2.189-0.324,2.349-0.291c1.863,0.379,9.097,0.677,20.09,0.932c6.57,0,13.139-0.011,19.709,0.011 C682.504,581.782,684.05,581.63,684.093,583.071z M104.006,501.053c-1.851,3.319-4.662,5.074-9.446,4.819 c-0.21-0.054-1.352-0.189-2.346-0.647c-1.386-0.639-3.735-1.209-2.926-3.099c0.758-1.772,2.327,0.222,3.465,0.546 c3.88,1.106,6.806-0.025,9.107-3.225c0.571-0.794,1.386-1.905,2.391-1.287C105.61,498.995,104.498,500.172,104.006,501.053z M622.174,509.396c-1.646,1.442-3.716,1.854-5.381,2.104c-4.57-0.08-7.475-2.061-9.163-5.788c-0.313-0.692-1.046-1.636,0.039-2.281 c0.773-0.46,1.466,0.094,1.89,0.715c3.053,4.478,6.916,5.711,11.829,3.103c0.576-0.306,1.359-0.206,1.439,0.576 C622.879,508.332,622.568,509.052,622.174,509.396z M237.949,254.747c0-1.639,1.927-0.978,3.052-1.13 c4.184-0.564,8.251-1.443,11.994-3.555c0.994-0.561,2.616-1.371,3.333-0.039c0.827,1.535-0.989,2.019-1.986,2.501 c-4.146,2.003-8.529,3.226-13.105,3.642C240.021,255.799,237.948,256.67,237.949,254.747z M398.783,281.868 c-0.694-5.614-1.388-11.229-2.082-16.843c2.698,5.355,3.31,11.013,3.318,16.761C399.607,281.814,399.195,281.841,398.783,281.868z M386.167,370.938c-1.566-3.853-1.695-7.61,2.078-10.368c3.115-2.277,8.602-1.524,11.682,1.481c1.134,1.106,2.077,2.406,3.119,3.63 c1.475-2.202,2.704-4.371,4.257-6.277c2.422-2.972,5.394-5.06,9.383-3.011c3.971,2.039,4.563,5.74,3.689,9.611 c-1.353,5.995-3.967,11.481-7.69,16.399c-0.898,1.186-1.888,2.306-2.87,3.426c-5.395,6.148-5.472,6.226-11.681,0.596 C393.245,381.99,388.71,377.194,386.167,370.938z M325.756,369.607c-0.41-3.494-0.314-6.936,3.336-8.689 c3.776-1.814,7.33-0.944,10.134,2.15c1.38,1.523,2.417,3.355,3.768,5.273c1.731-2.638,3.023-5.514,5.473-7.483 c2.463-1.979,5.251-3.102,8.264-1.679c2.848,1.345,2.325,4.241,2.005,6.616c-1.3,9.625-6.824,17.139-12.675,24.434 c-1.151,1.435-2.41,0.807-3.495-0.285c-4.636-4.665-9.316-9.288-13.882-14.02C327.024,374.203,326.041,372.04,325.756,369.607z M261.16,369.098c-0.098-3.698,0.875-6.645,4.635-8.05c3.708-1.386,5.417,1.454,7.438,3.57c0.592,0.62,1.029,1.388,2.021,2.754 c0.988-3.427,2.647-5.676,4.961-7.456c2.224-1.71,4.674-2.56,7.291-1.244c2.472,1.243,3.338,3.669,3.304,6.273 c-0.082,6.234-1.986,12.006-5.056,17.363c-5.442,9.495-5.417,9.355-14.333,3.115C265.632,381.371,261.357,376.605,261.16,369.098z M300.77,373.252c0.077-0.896,1.026-0.967,1.737-1.032c2.586-0.238,5.177-0.418,7.903-0.63c1.511,0.547,4.558-0.958,4.602,1.262 c0.044,2.223-2.966,1.149-4.655,1.312c-2.578,0.248-5.173,0.359-7.764,0.401C301.803,374.577,300.665,374.469,300.77,373.252z M367.6,373.139c-0.139-1.388,1.246-1.355,2.136-1.428c3.192-0.262,6.419-0.058,9.22-0.839c1.347,0.3,3.03-0.482,3.061,1.117 c0.028,1.485-1.686,1.084-2.684,1.186c-3.193,0.326-6.397,0.549-9.601,0.753C368.937,373.978,367.72,374.332,367.6,373.139z M410.134,492.081c0.479,1.153-1.114,1.393-1.953,1.775c-12.706,5.773-26.046,8.913-39.971,9.715 c-14.425,0.831-28.85,1.509-43.111-1.556c-8.284-1.78-16.266-4.585-24.018-8.02c-0.969-0.429-2.119-0.711-2.108-2.54 c4.629,1.619,9.051,3.06,13.395,4.706c12.912,4.892,26.369,6.132,39.999,5.786c11.791-0.299,23.636-0.365,35.215-3.118 c6.785-1.614,13.384-3.818,19.772-6.644C408.239,491.794,409.517,490.597,410.134,492.081z M344.366,488.407 c0.258-1.189,1.427-0.839,2.174-0.611c3.395,1.038,7.168,1.4,10.575,0.239c1.956-0.666,4.97,0.213,2.109,2.053 c-1.797,1.156-3.868,0.542-6.395,0.948c-1.886-0.293-4.337-0.613-6.76-1.086C345.299,489.8,344.12,489.541,344.366,488.407z M524.633,477.169c-0.144-0.837,0.475-1.412,1.216-1.625c2.365-0.68,4.752-1.283,6.888-1.852c1.067,0.186,2.272-0.328,2.481,0.804 c0.19,1.032-0.966,1.326-1.742,1.564c-2.236,0.684-4.494,1.312-6.77,1.843C525.967,478.076,524.859,478.483,524.633,477.169z"/></g></svg>