<?xml version="1.0" encoding="UTF-8" standalone="no"?><svg xmlns="http://www.w3.org/2000/svg" xmlns:xlink="http://www.w3.org/1999/xlink" fill="#467221" height="423.3" preserveAspectRatio="xMidYMid meet" version="1" viewBox="0.0 0.0 761.4 423.3" width="761.4" zoomAndPan="magnify"><g id="change1_1"><path d="M165.3,283.62s38.75,211.81-1.72,211.81-20.67-156.7-20.67-156.7l-43,9.47S124,476.49,97.28,477.35,45.62,346.48,80.92,277.59l-63,6.11S10.94,336.1,4,344.58c0,0,27-23.89,37.76-25.43,0,0-21.58,181.1,47,184.18,0,0,30,5.88,34.34-40.62,0,0,.86,58.55,43.05,56s47.36-217.84,43.05-246.25Z" transform="translate(-4 -167.73)"/></g><g id="change1_2"><path d="M510.7,296.73c8.22,0,14.89-9.89,14.89-22.1s-6.67-22.09-14.89-22.09-14.89,9.89-14.89,22.09S502.48,296.73,510.7,296.73Z" transform="translate(-4 -167.73)"/></g><g id="change1_3"><path d="M741.09,393.43l-10.37-.38s25.29,26.33-25.56,69.32q-.37-6.81-1-14c-6.35-28.78,4.94-135.86,4.94-135.86l-31.27,1.53a271.16,271.16,0,0,1,2.29,28.24c-5.19-15.86-12.75-25.35-20.74-26.87-14.14-2.7-28.39,11.39-33.78,51.78a193.85,193.85,0,0,0-.48,41.48c-1.33,13.3-4.56,33.17-12,32.33-19.32-2.2,20-120.79-15.48-127.53-22.31-4.24-35.86,64.4-35.86,64.4l6.42-54.53L539,331.55s.62,21.46,1,48.12c-.93,12.33-4.61,46.85-16.83,46.24-14.87-.74,4.2-112.43,4.2-112.43L495.58,322c-.64,22.56-1.82,43.76-2.26,62.28-3.2,21.5-10,59.6-18.24,59.69-14.52.17.39-191.45.39-191.45l-31.27,1.53c6.44,22.07,4.56,69.25,4.56,69.25,0,4.24-.1,8.94-.22,13.95-5.13-19.72-13.59-31.58-22.61-33.3-14.13-2.69-28.38,11.39-33.77,51.79a174.29,174.29,0,0,0-1.33,25.63h0s-5.62,71-17.06,71.4c-9.27.32,5-178.73,5-178.73l-35.81,6.35c6.73,18.18,8.69,54.35,8.69,54.35,0,4.25-.1,8.95-.22,13.95-5.12-19.71-13.59-31.58-22.61-33.29-14.13-2.7-28.38,11.39-33.77,51.78a172.29,172.29,0,0,0-1.35,23.91h0c0,17.58-11.8,81.41-30.11,78.76-11.66,0-17.16-32.89-18.15-68.46,19.23,8.81,38.55-14.16,39.69-44.39,1.51-40-12.47-51.57-30.07-51.57-26.78,0-39.45,48.52-38,95.28,1.39,44.79,14,88,41.65,87.95,21.47,0,32.8-35.94,38.2-62.19,4.5,25.5,13.61,46.69,26.54,47.8,20.17,1.73,27.6-39,27.6-39s-2.69,47.12,20.2,46.45c12.93-.38,20.3-31.93,24.27-59.31,4.86,22.11,13.42,39.45,25.08,40.45,20.16,1.73,27.6-39,27.6-39s-2.69,47.12,20.2,46.45c11.13-.33,19.87-23.74,25.91-47.71,2.25,19.9,8.33,31.63,22.41,30.87,11-.59,18.7-19.86,23.69-39.14.1,24.34-.19,47.55-1.41,59.18h26.39S561,439.51,562.69,404c1.24-26.11,17.1-74.27,24-60.67,5.52,10.83,1.07,31.73-2.14,63.82s-2.31,63.12,18.9,61.32c13.35-1.13,20.62-21.09,24.48-39.09,4.66,24.2,13.56,43.85,26,44.92,20.17,1.73,27.6-39,27.6-39a113.53,113.53,0,0,0,.22,13.13s1,13.65.75,31.07c-62.1,46.74-60.16,90.55-31.69,101.06,28.29,10.43,56.51-25.42,54.77-106.14l0,0C765.45,428.62,741.09,393.43,741.09,393.43ZM258.12,314c4.35.22,5.58,8.88,5.58,40.4,0,40.41-13,41.1-18.44,39.61C244.84,354.15,249.88,313.57,258.12,314Zm71.65,133.66c-18.21-1.12-12.68-116.69,3.29-115,11.53,1.21,15.21,35.53,16.36,54.5C346.78,418.76,341.21,448.35,329.77,447.65Zm97.14-11.45c-18.2-1.12-12.67-116.69,3.3-115,11.53,1.22,15.21,35.53,16.36,54.5C443.93,407.31,438.35,436.91,426.91,436.2Zm233.43,11.45c-18.21-1.12-12.67-116.69,3.29-115,10.48,1.1,14.47,29.5,16,48.92C677.56,416.7,671.18,448.32,660.34,447.65Zm-2.71,104.86C638.46,554.85,640.7,531.42,682,494,680.33,521,674.58,550.45,657.63,552.51Z" transform="translate(-4 -167.73)"/></g><g id="change1_4"><path d="M281.91 25.99L286.65 25.99 286.65 13.92 303.2 13.26 303.2 76.51 297.77 76.51 297.77 81.25 318.11 81.25 318.11 76.51 312.68 76.51 312.68 12.88 328.44 12.25 328.44 21.63 333.18 21.63 333.18 7.31 281.91 9.37 281.91 25.99z"/></g><g id="change1_5"><path d="M365.07 13.08L370.5 13.08 370.5 47.89 350.68 49.19 350.68 19.17 357.03 19.17 357.03 14.43 336.7 14.43 336.7 19.17 341.2 19.17 341.2 86.95 335.77 86.95 335.77 91.69 356.11 91.69 356.11 86.95 350.68 86.95 350.68 53.94 370.5 52.64 370.5 88.2 365.07 88.2 365.07 92.94 385.4 92.94 385.4 88.2 379.98 88.2 379.98 13.08 385.4 13.08 385.4 8.34 365.07 8.34 365.07 13.08z"/></g><g id="change1_6"><path d="M391.64 74.46L391.64 79.2 435.12 79.2 433.53 55.38 428.8 55.7 430.05 74.46 404.93 74.46 404.93 32.62 418.49 32.62 418.49 43.03 423.23 43.03 423.23 18.25 418.49 18.25 418.49 27.88 404.93 27.88 404.93 4.74 428.6 4.74 427.67 16.45 432.4 16.82 433.73 0 390.22 0 390.22 4.74 395.44 4.74 395.44 74.46 391.64 74.46z"/></g><g id="change1_7"><path d="M387.86 319.67L388.44 324.37 395.44 323.5 395.44 404.08 391.89 404.08 391.89 408.82 412.23 408.82 412.23 404.08 404.93 404.08 404.93 358.85 415.32 357.81 415.32 364.98 420.06 364.98 420.06 344 415.32 344 415.32 353.05 404.93 354.08 404.93 322.33 426.42 319.67 426.42 330.49 431.16 330.49 431.16 314.31 387.86 319.67z"/></g><g id="change1_8"><path d="M367.23,490.94c-15.48,0-24.35,15.21-24.35,41.73,0,25,9.78,41.73,24.35,41.73s24.35-16.77,24.35-41.73C391.58,506.15,382.7,490.94,367.23,490.94Zm0,78.71c-9.74,0-14.87-15.2-14.87-37,0-11.12-.17-37,14.87-37,13,0,14.87,25.86,14.87,37C382.1,554.45,376.34,569.65,367.23,569.65Z" transform="translate(-4 -167.73)"/></g><g id="change1_9"><path d="M241.6,194.35s3,29.06,19.31,29.06c-4.65.88-16.07,10-15.86,34.89-1.57-14.06-5.46-29.16-20.16-32C224.89,226.32,240.87,222,241.6,194.35Zm306.1,24.93c11.47,2.19,14.5,14,15.72,24.93-.16-19.41,8.74-26.52,12.37-27.2-12.71,0-15.06-22.66-15.06-22.66C560.17,215.88,547.7,219.28,547.7,219.28ZM280.87,516.22c11.47,2.19,14.5,14,15.72,24.93-.16-19.42,8.74-26.52,12.37-27.2-12.71,0-15.06-22.67-15.06-22.67C293.34,512.82,280.87,516.22,280.87,516.22Zm186.85,24.93c15.19,2.91,19.21,18.51,20.83,33-.22-25.72,11.58-35.13,16.38-36-16.84,0-19.94-30-19.94-30C484.24,536.65,467.72,541.15,467.72,541.15ZM455.59,556.8a4.23,4.23,0,1,0,4.23,4.23A4.23,4.23,0,0,0,455.59,556.8Zm69.78-58.59a5,5,0,1,0,5,5A5,5,0,0,0,525.37,498.21Zm-256.08,5a4.23,4.23,0,1,0,4.23,4.23A4.23,4.23,0,0,0,269.29,503.17Zm6.77-237.51a6.77,6.77,0,1,0,6.77,6.77A6.77,6.77,0,0,0,276.06,265.66ZM215.9,194.35a6.48,6.48,0,1,0,6.48,6.47A6.48,6.48,0,0,0,215.9,194.35Zm288.12,0a6.48,6.48,0,1,0,6.48,6.47A6.47,6.47,0,0,0,504,194.35Zm71.77,64.83a6.48,6.48,0,1,0,6.48,6.48A6.48,6.48,0,0,0,575.79,259.18Z" transform="translate(-4 -167.73)"/></g></svg>