<?xml version="1.0" encoding="UTF-8" standalone="no"?><svg xmlns="http://www.w3.org/2000/svg" xmlns:xlink="http://www.w3.org/1999/xlink" fill="#396416" height="479.4" preserveAspectRatio="xMidYMid meet" version="1" viewBox="130.2 73.0 368.4 479.4" width="368.4" zoomAndPan="magnify"><g id="change1_1"><path d="M469,136.7c-11.6-16.3-25.8-29.8-42.3-40.1c-8.5-5.4-17.7-9.9-27.1-13.5c-3.7-1.4-7.6-2.7-11.4-3.8l-3.8-0.9 c-9.8-2.6-19.9-4.3-30.1-5c-0.3,0-0.7,0-1-0.1c-1.1-0.1-2.2-0.1-3.4-0.2l-0.4,0c-0.3,0-0.6,0-0.8,0c-1.5,0-2.8-0.1-4.2-0.1l-0.1,0 c0,0-0.1,0-0.2,0c-41,0-79.5,16-108.5,44.9c-14.3,14.3-25.5,31.1-33.3,49.8c-0.1,0.1-0.1,0.3-0.1,0.5c-6.1,14.9-9.8,30.5-11,46.5 c-0.1,1.1,0.8,2.1,1.9,2.2c0.1,0,0.1,0,0.2,0c1.1,0,1.9-0.8,2-1.9c2.7-35.5,18.1-69,43.3-94.2C266.9,92.6,304.4,77,344.3,77l0.2,0 c39.2,0.1,77.6,16,105.4,43.7c28.2,28.2,43.8,65.7,43.8,105.6V399c0,39.9-15.5,77.4-43.8,105.6c-28.2,28.2-65.7,43.8-105.6,43.8 c-12.4,0-24.7-1.5-36.7-4.6l-6.2-1.5c-23.9-7-45.8-20.1-63.4-37.7c-0.4-0.4-0.8-0.8-1.2-1.2c-2.8-2.8-5.7-5.7-8.1-8.9 c-2.5-3.3-4.4-7.1-5.4-11.1c-0.7-2.5-0.9-5.1-1.1-7.7c-0.1-1.6-0.2-3.3-0.5-4.9c-0.2-1.2-0.5-2.3-0.7-3.4c-0.2-0.8-0.4-1.7-0.6-2.5 c-1.2-6.2-1.5-12.5-1-18.9c0.2-2.4,0.4-4.9,0.6-7.3l0.1-0.7c0.3-3.4,0.4-6.1,0.4-8.7c0-4.6-1-9.2-2.8-14l-0.1-0.1 c-0.3-0.7-0.6-1.5-1.3-2.3l-1-1.1l0.5,2.2c0.1,0.4,0.2,0.7,0.2,1c0.8,3.9,1.7,9,1.6,14.3c-0.1,3.1-0.4,6.2-0.8,9.3l0,0.2 c-0.3,2.6-0.6,5.6-0.9,8.6c-0.6,6.7-0.1,13.3,1.3,19.7c0.3,1.4,0.7,2.8,1,4.1c0.2,0.8,0.4,1.7,0.6,2.5c-2.4-5.2-4.9-10.5-7-16 c-2.3-6.1-3.4-12.5-3.3-18.9c0-2.5,0.1-4.4,0.2-6.2c0.2-3.5,0.5-7.1,0.7-10.5c0.4-5.6,0.6-10.1,0.5-14.4c-0.1-7.4-1.2-13.9-3.4-19.9 c0-0.1-0.1-0.2-0.1-0.3c0,0,0,0,0,0l0.2-0.3c0.2-0.3,0.5-0.7,0.7-1c1.2-1.7,2.3-3.6,3.6-5.9c2.3-4.1,3.9-8.5,5.3-12.1 c0.5-1.5,1.1-3,1.3-4.7c0,0,0-0.1,0-0.1c0-0.2,0.1-0.5-0.1-0.8l0-0.1l-0.1-0.1c-0.2-0.1-0.4-0.1-0.5-0.1c-0.3,0.1-0.4,0.3-0.4,0.4 c0,0,0,0,0,0.1l-0.1,0.1c-0.3,0.5-0.6,0.9-0.8,1.4c-2.1,4.3-4.7,8.7-8.2,13.8c-0.9,1.3-1.9,2.7-3.2,4.2c-1.7-3.4-3.7-6.8-6.1-10.2 c-0.6-0.8-1.2-1.6-1.9-2.6c-0.3-0.4-0.7-0.6-1-0.4c-0.4,0.2-0.4,0.6-0.4,0.8c0,0,0,0.1,0,0.1c-0.1,0.4,0,0.8,0.1,1.1 c0.4,1,0.6,2.1,0.9,3.2c0.1,0.3,0.1,0.7,0.2,1c0.7,3.1,0.8,6.2,0.4,9.4c-0.4,2.8-0.9,5.9-1.7,9.3l0,0.1c-0.7,0.9-1.3,1.8-1.8,2.7 c-1.6,2.5-2.9,4.9-3.9,7.4c-0.5,1.2-0.8,2.5-1.1,3.6c-0.1-0.4-0.2-0.7-0.2-1.1c-0.7-2.9-1.3-6-1.7-9c-0.2-1.6-0.5-3.2-0.8-4.8 c-0.2-1.2-0.3-2.2-0.3-3.2c0-0.6,0-1.2,0-1.8c0-0.8,0-1.7,0.1-2.6c0.2-3.5,1.1-6.8,2.9-9.9c2-3.6,4.5-6.9,7.8-10.3l0.2-0.2 c1.9-2,4-4,5.9-6.1c4-4.3,7.3-8.9,9.9-13.8c3.4-6.6,5.5-13.4,6.3-20.3c0.2-1.9,0.4-4.2,0.5-6.5c0.1-1.6,0-3.3-0.2-4.9 c0-0.2-0.1-0.3-0.2-0.4c0,0-0.1-0.1-0.1-0.1l-0.3-0.4l-0.3,0.4c-0.5,0.7-0.9,1.5-1.2,2.2c-1,2.2-2.1,4.6-3.6,6.7 c-1.7,2.5-3.8,4.9-6.9,7.6c-1.5,1.4-3.2,2.7-4.8,3.9c-0.7,0.6-1.5,1.1-2.2,1.7c-3.1,2.5-5.5,4.7-7.6,7.2c-3.4,3.9-5.7,7.9-6.9,12.2 c0.3-4.6,0.6-9.4,1.9-14c0.6-2.2,1.5-4.4,2.6-6.7c2.5-5.1,6.1-9.8,11-14.5c1.8-1.7,3.7-3.4,5.6-5.1c1.1-1,2.1-1.9,3.2-2.9 c3.7-3.4,7.1-7,10.1-10.9c3.5-4.4,5.9-9.7,7.4-16c0.3-1.4,0.8-2.6,1.4-3.6l0.4-0.7l-0.7,0.1c-0.5,0-0.8,0.3-1,0.5l-0.1,0 c-0.5,0.4-1,0.9-1.5,1.3c-1.1,0.9-2.2,1.9-3.3,2.9c-2.5,2.2-5.2,4.2-8.1,6c-3.7,2.3-6.6,4.4-9.2,6.6c-4.2,3.5-7.9,8.1-10.8,13.5 c-0.2,0.3-0.3,0.6-0.5,0.9c0.4-1.3,0.9-2.6,1.5-4c1.3-3.1,2.8-5.9,4.5-8.5c1.3-2,2.8-4,4.6-6.3c1.7-2.2,3.6-4.6,5.6-6.8 c2.7-3,5.4-6,7.9-8.9c0.5-0.6,1-1.2,1.5-1.7c2.9-3.3,6-6.6,8.8-10.1c1.8-2.3,3.4-4.5,4.9-6.8c0.8-1.2,1.5-2.4,2.3-3.6l0.4-0.7 c2-3.2,3.6-6.5,5.2-10c1.8-3.8,3.6-7.1,5.4-10.1c0.3-0.5,0.5-1,0.6-1.5l0.1-0.7l-0.6,0.2c-1.2,0.4-2.2,0.9-3.1,1.4 c-4.4,2.4-8.2,4.8-11.7,7.3c-3.4,2.4-6.5,5.4-9.7,9.1c-2.2,2.5-3.8,4.7-5.1,6.9c-2.3,3.8-4.4,8-6.1,12.4c-1.4,3.5-3,7.5-4.6,11.4 c-0.9,2-1.9,4.1-3.2,6.6c-0.2,0.4-0.5,0.9-0.7,1.3c-0.8,1.6-1.7,3.2-2.7,4.7c-0.1,0.2-0.2,0.3-0.3,0.5c0.1-0.3,0.1-0.5,0.2-0.8 c0.3-1.1,0.6-2.3,0.9-3.4c1.4-6.1,1.9-12.2,1.4-18.1c-0.5-5.1-1.6-10-3.5-14.3c-0.6-1.5-1.3-2.9-1.8-4.2c-1.2-2.6-2-5-2.7-7.2 c-0.8-2.5-1.1-5-1-7.6c0-0.3,0-0.6,0-0.8c0-0.9,0-1.8,0.2-2.7c0.1-0.3,0.1-0.6-0.1-1c0,0,0-0.1,0-0.1c0-0.2-0.1-0.5-0.5-0.6 c-0.4-0.1-0.6,0.1-0.9,0.5c-0.4,0.9-0.8,1.6-1.1,2.4c-2.3,5-3.8,9.7-4.6,14.3c-0.9,5.2-0.9,10.6,0.1,16.6c0.6,3.4,1.3,7.1,2.5,11.5 c0.7,2.7,1.4,5.5,2.1,8.3c0.3,1.4,0.7,3,1,5c1,5.1,1,10.4,0,15.8c-0.8,4.5-2,9-3.2,13.4c0-0.5,0.1-0.9,0.1-1.4 c0.1-1.1,0.2-2.3,0.2-3.5c0.3-5.3-0.3-10.8-1.8-16.1c-0.6-2.4-1.3-4.7-1.9-6.8l0-0.2c-0.7-2.4-1.4-4.9-1.9-7.3 c-0.9-4.2-0.9-8.5-0.8-11.8c0-0.3,0-0.5,0-0.9l0.1-2.1l-0.8,1.3c-0.5,0.8-0.6,1.5-0.7,2.1l0,0.1c-0.8,4.2-0.9,8.1-0.3,11.8 c0.4,2.1,0.9,4.3,1.6,6.9l0.2,0.6c0.5,1.9,1.1,3.8,1.6,5.8c1.3,5,1.9,10.2,1.9,15.4c-0.1,5-0.5,10.3-1.2,16.1c0-0.1,0-0.2,0-0.3 c-0.1-1.2-0.2-2.3-0.3-3.5c-0.6-6.4-2.4-12.6-5.2-18.3c-0.6-1.3-1.3-2.6-2-3.8c-0.5-0.9-0.9-1.7-1.4-2.6c-1.2-2.4-2.1-4.4-2.7-6.3 c-0.6-1.9-1.1-3.9-1.5-5.7c-0.5-3-0.5-5.6,0-8.1c0-0.1,0-0.2,0.1-0.2c0.1-0.4,0.2-0.8,0-1.4l-0.1-0.3l-0.3,0.1 c-1.3,0.4-2.2,1.3-3,2.4c-2.1,2.7-3.7,5.9-4.6,10c-1.1,4.7-1.2,9.6-0.3,14.5c0.8,4.3,2.3,8.5,4.4,12.4c1.6,3,3.5,6,5.9,9.7 c4.9,7.3,7.9,15.6,9.2,25.4c0.3,2.3,0.4,4.7,0.6,7c0,0.4,0,0.7,0.1,1.1c-1.8-5-4.5-9.6-8.3-14.1c-3.2-3.8-7.1-7.1-11.8-10.1 c-0.4-0.3-0.9-0.6-1.3-0.9c-2.1-1.3-4.3-2.7-6.3-4.3c-2-1.5-3.7-3.5-5.5-6.2c0-0.1-0.1-0.1-0.1-0.2c-0.1-0.1-0.1-0.2-0.2-0.3 c0-0.1-0.1-0.2-0.1-0.3c-0.1-0.3-0.4-0.9-1.1-0.7c-0.6,0.2-0.7,0.8-0.7,1.1c0,0.1,0,0.2,0,0.3c-0.2,0.9-0.4,1.9-0.4,3.1 c-0.3,6.8,1.7,12.6,5.9,17.4c1.5,1.8,3.4,3.6,5.7,5.7c1,0.9,2,1.8,3,2.6c1.1,0.9,2.2,1.9,3.3,2.9c3.4,3.1,7.8,7.3,11.5,12.5 c2.9,4.1,4.6,8.3,5.3,13c0.2,1.5,0.5,3.1,0.7,4.6c0.1,0.7,0.2,1.5,0.4,2.2c0,0,0,0,0,0c-2.5-4-5.6-7.7-9.3-11.3 c-3.2-3.1-6.8-6.1-10.9-9c-2.6-1.8-5.3-3.4-8.1-5.1c-2.8-1.6-5.9-3.5-8.6-5.7c-3.5-2.8-6.3-6.1-8.4-9.8c-0.2-0.3-0.3-0.6-0.5-0.9 c-0.4-0.7-0.8-1.3-1-2l-0.1-0.3l-0.3,0c-0.3,0-0.4,0.1-0.6,0.2c-0.2,0.2-0.2,0.5-0.1,0.6c0.1,0.6,0.1,1.2,0.2,1.7 c0.1,0.6,0.1,1.2,0.2,1.9c0.6,5.5,1.7,10.8,3.5,15.7c1.8,5.1,4.6,9.6,8.3,13.7c3.4,3.6,7.3,6.8,11.6,9.5c3.3,2,6.5,3.8,10.3,5.9 c2.4,1.3,5,2.8,7.4,4.4c2.8,1.9,5.2,4.3,7.4,6.7c0,0,0.1,0.1,0.1,0.1c0.1,0.1,0.2,0.2,0.3,0.3c1.6,1.3,2.2,3.2,2.6,5 c0.9,3.9,1.9,8,3.1,12c0.9,3,2,6,3.4,9.3c-1.3-1.7-2.4-3.2-3.4-4.7c-2.8-4.2-5.5-8.6-8-12.5c-3-4.8-6.3-9.2-9.9-13.2 c-2.1-2.3-4.5-4.5-7.6-7c-4.6-3.6-9-6.3-13.5-8.4c-4.7-2.1-9.8-3.9-15.5-5.6c-1.2-0.4-2.5-0.6-4-0.8l-0.6-0.1l0.2,0.6 c0.2,0.7,0.5,1.1,1,1.7c2.8,3,5.7,6.5,8.6,10.6c2.7,3.7,5.3,7.3,8.3,10.6l0.7,0.7c1.1,1.2,2.3,2.5,3.5,3.8c2.2,2.3,4.6,4.6,7.3,6.8 c4.1,3.5,8.4,6.7,12.6,9.8c0.7,0.6,1.5,1.1,2.2,1.7c3.7,2.8,7.5,5.7,11.4,8.6c2.9,2.2,5.6,4.5,8.1,6.7c2.6,2.3,4.9,4.3,6.9,6.3 c2.6,2.6,5.1,5.7,7.2,9c1.3,1.9,2.3,3.8,3.3,5.6c-0.5-0.7-1-1.5-1.6-2.1c-4.6-5.7-9.9-10.2-15.8-13.3c-3.5-1.9-7.5-3.6-12.4-5.5 c-3.8-1.4-7.5-3.1-11-5.1c-1.5-0.9-3.1-1.7-4.6-2.5c-0.7-0.4-1.4-0.8-2.1-1.1l-0.1,0c-0.3-0.2-0.6-0.4-1.2-0.3l-0.7,0.1l0.5,0.6 c0.9,1.1,1.7,2.4,2.4,4c3.1,7.2,7.1,12.8,12.2,17.2c4.4,3.8,9.2,7.3,14.4,10.4c1.5,0.9,2.9,1.8,4.4,2.6c2.6,1.5,5.2,3.1,7.8,4.7 c8.6,5.3,15,13.2,21.2,20.9c3.5,4.3,7.1,8.7,11,12.6c18.1,18.1,40.6,31.5,65.3,38.7l6.3,1.5c12.3,3.1,25,4.7,37.7,4.7 c41,0,79.5-16,108.5-44.9c29-29,44.9-67.5,44.9-108.5V226.4c0-10.3-1-20.5-3-30.5C490.5,174.8,481.6,154.4,469,136.7z M221.6,290.7 c-0.9,1.8-1.9,3.6-3,5.4c-1.7,2.6-3.6,4.9-5.5,7c-3.1,3.5-6.3,6.5-9.1,9l-0.6,0.5c-2.2,2-4.6,4.1-6.7,6.3c1.9-2.4,3.9-4.6,6.3-6.9 c1.4-1.4,2.8-2.7,4.2-4c1.5-1.5,3.1-3,4.7-4.5c2.4-2.3,4.4-4.6,6.2-7.1C219.2,294.3,220.5,292.5,221.6,290.7z M199.5,304.8 c2.2-2.7,4.8-5.2,8.1-7.6c1.5-1.1,3.1-2.2,4.7-3.3c1.1-0.7,2.2-1.5,3.2-2.2c-0.7,0.7-1.4,1.3-2.1,2c-2.1,1.9-4.3,3.7-6.4,5.5 c-0.9,0.8-1.7,1.5-2.6,2.3c-3.9,3.4-6.8,6.4-9.2,9.6C196.4,309,197.8,307,199.5,304.8z M193.3,318.7L193.3,318.7 c0.9-1.9,1.8-3.5,2.7-4.8c1.9-2.8,4.1-5.4,6.9-8c1.9-1.8,3.9-3.4,5.9-5c0.5-0.4,1-0.8,1.5-1.2c2.8-2.3,5.1-4.4,7.2-6.5 c-1.6,2.2-3.3,4.2-5,5.9c-2.1,2.2-4.4,4.3-6.6,6.3c-0.6,0.6-1.3,1.2-1.9,1.8c-4.7,4.4-8.3,8.4-11.1,12.5 C193,319.4,193.2,319.1,193.3,318.7z M233.3,242.1c-2.7,2.6-5.4,5.4-8.3,8.4c-1.7,1.8-3.2,3.8-4.7,5.7l-0.4,0.6 c-0.3,0.4-0.6,0.8-0.9,1.2c-0.8,1-1.6,2-2.3,3.1C220.6,253.7,226.1,247.5,233.3,242.1z M217.4,263.2c1-1.3,1.9-2.6,2.9-3.9l1.6-2.1 c1.6-2.1,3.5-4.6,5.8-6.9c0.6-0.6,1.1-1.1,1.7-1.7c1-1,2.1-2.1,3.2-3.1c-0.6,0.8-1.3,1.7-1.9,2.5l-0.7,0.9c-1.1,1.5-2.2,3.1-3.3,4.6 c-1.9,2.5-4.1,5-6.6,7.8c-1,1.1-2,2.2-3,3.3c-0.6,0.7-1.3,1.4-1.9,2.1C215.9,265.4,216.6,264.3,217.4,263.2z M210,279.3 c0.4-0.7,0.8-1.4,1.2-2.1c0.3-0.6,0.7-1.1,1-1.7c1.3-2.1,2.8-4.2,4.9-6.5c1-1.1,2.1-2.2,3.1-3.3c1.5-1.6,3.1-3.3,4.6-5 c2-2.3,4.3-5.1,6.2-8.3c1.5-2.4,3.1-4.7,4.6-7l0.6-0.8c0.1-0.2,0.2-0.3,0.4-0.5c-2.2,4.3-4.4,8.2-6.7,11.8c-1.6,2.4-3,4.6-4.6,6.7 c-2.1,2.7-4.4,5.3-6.6,7.8l-1.1,1.2c-0.9,1-1.8,2.1-2.7,3.1c-1.5,1.7-3,3.4-4.5,5.1c-1.2,1.4-2.4,2.8-3.6,4.2 C208,282.5,209.1,280.9,210,279.3z M194.9,290c0,0.9-0.1,1.7-0.1,2.6c0-0.7,0-1.4-0.1-2.1c-0.3-4.5-0.8-9.8-1.6-15.2 c-0.5-3-1-6.1-1.6-9.1l-0.1-0.8c-0.6-3.2-1.2-6.7-1.6-10.1c0,0.1,0.1,0.2,0.1,0.3c0.5,1.5,1,3,1.4,4.5c1.4,4.6,2.2,8.7,2.6,12.7 c0.3,3.4,0.6,7,0.9,10.7C194.9,285.5,194.9,287.7,194.9,290z M191.8,254c0.6,1.5,1.3,3,1.9,4.5l0,0c0.7,1.5,1.2,3.1,1.7,4.7 c1.9,6.4,2.4,13.1,1.5,20.6c-0.1,1.1-0.3,2.2-0.5,3.2c0-2.7-0.2-5.4-0.4-8.1c-0.1-1.7-0.2-3.5-0.3-5.3c-0.2-4.9-1.2-9.8-2.9-15.1 c-0.4-1.3-0.9-2.6-1.3-3.9l-0.4-1.2c-0.7-2-1.1-3.6-1.4-5.1c0-0.1,0-0.2-0.1-0.3C190.2,249.9,190.9,251.9,191.8,254z M189.8,278.4 c-0.3-1-0.5-2.1-0.8-3.1c-0.8-3-1.4-6.1-2-8.9c-1.2-5.9-1.3-12-0.2-18.4c-0.2,2.8,0,5.9,0.4,9.3c0.7,4.8,1.5,9.7,2.3,13.8 c0.9,4.8,1.6,9.9,2.3,15.3c-0.4-1.8-0.8-3.4-1.2-4.8C190.4,280.6,190.1,279.5,189.8,278.4z M173.9,327.8c-1.8-2.8-3.7-5.7-5.4-8.9 c-1.3-2.3-2.4-4.9-3.3-7.7c-2.4-7.5-2.3-15,0.2-22.3l0.1-0.2c-0.7,3.8-0.7,7.7,0,12c0.2,0.9,0.3,1.7,0.5,2.4c0.8,4,2,7.9,3.6,12.1 c1.8,4.7,3.9,9.7,6.2,15.1c0.4,0.9,0.7,1.7,1,2.6C175.9,331.2,174.9,329.5,173.9,327.8z M177.3,328.2c-1.8-4.3-3.9-9.2-5.9-14.1 c-1.6-3.9-2.8-7.9-3.6-11.9c-0.6-2.9-0.9-5.5-0.8-8.1c0-1.2,0.1-2.5,0.3-3.8c0.1,5,0.7,9.5,1.8,13.9c1.1,4.3,2.4,8.3,3.8,12 c0.7,1.8,1.6,4.1,2.6,6.5c1.5,3.5,2.7,7.1,3.8,10.8C178.6,331.5,177.9,329.8,177.3,328.2z M177.8,323c-0.9-2.2-1.7-4.1-2.4-5.9 c-1.6-3.9-3.1-8-4.3-12.2c-0.7-2.4-1.2-4.7-1.6-7c0.7,1.9,1.5,3.9,2.5,6c0.7,1.4,1.6,3.2,2.6,5c3.3,6.3,5.2,13.3,5.8,20.9 C179.6,327.6,178.8,325.4,177.8,323z M159,340.1c0.6,0.4,1.1,0.7,1.7,1.1c3.1,2,5.7,4.1,8.2,6.6c3.7,3.7,6.8,7.9,9.2,12.6 c1.4,2.7,2.3,5.7,2.8,8.9c-1.3-3.6-3-6.9-5.3-10.3c-3.2-4.7-7.1-8.9-11.7-12.9l-1-0.9c-2-1.7-4-3.4-6-5.1c-1.4-1.2-2.8-2.7-4-4.3 C154.9,337.4,157,338.8,159,340.1z M157.7,344.1c2.1,1.8,4.2,3.6,6.3,5.3l1.2,1c1.6,1.4,3,2.7,4.2,4c0.4,0.4,0.8,0.8,1.1,1.2 c-0.5-0.5-1-1-1.6-1.4c-1.5-1.3-3.1-2.6-4.6-3.9c-1.4-1.1-2.8-2.3-4.2-3.5l-0.3-0.3c-1.8-1.5-3.7-3.1-5.3-5 c-1.4-1.6-2.5-3.2-3.4-4.8C152.7,339.3,154.8,341.7,157.7,344.1z M178.6,373.2c-1.3-2.3-2.8-4.5-4.9-7c-4.1-5-8.8-9.1-12.4-12.2 c-2.2-1.9-5-4.3-7.6-7.2c-2.1-2.3-3.6-4.5-4.6-6.9c-1.2-3-1.9-6.1-2.2-9.5c0.9,5,3.1,9.4,6.5,13.2c1.7,1.9,3.6,3.5,5.5,5l0.6,0.5 c1.5,1.3,3.1,2.6,4.6,3.8c1.5,1.3,3.1,2.5,4.6,3.8c2.8,2.3,5,5.1,6.7,8.2c0.9,1.6,1.7,3.4,2.5,5.2c1,2.4,1.8,4.6,2.5,6.7 C179.8,375.6,179.2,374.4,178.6,373.2z M179.8,370.7c0.5,1.1,0.9,2.3,1.4,3.6c0.1,0.4,0.2,0.7,0.2,1 C180.9,373.7,180.4,372.2,179.8,370.7z M168.9,394.1l-0.9-0.5c-3.1-1.7-6.3-3.5-9.4-5.4c-3.7-2.3-7-4.9-10-7.9 c-4.3-4.3-7.5-9.3-9.4-15.1c-0.9-2.6-1.6-5.2-2.2-7.7c0.8,2.4,1.5,4.6,2.3,6.6c1.5,3.9,3.4,7.2,5.7,10c4.4,5.5,9.4,10.1,14.9,13.8 c2,1.3,4.1,2.6,6.1,3.9c1.4,0.9,2.8,1.7,4.2,2.6c1.5,1,2.9,1.9,4.1,2.8C172.6,396.2,170.9,395.2,168.9,394.1z M175.3,395.9 c-2.3-1.7-4.8-3.3-7.2-4.8c-1.1-0.7-2.2-1.4-3.3-2.1l-0.3-0.2c-2.2-1.4-4.5-2.9-6.6-4.6c-3.6-2.8-6.9-5.9-9.7-9.3 c-1.7-2-3-3.8-4.1-5.6c2,2.6,4.4,4.8,7,6.8c2.5,1.8,5.1,3.5,7.6,5.1c1,0.6,2,1.3,3,1.9c5.6,3.6,9.8,7.1,13.4,10.9 c1.6,1.7,3,3.5,4.2,5.2C178,398,176.7,396.9,175.3,395.9z M180,395.1c-3.1-4.1-7-7.7-12.2-11.5c-3.3-2.4-6.7-4.5-10-6.4 c-3-1.8-5.8-3.7-8.5-5.7c-0.4-0.3-0.9-0.7-1.4-1.2c-2.1-2-4-4.3-5.9-6.8c-0.8-1-1.6-2.3-2.2-3.6c0.1,0.1,0.2,0.2,0.2,0.2 c1.2,1.3,2.6,2.5,4.2,3.7c2.7,2.1,5.6,3.8,8.4,5.4c2.1,1.2,4.6,2.7,7,4.3c3.4,2.4,6.8,5.1,10,8.1c2.8,2.7,5.5,5.7,8,9 c1.6,2.1,2.9,4.4,3.8,6.7C181.1,396.6,180.6,395.8,180,395.1z M209.9,341.8c-2.4,4.8-5.5,9.3-9.5,13.6c-1.3,1.4-2.6,2.8-3.9,4.1 c-0.8,0.8-1.6,1.7-2.4,2.5c-2.3,2.4-4.9,5.4-7,9c1.6-6.3,4.4-12,8.4-16.9c2-2.5,4.2-4.8,6.1-6.7c2.8-2.9,5.1-5.6,7.2-8.3 c2.2-2.9,4.1-6,5.5-9.1C213.2,334,211.8,338,209.9,341.8z M186.9,363.4c0.4-1.5,0.8-3.1,1.4-4.7c1.3-3.5,2.6-6.2,4.2-8.5 c1.4-2,3-4,4.7-6c2.7-3,5.6-5.6,7.9-7.6c2.3-2,4.1-3.6,5.7-5.2c-1.8,3.1-3.9,6-6.1,8.6c-2.1,2.4-4.4,4.8-6.6,7.1l-0.4,0.4 c-2.7,2.8-5.1,5.9-7.2,9C189.2,358.5,188,360.8,186.9,363.4z M186,356.6c0.5-2.2,1.3-4.1,2.2-5.9c1.7-3.3,3.9-6.3,6.5-8.9 c2.6-2.6,5.5-4.8,8-6.7c2.2-1.7,5-3.9,7.5-6.7c1.5-1.6,2.7-3.1,3.8-4.8c-0.8,1.5-1.7,2.8-2.9,4.2c-2,2.3-4.3,4.4-6.6,6.5 c-4,3.6-8.1,7.4-11.6,12c-1.9,2.5-3.4,4.9-4.5,7.3c-1.6,3.5-2.9,7.2-3.7,11C184.9,361.9,185.4,359.2,186,356.6z M173.5,416 c-1.1-0.8-2.3-1.7-3.4-2.5c-1.4-1-2.9-2.1-4.3-3.1c-3.6-2.6-6.7-5.1-9.5-7.6c-1.7-1.5-3.3-3.1-5-4.6l-1-1c-1.3-1.2-2.7-2.4-4-3.6 c1.9,1.3,3.8,2.6,5.7,3.8c0.8,0.5,1.6,1,2.4,1.6c3.2,2.1,6,4.6,8.4,6.7c0.8,0.7,1.6,1.4,2.3,2.1c1.4,1.3,2.9,2.6,4.3,3.9 C170.9,413.1,172.3,414.6,173.5,416z M170.8,410.1c-1.4-1.3-2.9-2.6-4.3-3.9c-0.5-0.4-0.9-0.8-1.4-1.2l-0.7-0.6 c-2.2-1.9-4.4-3.9-6.8-5.6c-4.5-3.1-8.6-6-12.8-8.6C155.5,395,164.1,401.6,170.8,410.1z M181.1,430.1c-2.1-1.7-4.3-3.4-6.4-5 c-1.3-1-2.6-2-3.9-3c-0.5-0.4-1-0.8-1.5-1.2c-3.2-2.4-6.4-5-9.5-7.7c-2.4-2.1-4.5-4.3-6.9-6.8c-3.7-3.9-7.4-8.2-11.2-13.2 c0.5,0.4,0.9,0.8,1.4,1.3l0.8,0.8c2.3,2.3,4.7,4.7,7,7.1c3,3.2,6.3,6,9.2,8.3c2.1,1.7,4.4,3.3,6.6,4.8c1.5,1,3,2.1,4.4,3.2 c3,2.2,5.3,4.3,7.3,6.5c0.5,0.6,1.1,1.2,1.6,1.8c0.6,0.7,1.3,1.4,1.9,2.2c1.6,1.8,3.3,3.5,4.9,5.1c0.3,0.3,0.6,0.6,0.9,0.9 C185.5,433.5,183.3,431.8,181.1,430.1z M202.3,384.2C202.3,384.2,202.3,384.3,202.3,384.2c-0.1-0.1-0.1-0.3-0.2-0.5 C202.2,383.9,202.3,384.1,202.3,384.2z M199.5,385c0.1,0.7,0,1.4,0,2c0,0.1,0,0.2,0,0.3c0,0,0,0.1,0,0.1c-0.1,0.1-0.2,0.2-0.3,0.3 C199.4,386.8,199.5,385.9,199.5,385z M194.9,432.6l-1.8-4.1c-0.9-2-1.8-4.2-2.3-6.4c-0.4-2-0.8-4.3-1.1-6.9 c-0.1-0.6,0.1-1.1,0.2-1.6c0.4-1.5,1.1-3,1.9-4.6c-0.1,2.8-0.1,5.6,0.2,8.4c0.5,5.9,1.9,11.9,4,17.7 C195.7,434.2,195.3,433.4,194.9,432.6z M199.6,435.1c-0.4-1.2-0.9-2.5-1.3-3.7c-2.6-8.7-3.4-16.8-2.5-25l0,0c0.2-1.6,0.5-3.3,0.8-5 l0.2-0.3c0.2-0.3,0.4-0.6,0.6-0.8c0.3-0.4,0.6-0.8,0.8-1.1c0,0.3-0.1,0.6-0.1,1c-0.9,6.7-1,12.9-0.2,18.8c0.3,2.1,0.5,4.3,0.7,6.4 c0.4,3.5,0.8,7.1,1.4,10.7C199.8,435.6,199.7,435.4,199.6,435.1z M203.2,442.9c-0.4-1.5-0.8-3.1-1.1-4.6c-0.6-2.8-1-5.4-1.2-7.9 c-0.4-4.5-0.8-9-1.2-13c-0.4-4.8-0.3-10,0.4-15.9c0.2-1.9,0.5-3.9,0.7-5.8l0.1-0.4c0-0.1,0.1-0.1,0.1-0.2c0.2,4.3,0.2,8.7,0.2,12.8 l0,1c0,3.7,0,7.6,0.1,11.4c0.1,6.6,0.7,13.1,1.3,18.5c0.1,1.1,0.3,2.1,0.4,3.2c0.1,0.5,0.2,1,0.2,1.4L203.2,442.9z M206.5,407.8 c-0.1,3.6-0.2,7.4-0.4,11.2c-0.1,1.3-0.2,2.6-0.3,3.9c-0.1,1.4-0.2,2.8-0.3,4.1c-0.2,2.2-0.3,4.9-0.4,7.7c-0.5-7.3-0.7-14-0.7-20.6 c0-5.2,0-11.2-0.2-17.1c-0.1-2.1-0.2-4-0.5-5.9c0.2-0.3,0.4-0.6,0.6-0.8C205.9,396.2,206.6,402,206.5,407.8z M182.1,447.3 c2.1,0.9,4.2,1.7,6.3,2.7c4.4,2.1,8.2,4.4,11.3,7c2.9,2.4,5.3,4.8,7.2,7.4c-3.7-3.6-8.1-6.7-13.9-10c-1.2-0.7-2.4-1.3-3.6-2 c-2.9-1.6-5.9-3.3-8.9-5c-1.3-0.7-2.6-1.5-3.9-2.4C178.5,445.8,180.4,446.6,182.1,447.3z M196.8,467.3l-0.8-0.5 c-3.9-2.3-8.4-5-12.8-8.4c-2.7-2-5.5-4.3-8.1-6.9c-2.2-2.3-4-4.5-5.7-6.9c2,2.2,4.2,4.5,6.7,6.8c2.7,2.5,5.6,4.8,8.9,6.9 c2.2,1.4,4.4,2.8,6.5,4.2c1.9,1.2,3.9,2.5,5.8,3.7c3.4,2.2,6.5,4.5,9.3,7c0.3,0.2,0.5,0.5,0.8,0.7 C204,471.5,200.3,469.4,196.8,467.3z M194.9,461.2c-0.9-0.5-1.8-1.1-2.6-1.6c-3-1.9-6.2-3.8-9.2-5.8c-2.8-1.9-5.5-4.2-8.2-6.7 c3.1,2.2,6.7,4.3,11,6.6c0.7,0.4,1.4,0.7,2,1.1c2.7,1.4,5.4,2.8,8.1,4.4c3.8,2.3,7.1,4.9,9.9,7.8c1.4,1.4,2.7,3,4.2,5.1 c0.3,0.4,0.6,0.8,0.9,1.2c0.3,0.3,0.5,0.7,0.8,1C207.4,469.7,201.9,465.5,194.9,461.2z"/></g><g id="change1_2"><path d="M336.4,306.1c-12.9,6.2-25.9,13.4-35.1,24.8c-3.3,4.1-6.1,9-7.8,13.9c-2,5.7-2.9,11.1-2.6,16.3c0,0.8,0.1,1.5,0.2,2.3 c0.6,5.8,2.7,11.1,6.3,15.7c3.6,4.6,8.8,8.1,15.6,10.5c0.4,3.7,1.4,7.1,3.1,10.3c1.7,3.2,4.1,6,7.4,8.5c0.1,0,0.1,0,0.2,0l0.1,0 c0.1,0,0.2-0.1,0.2-0.2c0-0.1,0-0.1,0-0.1c0-0.1,0-0.1-0.1-0.2c-0.2-0.2-0.4-0.4-0.5-0.6c-0.2-0.2-0.3-0.3-0.4-0.4 c-0.1-0.1-0.2-0.1-0.2-0.2c-0.1-0.1-0.2-0.2-0.3-0.3c0-0.1-0.1-0.1-0.2-0.2c-4.1-4.8-6.3-10.1-6.7-16c7.2,1.9,14.1,2.7,20.5,2.4 c4.4-0.2,8.7-0.9,12.7-2.2c4.3-1.3,8.3-3.1,12-5.3v55.2c0,8.3-1,10.8-1.7,12c-1.4,2.3-3.4,3.8-6,4.5h63.7l5.4-18.9 c-1.4,3-2.9,5.3-4.4,7.2c-2.6,3.2-5.4,5.4-8.6,6.6c-3.1,1.2-8.3,1.9-15.7,1.9h-6.8c-8.3,0-10.5-0.5-11.4-0.9 c-1.5-0.7-2.6-1.7-3.3-3.1l0-0.1c-0.8-1.8-1.3-4.8-1.3-9.3v-62.7c1.1-1.1,2.2-2.2,3.3-3.4c2.4,2.1,5.1,4,7.8,5.5 c1.1,0.6,2.2,1.1,3.3,1.6c0.8,0.3,1.5,0.6,2.3,0.9c2.3,1,7.2,2.7,13.4,3.3c1.4,0.1,2.7,0.2,4.1,0.2c3.5,0,6.9-0.5,10-1.4 c5.5-1.6,10.4-4.5,14.6-8.7c0.3-0.3,0.3-0.8,0-1.2c-0.3-0.3-0.8-0.3-1.2,0c-7.3,7.3-16.5,10.4-27.4,9.4c-6.1-0.6-11-2.4-13.1-3.3 c-0.7-0.3-1.5-0.7-2.2-1c-3.8-1.9-7.3-4.2-10.4-7.1c4.7-5.8,7.3-10.6,7.8-14.4c0.5-3.7,0.7-6.5,0.6-8.2c-0.2-3.5-1-6.7-2.6-9.7 c-2.3-4.4-5.5-7.4-9.4-9.1c-3.9-1.7-7.8-2.5-11.6-2.3c-1.7,0.1-3.5,0.3-5.4,0.8c-0.6-3.9-1-7.9-1.2-11.9c-0.1-3-0.2-6-0.1-9.1 c5.3-2.5,10.7-5.2,16.4-8.1c5.6-2.9,11-6.1,16-9.5c5-3.4,9.3-7,12.7-10.9c3.4-4,5.4-7.5,5.9-10.4c0.5-2.9,0.7-5,0.6-6.5 c-0.1-2.3-0.6-4.5-1.6-6.5c-1.6-3.2-3.7-5.4-6.3-6.4c-2.6-1-5-1.5-7.3-1.4c-2,0.1-4.1,0.5-6.4,1.2c-6.3,2.3-11.7,5.9-16.1,10.8 c-4.4,4.9-7.9,10.7-10.6,17.3c-2.6,6.6-4.4,13.5-5.4,20.7c-0.3,0.1-0.5,0.2-0.8,0.3c-0.4,0.2-0.9,0.4-1.3,0.6 c-0.5,0.2-1,0.4-1.4,0.6c-0.3,0.1-0.8,0.4-1.4,0.6c-0.6-0.5-1.2-1-1.7-1.6c-1.7-2.2-2.5-6.8-2.5-14.6v-92.2H359 c4.7,0,8.6,0.9,11.6,2.6c3,1.8,5.4,4.5,7.2,8.1c1,2.1,1.8,5.2,2.4,9.7h0.1l-1.1-24.9h-85.6l-1.1,24.9h0.1c0.5-5,1.7-9,3.6-12.1 c2.1-3.4,4.8-5.8,7.8-7c2.3-0.9,6-1.3,11.3-1.3h14.5v92.2c0,7.1-0.6,11.4-2,13.6c-2.2,3.5-5.9,5.3-11,5.3h-2.3v0.2h25.5 c-0.1,0-0.1,0.1-0.2,0.1C338.7,305,337.6,305.6,336.4,306.1z M312.8,385.2c-6.2-3.7-10.1-7.5-11.7-11.6c-1.6-4-2.5-7.6-2.6-10.5 c-0.1-2.7,0.1-5.4,0.8-8.2c1.3-5.9,4.1-11.6,8.2-16.9c4.6-5.7,10.4-10.6,17.5-14.7c7.1-4.1,15-8.1,23.6-12.1c0.6-0.3,1.3-0.6,2-0.9 c-0.1,2.7,0,5.4,0.1,8.1c0.2,4.1,0.6,8.1,1.3,12.2c-4.1,1.3-7.8,3.1-11.2,5.6c-3.4,2.4-6.4,5.1-9.2,8.1c-5.3,5.6-9.8,12-13.3,19.3 S313,378,312.8,385.2z M370.6,373.5c0-0.8,0-1.6,0.1-2.3c0.4,0.4,0.7,0.7,1.1,1.1C371.4,372.7,371,373.1,370.6,373.5z M373.2,370.7 c-0.8-0.8-1.6-1.7-2.3-2.6c0.3-2.5,0.6-3.7,0.9-4.4c0.5-1.2,1.3-2.2,2.4-3.1c0.6-0.6,1.4-1.1,2.2-1.5c0,0,0,0,0,0 c0.1-0.1,0.2-0.1,0.3-0.2c1-0.5,2.2-0.9,3.7-1.2C379.2,361.9,376.8,366.2,373.2,370.7z M359.2,331c3.6-0.2,6.9,0.4,9.9,1.7 c4.2,1.8,7.2,4.3,9.1,7.5c1.9,3.2,2.9,6.4,3,9.7c0.1,1.5,0,3.1-0.2,4.7c-0.1,1-0.4,2.1-0.7,3.2h-16.5c-0.9-1.7-1.8-3.4-2.5-5.2 c-3-6.9-5.1-13.9-6.3-21C356.5,331.3,357.9,331.1,359.2,331z M359.3,354.5c0.5,1.1,1.1,2.2,1.7,3.3H353c2.2,0.6,4,1.8,5.4,3.4 c1,1.2,2.3,3.9,2.3,13v7.4c-2.2,1.4-4.5,2.6-6.8,3.6c-6.5,2.8-13,4.4-19.3,4.7l-1.2,0.1c-6.7,0.2-12.7-1-18-3.5 c0.3-7.3,2.2-14.6,5.7-21.8c3.5-7.2,7.6-13.5,12.3-18.9c2.1-2.6,4.8-5.1,8.1-7.6c3.2-2.5,6.8-4.4,10.8-5.8 C353.7,340.2,356,347.6,359.3,354.5z M359.2,279c2.4-6.2,5.6-11.6,9.7-16.3c4.1-4.7,9.2-8,15.3-9.9c1.8-0.5,3.4-0.8,4.9-0.9 c1.9-0.1,3.6,0.2,5.1,0.8c2.6,1.1,4.2,2.6,4.9,4.4c0.7,1.8,1,3.4,1.1,4.6c0.1,1.5-0.1,3.2-0.6,4.9c-0.8,3.1-2.7,6-5.5,8.8 c-3.5,3.3-8.5,6.8-15.1,10.4c-6.6,3.6-14.8,7.6-24.7,12.1C355.3,291.5,356.9,285.2,359.2,279z"/></g></svg>