<?xml version="1.0" encoding="UTF-8" standalone="no"?><svg xmlns="http://www.w3.org/2000/svg" xmlns:xlink="http://www.w3.org/1999/xlink" fill="#000000" height="1827.2" preserveAspectRatio="xMidYMid meet" version="1" viewBox="245.9 327.6 1960.6 1827.2" width="1960.6" zoomAndPan="magnify"><g fill="#396416" fill-rule="evenodd" id="change1_1"><path d="M 1285.027344 455.492188 C 1305.070312 447.980469 1314 404.949219 1301.058594 388.71875 C 1266.507812 383.476562 1257.890625 446.339844 1285.027344 455.492188 Z M 1301.058594 516.917969 C 1281.199219 498.222656 1253.648438 472.945312 1250.300781 444.800781 C 1244.320312 394.703125 1317.792969 327.550781 1333.113281 383.371094 C 1346.121094 430.824219 1292.898438 459.804688 1301.058594 516.917969" fill="inherit"/><path d="M 1771.171875 447.476562 C 1774.273438 447.046875 1775.933594 448.054688 1776.511719 450.144531 C 1756.800781 479.402344 1755.375 526.957031 1739.109375 559.648438 C 1709.679688 522.734375 1758.84375 477.65625 1771.171875 447.476562" fill="inherit"/><path d="M 1001.871094 573.007812 C 1027.878906 487.273438 926.179688 543.628906 1001.871094 573.007812 Z M 1055.292969 629.105469 C 1007.621094 641.90625 923.761719 554.683594 956.464844 506.230469 C 1006.121094 432.703125 1044.191406 604.050781 1055.292969 629.105469" fill="inherit"/><path d="M 2056.996094 626.429688 C 2031.578125 646.546875 2003.296875 677.667969 1979.511719 690.550781 C 1993.53125 657.363281 2023.136719 639.796875 2056.996094 626.429688" fill="inherit"/><path d="M 1397.203125 722.609375 C 1405.859375 713.40625 1405.316406 675.796875 1397.203125 666.523438 C 1393.648438 666.523438 1390.082031 666.523438 1386.5 666.523438 C 1382.957031 683.167969 1378.691406 719.550781 1397.203125 722.609375 Z M 1418.574219 639.804688 C 1438.503906 672.925781 1421.164062 736.835938 1423.910156 778.6875 C 1365.007812 787.703125 1331.851562 618.128906 1418.574219 639.804688" fill="inherit"/><path d="M 1212.894531 834.792969 C 1219.152344 814.675781 1213.402344 784.789062 1196.878906 778.695312 C 1175.933594 788.160156 1187.824219 837.9375 1212.894531 834.792969 Z M 1244.957031 893.554688 C 1201.660156 901.050781 1140.480469 794.160156 1172.832031 757.328125 C 1225.773438 697.039062 1253.25 849.785156 1244.957031 893.554688" fill="inherit"/><path d="M 844.273438 845.476562 C 837.664062 812.023438 821.542969 788.078125 801.542969 768.011719 C 701.476562 770.199219 788.246094 875.808594 844.273438 845.476562 Z M 897.703125 882.863281 C 879.765625 892.851562 877.5625 866.230469 860.308594 866.832031 C 809.382812 873.199219 731.753906 860.605469 729.425781 808.082031 C 727.597656 767.175781 778.125 729.132812 820.238281 757.332031 C 855.589844 781.023438 881.085938 855.773438 897.703125 882.863281" fill="inherit"/><path d="M 1926.097656 1708.261719 C 1904.964844 1737.339844 1921.25 1765.828125 1883.355469 1772.351562 C 1842.894531 1779.339844 1848.992188 1746.160156 1816.570312 1740.300781 C 1775.464844 1732.878906 1708.820312 1808.679688 1725.761719 1839.140625 C 1738.453125 1861.910156 1819.492188 1843.449219 1837.953125 1839.140625 C 1932.757812 1816.960938 2036.285156 1764.449219 2086.355469 1697.578125 C 2054.757812 1668.890625 1947.613281 1678.660156 1926.097656 1708.261719 Z M 1696.367188 1280.871094 C 1688.183594 1278.929688 1688.511719 1285.480469 1680.34375 1283.550781 C 1691.382812 1399.171875 1739.738281 1513.5 1789.875 1606.769531 C 1817.171875 1657.53125 1831.84375 1731.480469 1888.691406 1745.640625 C 1847.890625 1578.101562 1756.453125 1438.070312 1696.367188 1280.871094 Z M 1407.894531 1099.226562 C 1481.867188 1126.523438 1638.613281 1294.878906 1680.34375 1141.972656 C 1597.535156 1124.832031 1485.515625 1094.910156 1407.894531 1099.226562 Z M 1765.828125 976.375 C 1767.757812 962.816406 1801.882812 827.890625 1771.164062 840.125 C 1688.199219 873.164062 1616.285156 910.070312 1514.75 949.640625 C 1461.636719 970.34375 1278.78125 1016.480469 1277 1064.507812 C 1275.769531 1097.703125 1386.695312 1158.679688 1415.894531 1176.710938 C 1471.105469 1210.710938 1534.667969 1235.230469 1586.863281 1259.5 C 1667.273438 1296.921875 1755.144531 1248.710938 1739.109375 1133.957031 C 1684.265625 1181.820312 1664.664062 1269.332031 1568.167969 1216.769531 C 1498.808594 1179 1368.433594 1120.085938 1335.773438 1061.832031 C 1463.132812 1068.230469 1607.90625 1102.960938 1741.785156 1120.609375 C 1757.398438 1072.949219 1757.269531 1036.539062 1765.828125 976.375 Z M 1271.667969 1021.777344 C 1419.722656 964.140625 1602.292969 917.886719 1728.421875 829.449219 C 1553.835938 849.902344 1395.597656 932.859375 1271.667969 1021.777344 Z M 1813.90625 800.070312 C 1778.101562 930.667969 1792.902344 1100.078125 1752.480469 1227.460938 C 1747.65625 1242.621094 1730.324219 1257.511719 1728.421875 1272.859375 C 1715.992188 1373.558594 1823.359375 1490.050781 1853.976562 1566.671875 C 1868.671875 1603.441406 1881.886719 1682.609375 1915.414062 1689.558594 C 1958.824219 1698.550781 2094.65625 1626.769531 2121.085938 1684.210938 C 2137.109375 1719.050781 2012.738281 1795.03125 1971.503906 1812.421875 C 1925.429688 1831.871094 1877.535156 1851.46875 1832.605469 1860.519531 C 1793.808594 1868.308594 1712.480469 1881.128906 1701.714844 1852.5 C 1693.246094 1829.941406 1736.75 1763.210938 1757.804688 1748.332031 C 1779.964844 1732.679688 1809.960938 1736.660156 1813.90625 1713.601562 C 1821.421875 1669.679688 1746.097656 1555.609375 1725.761719 1513.25 C 1691.988281 1442.949219 1677.289062 1384.820312 1645.625 1307.582031 C 1497.339844 1288.101562 1377.621094 1149.429688 1271.667969 1091.214844 C 1233.589844 1070.289062 1233.210938 1068.609375 1239.617188 1016.429688 C 1408.8125 927.300781 1584.503906 802.296875 1813.90625 800.070312" fill="inherit"/><path d="M 1036.609375 922.941406 C 1042.648438 933.371094 1071.851562 938.441406 1082.019531 928.28125 C 1082.199219 907.511719 1040.441406 902.160156 1036.609375 922.941406 Z M 1143.460938 968.351562 C 1110.699219 944.640625 1008.808594 973.160156 1001.871094 930.941406 C 990.949219 864.378906 1173.25 911.609375 1143.460938 968.351562" fill="inherit"/><path d="M 2206.5625 920.277344 C 2192.269531 947.878906 2136.957031 971.625 2099.726562 976.363281 C 2123.039062 945.363281 2167.019531 935.035156 2206.5625 920.277344" fill="inherit"/><path d="M 555.796875 2026.109375 C 578.089844 2041.78125 781.996094 2121.039062 753.464844 2012.78125 C 740.855469 1964.910156 660.523438 1963.488281 651.960938 2020.789062 C 631.183594 2016.621094 613.316406 2009.550781 606.546875 1991.390625 C 609.894531 1979.601562 617.503906 1972.078125 617.242188 1956.671875 C 557.585938 1913.199219 497.136719 1984.949219 555.796875 2026.109375 Z M 643.929688 1980.710938 C 665.339844 1960.160156 700.195312 1915.960938 697.359375 1871.199219 C 667.621094 1895.769531 660.695312 1943.148438 643.929688 1980.710938 Z M 705.378906 1865.859375 C 711.226562 1851.230469 724.148438 1843.660156 724.089844 1823.121094 C 711.699219 1829.46875 698.566406 1849.179688 705.378906 1865.859375 Z M 726.765625 1807.101562 C 780.140625 1751.808594 818.980469 1658.921875 844.277344 1566.671875 C 771.503906 1579.980469 752.40625 1728.988281 726.765625 1807.101562 Z M 804.203125 1417.089844 C 808.726562 1486.460938 801.429688 1566.488281 911.054688 1539.980469 C 954.359375 1529.488281 1019 1457.511719 1055.289062 1425.121094 C 1140.03125 1349.5 1202.289062 1276.890625 1252.949219 1179.371094 C 1082.878906 1150.910156 925.328125 1109.878906 798.878906 1037.789062 C 739.121094 1131.578125 797.609375 1315.410156 804.203125 1417.089844 Z M 857.636719 1019.089844 C 855.855469 1019.089844 854.074219 1019.089844 852.296875 1019.089844 C 932.761719 1105.390625 1107.191406 1139.578125 1247.640625 1139.320312 C 1153.03125 1065.589844 1003.070312 1033.078125 857.636719 1019.089844 Z M 881.660156 1566.671875 C 826.527344 1657.339844 774.476562 1758.378906 729.425781 1857.839844 C 722.804688 1872.421875 693.835938 1931.238281 697.359375 1945.988281 C 707.070312 1986.570312 777.105469 1972.339844 780.183594 2020.789062 C 788.65625 2154.78125 495.058594 2068.769531 502.378906 1980.710938 C 507.34375 1921.011719 596.539062 1940.800781 627.910156 1929.96875 C 647.429688 1923.230469 652.34375 1890.421875 662.652344 1868.53125 C 699.9375 1789.210938 808.925781 1611.140625 780.183594 1515.929688 C 756.117188 1436.28125 753.863281 1287.628906 748.113281 1206.070312 C 741.886719 1117.769531 750.316406 997.890625 825.59375 995.070312 C 955.84375 990.148438 1044.480469 1036.941406 1159.46875 1067.199219 C 1192.921875 1075.96875 1291.539062 1107.539062 1298.371094 1136.621094 C 1305.199219 1165.628906 1264.019531 1193.660156 1252.949219 1208.75 C 1162.488281 1332.441406 1032.128906 1504.390625 881.660156 1566.671875" fill="inherit"/><path d="M 483.679688 1075.191406 C 449.730469 1079.421875 382.023438 1072.019531 352.78125 1053.828125 C 383.578125 1023.261719 448.710938 1066.199219 483.679688 1075.191406" fill="inherit"/><path d="M 1095.378906 1232.800781 C 1060.570312 1233.421875 874.015625 1277.648438 854.972656 1304.910156 C 836.199219 1331.769531 851.597656 1483.730469 878.996094 1486.550781 C 914.921875 1490.230469 995.875 1407.261719 1017.910156 1382.378906 C 1059.71875 1335.148438 1093.75 1293.75 1122.089844 1240.800781 C 1115.160156 1232.421875 1106.539062 1232.601562 1095.378906 1232.800781 Z M 1180.851562 1211.421875 C 1116.328125 1272.101562 1069.140625 1379.511719 988.53125 1438.46875 C 948.871094 1467.46875 865.425781 1548.148438 836.261719 1481.21875 C 858.757812 1399.679688 787.910156 1295.289062 862.972656 1267.519531 C 958.394531 1232.21875 1083.671875 1222.421875 1180.851562 1211.421875" fill="inherit"/><path d="M 443.605469 1312.921875 C 415.433594 1323.148438 357.179688 1319.980469 334.085938 1307.578125 C 354.5625 1270.328125 412.460938 1310.089844 443.605469 1312.921875" fill="inherit"/><path d="M 366.152344 1556.011719 C 339.511719 1566.828125 269.464844 1570.75 245.9375 1558.660156 C 264.273438 1525.589844 337.683594 1548.878906 366.152344 1556.011719" fill="inherit"/></g></svg>