<?xml version="1.0" encoding="UTF-8" standalone="no"?><svg xmlns="http://www.w3.org/2000/svg" xmlns:xlink="http://www.w3.org/1999/xlink" fill="#396416" height="614.9" preserveAspectRatio="xMidYMid meet" version="1" viewBox="-0.1 0.2 519.1 614.9" width="519.1" zoomAndPan="magnify"><g id="change1_1"><path d="M2420 6104 c-115 -14 -250 -40 -350 -69 -314 -90 -455 -211 -520 -446 -19 -70 -56 -416 -45 -427 12 -13 18 16 31 174 22 263 63 383 169 489 96 96 246 164 491 221 108 26 136 28 304 28 159 0 193 -2 240 -19 104 -38 67 -67 -120 -95 -173 -26 -265 -62 -423 -164 -47 -30 -132 -78 -188 -107 -146 -72 -232 -132 -285 -196 -25 -31 -80 -128 -124 -217 -86 -177 -126 -232 -204 -277 -28 -17 -40 -27 -26 -24 29 8 95 48 128 78 12 11 22 19 22 16 0 -2 -7 -83 -15 -179 -10 -128 -21 -199 -41 -265 -65 -218 -71 -326 -28 -510 40 -171 53 -258 63 -416 10 -155 23 -200 73 -245 54 -50 163 -84 270 -84 48 0 48 0 41 -27 -5 -16 -8 -64 -8 -108 1 -67 5 -89 28 -132 38 -74 72 -110 235 -249 220 -189 298 -217 427 -156 56 27 328 187 405 239 104 69 182 176 216 292 l22 76 15 -75 c25 -118 29 -177 15 -187 -7 -4 -33 -30 -58 -58 -43 -49 -108 -104 -122 -105 -4 0 -10 20 -14 45 -3 25 -10 43 -14 40 -4 -3 -22 -97 -40 -210 -32 -198 -34 -205 -54 -198 -12 4 -39 8 -61 9 -22 1 -58 7 -80 13 -22 6 -110 11 -196 11 -122 0 -158 3 -162 13 -3 8 -27 28 -54 46 -44 30 -52 32 -103 26 -84 -10 -110 -9 -175 9 -38 11 -103 17 -179 18 l-119 1 7 206 c4 113 9 224 12 246 3 21 2 36 -2 32 -14 -13 -33 -143 -34 -222 0 -44 -3 -123 -6 -176 l-7 -97 -37 -11 c-45 -13 -62 -33 -80 -88 -26 -82 6 -290 56 -366 49 -74 118 -82 239 -28 135 61 236 145 309 256 31 46 64 89 75 95 12 6 38 8 61 4 36 -6 40 -10 40 -35 0 -34 -23 -51 -103 -73 -32 -9 -55 -21 -52 -26 8 -13 66 -13 98 -1 22 9 26 7 31 -13 6 -26 90 -108 228 -222 131 -109 187 -133 235 -99 57 40 94 318 53 395 -10 18 -9 19 14 8 39 -17 52 2 67 97 l12 83 33 7 c19 3 64 29 100 57 l67 51 -7 -46 c-4 -26 -41 -185 -82 -354 -167 -693 -172 -713 -229 -1048 -76 -446 -126 -608 -310 -1010 -85 -185 -135 -303 -135 -316 0 -5 8 -9 18 -9 13 0 27 22 52 83 18 45 58 134 88 197 90 191 142 318 192 470 58 174 84 290 145 640 48 276 74 397 200 915 108 443 119 507 119 705 0 122 -4 180 -16 223 -9 31 -12 57 -7 57 36 0 352 -362 398 -454 73 -150 66 -311 -28 -676 -22 -85 -92 -362 -156 -615 -218 -865 -284 -1094 -361 -1247 -31 -62 -113 -189 -172 -265 -17 -23 -20 -33 -10 -33 8 0 41 37 75 83 136 184 208 343 298 658 49 173 384 1503 416 1654 20 90 17 320 -3 373 -10 23 -15 42 -13 42 4 0 133 -81 525 -332 91 -58 245 -149 343 -202 217 -117 254 -142 334 -222 105 -106 155 -235 202 -519 53 -314 61 -490 40 -895 -7 -131 -9 -246 -4 -275 l9 -50 7 55 c18 129 39 458 39 620 0 326 -67 746 -146 918 -84 184 -140 230 -564 462 -63 35 -209 124 -325 199 -316 203 -458 291 -471 291 -6 0 -34 30 -61 68 -127 172 -341 392 -382 392 -5 0 -17 10 -25 22 -21 30 -20 200 2 328 15 85 19 95 39 98 35 5 194 167 252 257 125 193 289 588 331 800 18 85 15 275 -5 370 -54 258 -250 512 -497 644 -147 79 -431 155 -508 136 -20 -5 -23 -4 -12 6 19 20 14 57 -10 73 -55 36 -273 64 -388 50z m460 -165 c224 -25 465 -132 623 -279 121 -110 234 -292 273 -435 21 -81 30 -284 15 -371 -27 -155 -101 -355 -226 -609 -84 -170 -165 -292 -258 -387 -39 -41 -91 -67 -105 -53 -3 3 5 61 17 129 23 124 23 125 73 178 73 79 103 147 103 235 0 64 -3 75 -31 109 -62 77 -173 102 -259 58 -22 -11 -53 -24 -70 -28 -68 -17 -196 -124 -194 -164 0 -13 4 -12 17 8 27 41 115 121 149 136 46 20 57 18 39 -8 -9 -12 -16 -36 -16 -53 l1 -30 29 34 c46 54 79 71 138 71 142 0 191 -109 117 -258 -52 -104 -125 -162 -262 -206 -29 -10 -55 -22 -58 -27 -9 -13 -69 -11 -100 3 -31 14 -41 47 -27 88 13 35 0 40 -22 8 -24 -34 -20 -81 10 -109 22 -21 35 -24 92 -23 63 0 166 29 232 64 21 12 22 11 16 -14 -28 -110 -37 -192 -26 -226 9 -26 9 -46 0 -80 -6 -25 -14 -142 -17 -260 l-5 -215 -34 -71 c-49 -105 -130 -175 -353 -308 -259 -156 -316 -170 -420 -109 -58 34 -262 205 -332 280 -89 93 -103 128 -104 252 l0 105 65 17 c155 41 241 86 431 227 132 99 196 158 185 169 -8 8 -50 -19 -195 -125 -258 -189 -381 -244 -551 -246 -121 -1 -187 16 -239 61 -51 43 -67 97 -75 246 l-5 107 34 0 c47 0 113 30 177 83 30 24 73 55 96 68 23 13 41 28 39 32 -3 9 -171 70 -254 93 -56 15 -96 8 -118 -23 -11 -14 -14 -9 -24 37 -40 186 -37 261 20 458 21 73 41 164 45 203 8 83 22 89 83 34 41 -37 61 -44 61 -20 0 27 -68 85 -100 85 -16 0 -31 3 -33 8 -9 14 6 152 16 152 6 0 28 -16 48 -36 45 -44 75 -42 58 3 -14 38 -37 62 -82 84 l-37 20 81 162 c73 145 90 169 153 232 58 57 94 81 189 129 65 32 167 89 227 127 189 119 232 135 435 170 66 11 122 22 124 25 3 3 12 2 20 -2 9 -3 54 -10 101 -15z m-1212 -1894 c28 -9 52 -19 52 -23 0 -4 -37 -13 -82 -21 -46 -7 -96 -15 -112 -18 -28 -6 -29 -5 -23 27 14 67 40 72 165 35z m61 -95 c-55 -50 -129 -90 -168 -90 -35 0 -51 22 -51 69 0 30 2 31 43 32 23 0 76 6 117 14 41 7 81 13 89 14 7 1 -6 -17 -30 -39z m1514 -1007 c-8 -98 -12 -106 -66 -149 -66 -52 -136 -98 -141 -93 -2 2 -2 36 1 74 l5 71 46 19 c27 11 67 41 96 72 28 29 53 53 57 53 4 0 5 -21 2 -47z m-1223 -292 l45 -7 -45 -7 c-118 -18 -273 -28 -282 -19 -28 28 172 51 282 33z m340 -29 c22 -15 23 -17 6 -20 -17 -4 -99 14 -120 26 -17 9 28 21 59 15 17 -3 41 -12 55 -21z m-129 -22 c38 -12 69 -22 69 -24 0 -18 -111 -164 -155 -204 -63 -58 -235 -148 -300 -158 -78 -11 -118 55 -144 241 -7 44 -14 92 -17 107 -5 26 -5 26 31 16 27 -9 72 -7 198 7 133 15 221 27 246 34 2 1 35 -8 72 -19z m593 -68 c68 -30 86 -67 86 -172 0 -87 -20 -194 -42 -230 -28 -44 -79 -20 -218 99 -36 30 -100 89 -142 130 l-77 74 25 30 c19 22 23 37 19 58 l-6 28 63 4 c125 9 244 0 292 -21z" transform="matrix(.1 0 0 -.1 0 612)"/><path d="M2418 5820 c-149 -37 -241 -100 -286 -198 -46 -101 -28 -270 45 -417 16 -31 62 -86 124 -147 l100 -96 -63 19 c-183 55 -359 65 -415 23 -32 -24 -32 -40 0 -36 141 18 195 14 339 -22 160 -40 174 -42 181 -23 9 28 207 -160 275 -263 64 -95 85 -172 80 -293 -4 -92 -3 -98 10 -67 46 114 37 245 -25 370 -49 96 -154 206 -333 348 -193 153 -253 241 -280 408 -33 202 62 306 328 361 86 17 115 29 107 44 -10 15 -103 9 -187 -11z" transform="matrix(.1 0 0 -.1 0 612)"/><path d="M2934 5732 c40 -78 46 -336 11 -466 -21 -77 -13 -82 16 -9 21 52 23 75 24 223 0 159 -1 167 -27 223 -15 31 -30 57 -33 57 -3 0 1 -13 9 -28z" transform="matrix(.1 0 0 -.1 0 612)"/><path d="M3221 5560 c-1 -3 4 -21 10 -40 7 -21 13 -128 14 -275 1 -153 6 -259 14 -293 7 -29 15 -52 17 -49 2 2 0 132 -4 288 -8 257 -10 288 -29 329 -12 25 -22 43 -22 40z" transform="matrix(.1 0 0 -.1 0 612)"/><path d="M3389 5481 c142 -207 175 -476 105 -856 -9 -49 13 -9 38 70 20 62 23 91 23 260 0 168 -3 200 -23 275 -33 121 -75 202 -138 268 l-55 57 50 -74z" transform="matrix(.1 0 0 -.1 0 612)"/><path d="M2435 5500 c4 -14 30 -62 57 -108 27 -45 66 -124 87 -175 70 -171 144 -262 257 -318 36 -18 67 -30 70 -27 3 3 -26 27 -65 52 -112 75 -179 163 -246 326 -15 36 -55 108 -88 160 -70 110 -82 125 -72 90z" transform="matrix(.1 0 0 -.1 0 612)"/><path d="M2004 4818 c-12 -5 -27 -21 -33 -34 -26 -57 -3 -80 28 -29 15 25 27 35 46 35 14 0 90 -34 170 -76 131 -69 165 -80 165 -54 0 5 -43 32 -96 60 -213 116 -231 122 -280 98z" transform="matrix(.1 0 0 -.1 0 612)"/><path d="M1624 4706 c-89 -101 -127 -167 -132 -231 -3 -33 1 -68 8 -86 23 -56 113 -105 223 -124 65 -11 40 12 -44 40 -198 66 -215 165 -58 357 85 105 88 139 3 44z" transform="matrix(.1 0 0 -.1 0 612)"/><path d="M3154 4381 c3 -4 19 -11 36 -14 18 -4 34 -16 41 -30 15 -33 -4 -67 -77 -139 -35 -35 -52 -58 -43 -58 26 0 81 42 116 88 59 78 37 162 -43 162 -19 0 -33 -4 -30 -9z" transform="matrix(.1 0 0 -.1 0 612)"/><path d="M2981 4268 c-9 -40 -20 -60 -44 -80 -28 -24 -30 -27 -11 -28 36 0 67 44 72 105 2 30 2 55 -1 55 -3 0 -10 -24 -16 -52z" transform="matrix(.1 0 0 -.1 0 612)"/><path d="M2048 2496 c-59 -13 -76 -21 -65 -33 7 -7 197 14 206 23 10 9 -24 24 -54 23 -16 0 -56 -6 -87 -13z" transform="matrix(.1 0 0 -.1 0 612)"/><path d="M2072 2409 c-18 -12 -31 -24 -28 -26 5 -5 76 35 76 43 0 9 -16 3 -48 -17z" transform="matrix(.1 0 0 -.1 0 612)"/><path d="M2593 2483 c15 -2 37 -2 50 0 12 2 0 4 -28 4 -27 0 -38 -2 -22 -4z" transform="matrix(.1 0 0 -.1 0 612)"/><path d="M2555 2430 c11 -17 116 -43 127 -32 8 8 2 13 -18 17 -16 4 -42 11 -58 16 -38 12 -59 11 -51 -1z" transform="matrix(.1 0 0 -.1 0 612)"/><path d="M2207 5949 c-88 -25 -181 -67 -253 -117 -95 -64 -207 -190 -258 -290 -30 -59 -10 -45 45 30 139 190 267 286 489 369 86 32 76 36 -23 8z" transform="matrix(.1 0 0 -.1 0 612)"/><path d="M1725 5713 c-52 -72 -143 -262 -150 -313 l-6 -45 24 60 c27 68 88 190 140 283 20 34 34 62 32 62 -3 0 -20 -21 -40 -47z" transform="matrix(.1 0 0 -.1 0 612)"/><path d="M1784 3219 c-27 -17 -85 -66 -130 -109 -138 -132 -219 -169 -547 -249 -240 -59 -345 -94 -491 -167 -274 -136 -387 -274 -451 -551 -18 -78 -100 -635 -119 -813 -44 -398 -47 -922 -7 -1145 12 -66 26 -135 32 -152 13 -40 34 -45 24 -5 -36 139 -47 239 -52 493 -9 416 13 705 97 1299 44 308 66 410 109 504 70 152 175 247 386 351 150 73 275 115 535 179 190 47 283 79 351 122 21 13 39 22 39 18 0 -3 -20 -33 -44 -67 -279 -394 -466 -852 -543 -1329 -21 -131 -24 -507 -5 -658 29 -232 87 -482 155 -671 19 -52 44 -133 57 -181 26 -98 47 -119 36 -35 -10 73 -52 252 -81 345 -41 132 -75 275 -106 460 -37 212 -49 491 -30 662 49 429 235 936 479 1305 136 206 205 290 295 359 42 32 77 60 77 62 0 10 -20 1 -66 -27z" transform="matrix(.1 0 0 -.1 0 612)"/><path d="M412 2295 c0 -16 2 -22 5 -12 2 9 2 23 0 30 -3 6 -5 -1 -5 -18z" transform="matrix(.1 0 0 -.1 0 612)"/><path d="M402 2240 c-35 -471 -25 -607 98 -1285 27 -154 59 -363 70 -465 54 -501 53 -490 76 -490 17 0 17 6 4 85 -5 33 -18 154 -30 270 -24 244 -41 354 -116 753 -84 448 -86 470 -94 832 -3 179 -7 314 -8 300z" transform="matrix(.1 0 0 -.1 0 612)"/><path d="M2161 2234 c0 -11 3 -14 6 -6 3 7 2 16 -1 19 -3 4 -6 -2 -5 -13z" transform="matrix(.1 0 0 -.1 0 612)"/><path d="M1665 2190 c-31 -94 -44 -204 -60 -500 -8 -162 -20 -360 -26 -440 -6 -80 -13 -394 -16 -697 -6 -552 -6 -553 15 -553 18 0 21 8 27 92 4 51 8 327 9 613 2 286 8 617 15 735 6 118 16 298 21 400 6 102 17 232 26 289 8 57 13 105 11 108 -3 2 -13 -19 -22 -47z" transform="matrix(.1 0 0 -.1 0 612)"/><path d="M2136 2125 c-9 -50 -30 -189 -46 -310 -16 -121 -44 -283 -60 -360 -73 -331 -92 -438 -130 -750 -73 -586 -82 -705 -55 -705 8 0 15 3 15 8 1 48 29 319 66 622 33 273 59 448 99 645 65 323 66 331 105 658 33 272 35 343 6 192z" transform="matrix(.1 0 0 -.1 0 612)"/><path d="M2508 2123 c-75 -165 -139 -394 -219 -783 -99 -486 -138 -829 -139 -1232 0 -101 1 -108 20 -108 19 0 20 7 20 173 0 331 24 572 96 967 68 373 150 716 219 921 24 73 43 134 41 136 -2 2 -19 -32 -38 -74z" transform="matrix(.1 0 0 -.1 0 612)"/><path d="M1856 1970 c7 -45 64 -233 69 -228 4 3 -59 231 -70 253 -3 6 -2 -6 1 -25z" transform="matrix(.1 0 0 -.1 0 612)"/><path d="M2665 1798 l-50 -53 53 50 c28 27 52 51 52 52 0 8 -9 -1 -55 -49z" transform="matrix(.1 0 0 -.1 0 612)"/><path d="M4655 1778 c-16 -24 -73 -117 -128 -208 -177 -293 -255 -470 -357 -805 -82 -273 -108 -408 -125 -667 -7 -93 -6 -98 13 -98 18 0 21 9 27 93 19 265 53 440 140 722 90 288 173 477 350 790 69 122 117 215 111 215 -2 0 -16 -19 -31 -42z" transform="matrix(.1 0 0 -.1 0 612)"/><path d="M2564 1688 l-19 -23 23 19 c12 11 22 21 22 23 0 8 -8 2 -26 -19z" transform="matrix(.1 0 0 -.1 0 612)"/><path d="M2149 1634 c-17 -21 0 -49 31 -49 31 0 48 28 31 49 -8 9 -21 16 -31 16 -10 0 -23 -7 -31 -16z" transform="matrix(.1 0 0 -.1 0 612)"/><path d="M2700 1549 l-35 -30 38 26 c33 24 43 35 34 35 -1 0 -18 -14 -37 -31z" transform="matrix(.1 0 0 -.1 0 612)"/><path d="M2555 1418 l-100 -103 103 100 c95 93 107 105 99 105 -1 0 -47 -46 -102 -102z" transform="matrix(.1 0 0 -.1 0 612)"/><path d="M1810 1326 c0 -11 50 -106 55 -106 3 0 -7 24 -21 53 -28 55 -34 65 -34 53z" transform="matrix(.1 0 0 -.1 0 612)"/><path d="M2579 936 c-57 -46 -117 -99 -134 -117 -20 -22 -10 -16 30 17 33 28 98 81 143 117 46 37 80 67 75 67 -5 0 -56 -38 -114 -84z" transform="matrix(.1 0 0 -.1 0 612)"/><path d="M3751 853 c-12 -8 -81 -33 -152 -54 -133 -40 -209 -72 -209 -88 0 -16 54 -23 222 -30 211 -8 475 2 490 17 9 9 -12 12 -87 12 l-100 0 -41 48 c-22 26 -48 59 -58 74 -22 34 -39 40 -65 21z m72 -82 l45 -59 -31 -5 c-18 -3 -122 -2 -232 2 l-200 6 95 28 c52 15 133 41 180 56 47 15 88 29 91 29 3 1 26 -25 52 -57z" transform="matrix(.1 0 0 -.1 0 612)"/><path d="M1723 817 c33 -86 91 -217 94 -213 5 5 -87 226 -94 226 -3 0 -3 -6 0 -13z" transform="matrix(.1 0 0 -.1 0 612)"/><path d="M2532 684 c-65 -63 -108 -111 -97 -105 24 12 233 221 221 221 -4 0 -60 -52 -124 -116z" transform="matrix(.1 0 0 -.1 0 612)"/><path d="M2019 684 c-15 -18 -2 -47 24 -52 25 -5 40 33 21 52 -19 20 -28 20 -45 0z" transform="matrix(.1 0 0 -.1 0 612)"/><path d="M1680 445 c0 -5 5 -17 10 -25 5 -8 10 -10 10 -5 0 6 -5 17 -10 25 -5 8 -10 11 -10 5z" transform="matrix(.1 0 0 -.1 0 612)"/><path d="M1703 390 c13 -44 50 -140 53 -137 5 5 -32 112 -46 134 -7 12 -10 13 -7 3z" transform="matrix(.1 0 0 -.1 0 612)"/></g></svg>