<?xml version="1.0" encoding="UTF-8" standalone="no"?><svg xmlns="http://www.w3.org/2000/svg" xmlns:xlink="http://www.w3.org/1999/xlink" fill="#396416" height="598" preserveAspectRatio="xMidYMid meet" version="1" viewBox="0.0 0.0 560.0 598.0" width="560" zoomAndPan="magnify"><g><g id="change1_2"><path d="M512.0454102,598H47.9545898C21.512207,598,0,576.4882812,0,550.0458984V85.9545898 C0,59.512207,21.512207,38,47.9545898,38h464.0908203C538.487793,38,560,59.512207,560,85.9545898v464.0913086 C560,576.4882812,538.487793,598,512.0454102,598z M47.9545898,55C30.8862305,55,17,68.8862305,17,85.9545898v464.0913086 C17,567.1142578,30.8862305,581,47.9545898,581h464.0908203C529.1137695,581,543,567.1142578,543,550.0458984V85.9545898 C543,68.8862305,529.1137695,55,512.0454102,55H47.9545898z"/></g><g id="change1_1"><path d="M431.6109619,80h-303.222229c-10.4320526,0-18.8888931-8.4568405-18.8888931-18.8888893V18.8888893 C109.4998398,8.4568434,117.9566803,0,128.3887329,0h303.222229c10.4320374,0,18.8888855,8.4568434,18.8888855,18.8888893 v42.2222214C450.4998474,71.5431595,442.0429993,80,431.6109619,80z"/></g><g fill="#ffffff" id="change2_1"><path d="M203.3515625,30.2460938c-0.6523438-2.9365234-3.8222656-4.1953125-6.6660156-4.1484375 c-2.1904297,0.0458984-4.6152344,0.7919922-5.9199219,2.4697266c-0.6523438,0.8398438-0.8857422,1.9121094-0.7929688,3.0302734 c0.2333984,3.3564453,3.9160156,3.7763672,7.4121094,4.1025391c4.4755859,0.5595703,10.0224609,1.7246094,11.28125,6.9453125 c0.1396484,0.6992188,0.2333984,1.4921875,0.2333984,2.1445312c0,6.2929688-6.2470703,9.9287109-12.1201172,9.9287109 c-5.0351562,0-11.1416016-2.9833984-11.7470703-8.8095703l-0.046875-0.8857422l4.7548828-0.09375l0.046875,0.6992188v-0.1865234 c0.3261719,3.0302734,4.0087891,4.6152344,7.0380859,4.6152344c3.4960938,0,7.3193359-1.9580078,7.3193359-5.3144531 c0-0.3261719-0.046875-0.6992188-0.140625-1.1181641c-0.5585938-2.4707031-3.9150391-2.890625-7.1787109-3.2167969 c-5.0810547-0.5126953-11.0478516-1.6318359-11.5605469-8.4375c-0.1865234-2.1445312,0.3730469-4.3349609,1.7714844-6.1533203 c2.1914062-2.84375,6.1064453-4.3349609,9.8828125-4.3349609c5.0341797,0,10.2548828,2.6103516,11.0947266,8.5771484 L203.3515625,30.2460938z"/><path d="M217.2929688,26.5166016c2.84375-2.9365234,6.8525391-4.8476562,11.28125-4.8476562 c7.4580078,0,13.3320312,4.6611328,15.1962891,12.0263672h-4.6611328 c-1.7246094-4.8945312-5.734375-7.3652344-10.5351562-7.3652344c-3.1230469,0-5.9667969,1.3515625-8.0185547,3.4960938 c-2.0507812,2.1445312-3.3554688,5.0351562-3.3554688,8.390625c0,3.2636719,1.3046875,6.1533203,3.3554688,8.2978516 c2.0517578,2.1445312,4.8955078,3.4960938,8.0185547,3.4960938c4.9414062,0,9.1367188-2.84375,10.8144531-7.7841797h4.6152344 c-1.8652344,7.4111328-7.8320312,12.4462891-15.4296875,12.4462891c-4.4287109,0-8.4375-1.8652344-11.28125-4.8486328 c-2.796875-2.9833984-4.6611328-7.0849609-4.6611328-11.6074219C212.6318359,33.6025391,214.4960938,29.5,217.2929688,26.5166016z"/><path d="M266.1503906,44.8369141h-11.7001953c-1.2587891,2.9833984-2.890625,6.8984375-3.9160156,9.6025391 h-5.0810547l13.0986328-33.0507812h3.4501953l13.0986328,33.0507812h-5.0341797L266.1503906,44.8369141z M256.2216797,40.4082031 h8.1113281l-4.0097656-11.5136719L256.2216797,40.4082031z"/><path d="M277.4814453,54.4394531V21.7617188l3.6367188,0.046875l15.8955078,22.9814453V21.8085938h4.6621094 v32.6308594h-3.7294922l-15.7558594-22.7949219v22.7949219H277.4814453z"/><path d="M324.1494141,54.4394531h-4.7080078V21.8085938h3.8222656l10.7685547,15.8496094l10.7675781-15.8496094 h3.7294922v32.6308594h-4.6621094V31.4580078l-8.5302734,12.6796875h-2.6572266l-8.5302734-12.6796875V54.4394531z"/><path d="M358.6953125,49.7314453h15.1503906v4.7080078h-19.9052734V21.8554688h19.8583984v4.7080078h-15.1035156 v9.1835938h14.7773438v4.7539062h-14.7773438V49.7314453z"/></g></g></svg>